<svg width="24" height="24" viewBox="0 0 24 24" fill="none" xmlns="http://www.w3.org/2000/svg">
<g clip-path="url(#clip0_2658_18458)">
<path d="M21.0249 0.706849C21.2486 0.879199 21.4409 1.08359 21.6369 1.28619C21.8895 1.54494 22.1406 1.79982 22.4155 2.03495C22.9797 2.52506 23.5779 3.09282 23.6357 3.87952C23.648 4.64545 23.3358 5.0948 22.8207 5.63113C22.6499 5.80701 22.4778 5.98153 22.3049 6.15534C22.2699 6.19062 22.2348 6.2259 22.1987 6.26225C22.0417 6.41877 21.8839 6.57159 21.7153 6.71564C21.4669 6.92979 21.2372 7.16329 21.0059 7.39552C20.9281 7.47354 20.8501 7.55131 20.772 7.62906C20.5388 7.86218 20.3071 8.09487 20.0964 8.34904C20.0168 8.43756 20.0168 8.43756 19.932 8.50745C19.7983 8.61914 19.7037 8.70879 19.6584 8.8803C19.6469 9.01946 19.6457 9.1553 19.6481 9.29493C19.6477 9.3479 19.6473 9.40087 19.6469 9.45545C19.6459 9.63281 19.6473 9.81007 19.6486 9.98742C19.6486 10.1146 19.6481 10.2418 19.6476 10.3691C19.6467 10.6429 19.6471 10.9168 19.6482 11.1907C19.6498 11.5872 19.6496 11.9837 19.6488 12.3802C19.6477 13.0242 19.6479 13.6682 19.6491 14.3122C19.6502 14.9365 19.6509 15.5609 19.6509 16.1852C19.6509 16.2236 19.6509 16.2621 19.6509 16.3017C19.6509 16.7216 19.6507 17.1415 19.6504 17.5614C19.6504 17.5983 19.6504 17.6353 19.6503 17.6733C19.6502 17.8211 19.6501 17.9688 19.65 18.1165C19.6497 18.5484 19.6497 18.9803 19.6506 19.4121C19.6511 19.6832 19.6514 19.9542 19.6514 20.2252C19.6514 20.3815 19.6517 20.5377 19.6522 20.6939C19.6528 20.8636 19.6528 21.0333 19.6527 21.203C19.6531 21.2764 19.6531 21.2764 19.6536 21.3512C19.6516 21.9743 19.503 22.5942 19.0647 23.0626C18.5254 23.5382 17.9518 23.6466 17.2498 23.6432C17.1847 23.6434 17.1195 23.6437 17.0543 23.644C16.8766 23.6447 16.6988 23.6445 16.521 23.6441C16.3288 23.6439 16.1366 23.6445 15.9443 23.645C15.5682 23.6458 15.1921 23.6458 14.816 23.6456C14.5102 23.6454 14.2044 23.6455 13.8986 23.6457C13.855 23.6457 13.8114 23.6458 13.7665 23.6458C13.6779 23.6459 13.5893 23.646 13.5007 23.646C12.6708 23.6467 11.841 23.6464 11.0111 23.6459C10.2527 23.6454 9.49426 23.646 8.73585 23.6471C7.95617 23.6483 7.1765 23.6487 6.39682 23.6484C5.95947 23.6483 5.52212 23.6484 5.08476 23.6492C4.71245 23.6499 4.34015 23.6499 3.96784 23.6491C3.77808 23.6487 3.58833 23.6486 3.39857 23.6493C3.22449 23.65 3.05044 23.6497 2.87637 23.6488C2.78434 23.6486 2.69231 23.6492 2.60029 23.6499C2.0323 23.6452 1.52542 23.5183 1.07933 23.1563C1.05002 23.1328 1.02071 23.1093 0.99052 23.0851C0.620886 22.7541 0.398804 22.2456 0.367454 21.7533C0.363839 21.5855 0.36326 21.4179 0.363666 21.25C0.363491 21.1849 0.363275 21.1199 0.363022 21.0548C0.362451 20.8767 0.362461 20.6987 0.362572 20.5206C0.362591 20.3282 0.362073 20.1359 0.361629 19.9436C0.360851 19.567 0.360593 19.1904 0.36054 18.8138C0.360496 18.5076 0.360302 18.2014 0.360005 17.8951C0.35918 17.0263 0.358748 16.1574 0.358818 15.2886C0.358822 15.2418 0.358826 15.1949 0.358829 15.1467C0.358833 15.0998 0.358837 15.053 0.358841 15.0047C0.358879 14.2454 0.357983 13.486 0.356661 12.7267C0.355313 11.9464 0.354666 11.1661 0.354747 10.3858C0.354778 9.94795 0.354523 9.51012 0.353512 9.0723C0.352657 8.69947 0.352455 8.32665 0.35309 7.95382C0.353396 7.76377 0.353404 7.57374 0.352588 7.38369C0.351847 7.20935 0.351989 7.03504 0.352803 6.8607C0.353013 6.76852 0.35231 6.67635 0.351562 6.58418C0.356596 5.93029 0.532673 5.40452 0.978252 4.92212C1.49716 4.42767 2.15922 4.34329 2.84714 4.35048C2.89998 4.35064 2.95282 4.3508 3.00727 4.35096C3.18304 4.35159 3.3588 4.35288 3.53456 4.35416C3.66111 4.35472 3.78766 4.35524 3.91421 4.3557C4.15099 4.3566 4.38776 4.35766 4.62454 4.35891C5.08992 4.36136 5.55529 4.36247 6.02068 4.36308C6.09413 4.36318 6.16757 4.36328 6.24102 4.36339C6.38966 4.36359 6.5383 4.36379 6.68695 4.36399C7.0683 4.36449 7.44965 4.36508 7.831 4.36581C7.86924 4.36588 7.90748 4.36596 7.94687 4.36603C8.56662 4.36727 9.18635 4.37038 9.80608 4.3741C10.4436 4.37788 11.0811 4.37932 11.7186 4.37869C12.1112 4.37839 12.5037 4.37992 12.8962 4.38386C13.1654 4.3864 13.4346 4.38668 13.7038 4.38523C13.8589 4.38447 14.0138 4.385 14.1688 4.38757C14.9026 4.42135 14.9026 4.42135 15.5285 4.09763C15.6446 3.97272 15.744 3.84069 15.845 3.70319C15.9488 3.60557 15.9488 3.60557 16.0337 3.53748C16.279 3.32863 16.5037 3.09827 16.7309 2.87023C16.8087 2.79221 16.8867 2.71444 16.9647 2.63669C17.1971 2.40443 17.4247 2.1706 17.6383 1.92069C17.8123 1.72359 18 1.53948 18.1858 1.35358C18.2459 1.29258 18.2459 1.29258 18.3073 1.23035C18.8785 0.657852 18.8785 0.657852 19.2522 0.501038C19.2852 0.486717 19.3183 0.472397 19.3523 0.457642C19.933 0.25435 20.5274 0.367375 21.0249 0.706849Z" fill="#DBE4E2"/>
<path d="M21.0208 0.706849C21.2446 0.879199 21.4368 1.08359 21.6329 1.28619C21.8854 1.54494 22.1365 1.79982 22.4114 2.03495C22.9756 2.52506 23.5738 3.09282 23.6317 3.87952C23.6439 4.64545 23.3317 5.0948 22.8167 5.63113C22.6459 5.80701 22.4737 5.98153 22.3008 6.15534C22.2658 6.19062 22.2307 6.2259 22.1946 6.26225C22.0376 6.41877 21.8798 6.57159 21.7112 6.71564C21.4628 6.92979 21.2332 7.16329 21.0018 7.39552C20.924 7.47354 20.846 7.55131 20.768 7.62906C20.5307 7.86622 20.2967 8.10365 20.0798 8.35992C19.9119 8.55441 19.7274 8.73087 19.5308 8.89591C19.206 9.17915 18.9076 9.49094 18.604 9.79638C18.5327 9.86787 18.4615 9.93935 18.3902 10.0108C18.2372 10.1643 18.0843 10.3177 17.9315 10.4713C17.6895 10.7144 17.4473 10.9572 17.205 11.2C16.5163 11.8903 15.8277 12.5808 15.1397 13.2718C14.7593 13.6538 14.3786 14.0356 13.9977 14.4171C13.7571 14.658 13.5168 14.8993 13.2768 15.1408C13.1269 15.2914 12.9768 15.4417 12.8267 15.5918C12.7574 15.6612 12.6883 15.7306 12.6194 15.8002C11.6321 16.796 11.6321 16.796 11.0128 16.9219C10.975 16.9298 10.9372 16.9376 10.8983 16.9457C10.7795 16.9685 10.6605 16.9885 10.5411 17.0078C10.4971 17.0152 10.4532 17.0226 10.4079 17.0302C10.2658 17.0539 10.1237 17.0773 9.98151 17.1006C9.78355 17.1335 9.58563 17.1666 9.3877 17.1997C9.33854 17.2079 9.28937 17.2161 9.23872 17.2245C8.93431 17.2754 8.63039 17.3284 8.32679 17.3839C8.29022 17.3906 8.25366 17.3972 8.21599 17.4041C8.01122 17.4413 8.01122 17.4413 7.80662 17.4794C6.88365 17.6532 6.88365 17.6532 6.65817 17.5293C6.51937 17.4182 6.42747 17.3259 6.40753 17.1472C6.39251 16.5926 6.5124 16.0581 6.6153 15.5157C6.64468 15.3579 6.67391 15.2001 6.70312 15.0423C6.72237 14.9384 6.74169 14.8345 6.76107 14.7307C6.81515 14.44 6.86695 14.1492 6.91449 13.8575C6.91969 13.8259 6.92489 13.7942 6.93024 13.7616C6.95307 13.6222 6.97538 13.4828 6.99683 13.3431C7.17094 12.2781 7.9521 11.6315 8.68187 10.9045C8.75255 10.8339 8.82321 10.7633 8.89386 10.6927C9.04493 10.5418 9.19606 10.391 9.34726 10.2402C9.58656 10.0015 9.82568 9.76265 10.0648 9.52378C10.572 9.01704 11.0795 8.51049 11.587 8.00397C12.1356 7.45634 12.6843 6.90869 13.2327 6.3608C13.4701 6.12355 13.7077 5.88642 13.9454 5.64938C14.0933 5.50183 14.2411 5.35419 14.3889 5.20652C14.4572 5.13831 14.5255 5.07013 14.5939 5.002C15.0351 4.56608 15.0351 4.56608 15.4496 4.10517C15.6176 3.90875 15.805 3.7323 16.002 3.56549C16.2549 3.34519 16.4903 3.1077 16.7268 2.87023C16.8046 2.79221 16.8826 2.71444 16.9607 2.63669C17.1931 2.40443 17.4207 2.1706 17.6342 1.92069C17.8082 1.72359 17.9959 1.53948 18.1817 1.35358C18.2418 1.29258 18.2418 1.29258 18.3032 1.23035C18.8744 0.657852 18.8744 0.657852 19.2481 0.501038C19.2812 0.486717 19.3142 0.472397 19.3483 0.457642C19.929 0.25435 20.5233 0.367375 21.0208 0.706849Z" fill="#E0C53A"/>
<path d="M21.0237 0.706849C21.2474 0.879199 21.4397 1.08359 21.6357 1.28619C21.8883 1.54494 22.1394 1.79982 22.4142 2.03495C22.9785 2.52506 23.5767 3.09282 23.6345 3.87952C23.6468 4.64438 23.3355 5.09392 22.8212 5.62969C22.5147 5.94435 22.2029 6.25368 21.8906 6.56256C21.6288 6.34455 21.3869 6.1121 21.1466 5.87072C21.1063 5.83045 21.066 5.79017 21.0245 5.74868C20.915 5.63915 20.8056 5.52952 20.6963 5.41984C20.5816 5.30489 20.4668 5.19008 20.3521 5.07526C20.1352 4.85822 19.9184 4.64106 19.7017 4.42385C19.4547 4.1764 19.2077 3.92909 18.9606 3.68178C18.4528 3.17344 17.9451 2.66493 17.4375 2.15631C17.482 2.10407 17.5266 2.05186 17.5711 1.99968C17.5959 1.9706 17.6207 1.94153 17.6463 1.91157C17.815 1.71742 17.9999 1.53836 18.1816 1.35651C18.2219 1.31563 18.2622 1.27475 18.3038 1.23264C18.8773 0.65785 18.8773 0.65785 19.251 0.501038C19.3006 0.479557 19.3006 0.479557 19.3511 0.457642C19.9318 0.25435 20.5262 0.367375 21.0237 0.706849Z" fill="#C74B5D"/>
<path d="M17.4375 2.15625C17.6977 2.37302 17.9384 2.60384 18.1772 2.84379C18.2171 2.88361 18.2569 2.92342 18.2979 2.96445C18.4062 3.07272 18.5143 3.18109 18.6224 3.28951C18.7357 3.40314 18.8492 3.51664 18.9626 3.63015C19.1771 3.8447 19.3913 4.05937 19.6056 4.27408C19.8497 4.5187 20.0939 4.76318 20.3381 5.00765C20.8402 5.51016 21.342 6.01284 21.8438 6.51562C21.7999 6.56726 21.756 6.61882 21.7121 6.67037C21.6877 6.69909 21.6632 6.72781 21.6381 6.75741C21.5206 6.8916 21.3951 7.01696 21.2684 7.1424C21.2418 7.16898 21.2151 7.19557 21.1877 7.22296C21.1037 7.30663 21.0196 7.39013 20.9355 7.47363C20.8781 7.53084 20.8207 7.58806 20.7632 7.64529C20.6235 7.78449 20.4837 7.92353 20.3438 8.0625C20.1916 7.99569 20.0906 7.91465 19.9735 7.79732C19.9378 7.76169 19.902 7.72606 19.8652 7.68936C19.807 7.63069 19.807 7.63069 19.7477 7.57084C19.7065 7.52968 19.6653 7.48852 19.6229 7.44611C19.5102 7.33336 19.3977 7.2204 19.2854 7.10736C19.1678 6.9892 19.0499 6.87131 18.9321 6.75339C18.7092 6.53013 18.4864 6.30663 18.2638 6.08304C18.0103 5.82847 17.7565 5.57418 17.5027 5.3199C16.9807 4.79689 16.459 4.27356 15.9375 3.75C16.0025 3.61499 16.0643 3.51788 16.171 3.41212C16.1991 3.38398 16.2273 3.35584 16.2563 3.32685C16.2866 3.29706 16.3168 3.26727 16.348 3.23657C16.3791 3.20562 16.4102 3.17468 16.4422 3.14279C16.5413 3.04419 16.6408 2.94592 16.7402 2.84766C16.8076 2.78078 16.8749 2.71389 16.9422 2.64697C17.1071 2.48315 17.2722 2.31962 17.4375 2.15625Z" fill="#DBE4E2"/>
<path d="M7.21588 12.5625C7.36423 12.6282 7.46446 12.7056 7.57897 12.8199C7.61315 12.8538 7.64733 12.8878 7.68254 12.9227C7.71956 12.9599 7.75658 12.9971 7.79473 13.0355C7.83407 13.0746 7.87342 13.1138 7.91396 13.1542C8.02162 13.2615 8.12908 13.3691 8.23642 13.4767C8.34877 13.5893 8.46134 13.7016 8.57387 13.814C8.76271 14.0027 8.95134 14.1915 9.13987 14.3805C9.35803 14.5992 9.57654 14.8175 9.79521 15.0357C9.98289 15.2229 10.1704 15.4104 10.3577 15.598C10.4696 15.71 10.5816 15.822 10.6938 15.9339C10.8186 16.0585 10.9431 16.1833 11.0676 16.3083C11.105 16.3455 11.1424 16.3827 11.1809 16.421C11.2145 16.455 11.2482 16.4889 11.2829 16.5238C11.3123 16.5533 11.3418 16.5829 11.3722 16.6133C11.4346 16.6875 11.4346 16.6875 11.4346 16.7813C11.1411 16.8886 10.8539 16.9582 10.5457 17.0078C10.5016 17.0151 10.4576 17.0225 10.4122 17.0301C10.2697 17.0539 10.1271 17.0773 9.98444 17.1006C9.78605 17.1335 9.5877 17.1666 9.38935 17.1996C9.34004 17.2078 9.29073 17.216 9.23993 17.2245C8.93504 17.2752 8.63065 17.3283 8.3266 17.3839C8.29005 17.3905 8.2535 17.3971 8.21584 17.404C8.07938 17.4288 7.94293 17.4537 7.80663 17.4793C6.88365 17.6531 6.88365 17.6531 6.65817 17.5293C6.51937 17.4182 6.42747 17.3259 6.40753 17.1471C6.39251 16.5925 6.51243 16.058 6.6153 15.5156C6.64464 15.358 6.67381 15.2003 6.70297 15.0426C6.7222 14.9387 6.74149 14.8349 6.76086 14.731C6.81518 14.4391 6.86755 14.147 6.91614 13.8541C6.92145 13.8223 6.92676 13.7904 6.93223 13.7576C6.95561 13.6167 6.97856 13.4758 7.00095 13.3348C7.04626 13.0613 7.10847 12.8185 7.21588 12.5625Z" fill="#8F5C4A"/>
</g>
<defs>
<clipPath id="clip0_2658_18458">
<rect width="24" height="24" fill="white"/>
</clipPath>
</defs>
</svg>
