<svg width="24" height="24" viewBox="0 0 24 24" fill="none" xmlns="http://www.w3.org/2000/svg">
<g clip-path="url(#clip0_2658_18464)">
<path d="M3.32933 6.177e-05C3.52263 0.0969048 3.60778 0.228837 3.70433 0.421937C3.70433 0.978812 3.70433 1.53569 3.70433 2.10944C5.77714 2.10944 7.84995 2.10944 9.98558 2.10944C9.98558 1.56803 9.98558 1.02662 9.98558 0.468812C10.1633 0.113434 10.1633 0.113434 10.4075 6.177e-05C10.6159 -0.0331319 10.8225 -0.0503309 11.0155 0.0463875C11.1553 0.15731 11.2179 0.261522 11.2981 0.421937C11.2981 0.978812 11.2981 1.53569 11.2981 2.10944C13.3709 2.10944 15.4437 2.10944 17.5793 2.10944C17.5793 1.56803 17.5793 1.02662 17.5793 0.468812C17.757 0.113434 17.757 0.113434 18.0012 6.177e-05C18.2097 -0.0331319 18.4162 -0.0503309 18.6093 0.0463875C18.743 0.152497 18.8336 0.263221 18.8918 0.421937C18.8997 0.552757 18.9027 0.678705 18.901 0.809388C18.9008 0.865174 18.9008 0.865174 18.9006 0.922086C18.9001 1.04053 18.8989 1.15896 18.8977 1.27741C18.8972 1.35785 18.8968 1.43829 18.8964 1.51874C18.8954 1.71564 18.8938 1.91254 18.8918 2.10944C18.9791 2.10796 18.9791 2.10796 19.0681 2.10646C19.2846 2.10306 19.501 2.10091 19.7175 2.09914C19.8111 2.0982 19.9047 2.09692 19.9982 2.09529C20.133 2.09301 20.2677 2.09195 20.4024 2.09113C20.4649 2.08967 20.4649 2.08967 20.5285 2.08819C20.7863 2.0881 20.9434 2.11594 21.1418 2.29694C21.3145 2.55556 21.3019 2.79809 21.2994 3.09783C21.2995 3.15032 21.2996 3.20282 21.2997 3.25691C21.3 3.43289 21.2992 3.60885 21.2984 3.78483C21.2984 3.91095 21.2984 4.03706 21.2985 4.16318C21.2986 4.43474 21.2981 4.70629 21.2973 4.97785C21.2962 5.37048 21.2958 5.7631 21.2956 6.15573C21.2953 6.79276 21.2944 7.42979 21.2931 8.06682C21.2918 8.68558 21.2908 9.30434 21.2902 9.9231C21.2901 9.96125 21.2901 9.9994 21.2901 10.0387C21.2899 10.2301 21.2897 10.4215 21.2895 10.6129C21.2881 12.2003 21.2856 13.7877 21.2825 15.3751C21.3485 15.3965 21.3485 15.3965 21.416 15.4183C22.3511 15.7378 23.0743 16.6048 23.5207 17.4528C24.0643 18.5794 24.1612 19.856 23.7485 21.0427C23.5474 21.5765 23.2637 22.0804 22.8762 22.5001C22.8348 22.5457 22.7934 22.5914 22.7508 22.6385C22.0448 23.3939 21.0175 23.9503 19.9729 24.0076C18.6976 24.0251 18.6976 24.0251 18.1887 23.8594C18.1445 23.8455 18.1445 23.8455 18.0994 23.8312C16.902 23.4457 15.9615 22.6303 15.3901 21.5173C15.1795 21.0892 15.0584 20.6766 15.0012 20.2032C14.9705 20.2033 14.9397 20.2033 14.908 20.2034C13.0867 20.2076 11.2654 20.2108 9.44406 20.2128C9.22544 20.213 9.00682 20.2132 8.7882 20.2135C8.74468 20.2135 8.70116 20.2136 8.65631 20.2136C7.9513 20.2145 7.24628 20.2159 6.54127 20.2177C5.81803 20.2194 5.09478 20.2204 4.37154 20.2208C3.92514 20.2211 3.47876 20.2219 3.03237 20.2234C2.72639 20.2244 2.42041 20.2247 2.11443 20.2245C1.93781 20.2243 1.76121 20.2245 1.58459 20.2255C1.39317 20.2266 1.20177 20.2262 1.01034 20.2257C0.954437 20.2263 0.898534 20.2268 0.840936 20.2274C0.355285 20.2239 0.355285 20.2239 0.141827 20.0157C0.0224477 19.8142 -0.0164076 19.6669 -0.0166253 19.4337C-0.017021 19.3737 -0.0174165 19.3138 -0.0178241 19.2521C-0.0175525 19.1859 -0.0172675 19.1198 -0.0169704 19.0536C-0.0171661 18.9831 -0.0174228 18.9125 -0.0177354 18.842C-0.0184136 18.6482 -0.0182137 18.4545 -0.0178681 18.2608C-0.0176466 18.0518 -0.0182326 17.8429 -0.0187128 17.6339C-0.0195193 17.2245 -0.0195577 16.8152 -0.0193122 16.4058C-0.0191228 16.0731 -0.0191902 15.7404 -0.0194409 15.4077C-0.019476 15.3603 -0.0195114 15.313 -0.0195475 15.2642C-0.0196193 15.1681 -0.0196911 15.0719 -0.0197635 14.9757C-0.0204072 14.0737 -0.020152 13.1717 -0.0196144 12.2696C-0.0191488 11.4444 -0.0197552 10.6191 -0.0208768 9.79382C-0.0220197 8.94651 -0.0224708 8.0992 -0.0221589 7.25189C-0.0219951 6.77616 -0.0221005 6.30043 -0.0229207 5.8247C-0.0236102 5.4197 -0.0236411 5.0147 -0.0228234 4.6097C-0.0224239 4.40307 -0.0223252 4.19645 -0.0230415 3.98982C-0.0236894 3.8006 -0.023469 3.6114 -0.0225616 3.42218C-0.0223849 3.35379 -0.0225235 3.28541 -0.0230122 3.21702C-0.0254785 2.84542 -0.0208746 2.56428 0.188702 2.25006C0.416649 2.07978 0.64489 2.09082 0.917828 2.0957C0.960088 2.0959 1.00235 2.0961 1.04589 2.09631C1.1801 2.09709 1.31427 2.09885 1.44847 2.10065C1.53978 2.10135 1.63108 2.102 1.72239 2.10257C1.94555 2.10412 2.16868 2.10654 2.39183 2.10944C2.39109 2.06121 2.39035 2.01298 2.3896 1.9633C2.38704 1.78351 2.38543 1.60373 2.3841 1.42394C2.3834 1.34628 2.38244 1.26863 2.38122 1.19098C2.3795 1.07904 2.37871 0.967118 2.37809 0.855164C2.37737 0.820729 2.37664 0.786294 2.37589 0.750816C2.37582 0.527284 2.41445 0.37728 2.53245 0.187562C2.76612 -0.034426 3.02198 -0.05337 3.32933 6.177e-05Z" fill="#E3E9F7"/>
<path d="M3.32812 6.17721e-05C3.52143 0.0969048 3.60658 0.228838 3.70312 0.421937C3.70312 0.978812 3.70312 1.53569 3.70312 2.10944C5.77594 2.10944 7.84875 2.10944 9.98438 2.10944C9.98438 1.56803 9.98438 1.02662 9.98438 0.468812C10.1621 0.113434 10.1621 0.113434 10.4062 6.17721e-05C10.6147 -0.0331319 10.8213 -0.0503309 11.0143 0.0463875C11.1541 0.15731 11.2167 0.261522 11.2969 0.421937C11.2969 0.978812 11.2969 1.53569 11.2969 2.10944C13.3697 2.10944 15.4425 2.10944 17.5781 2.10944C17.5781 1.56803 17.5781 1.02662 17.5781 0.468812C17.7558 0.113434 17.7558 0.113434 18 6.17721e-05C18.2085 -0.0331319 18.415 -0.0503309 18.6081 0.0463875C18.7418 0.152497 18.8324 0.263221 18.8906 0.421937C18.8985 0.552758 18.9015 0.678705 18.8998 0.809388C18.8996 0.865174 18.8996 0.865174 18.8994 0.922087C18.8989 1.04053 18.8977 1.15896 18.8965 1.27741C18.896 1.35785 18.8956 1.43829 18.8952 1.51874C18.8942 1.71564 18.8926 1.91254 18.8906 2.10944C18.9779 2.10796 18.9779 2.10796 19.0669 2.10646C19.2834 2.10306 19.4998 2.10091 19.7163 2.09914C19.8099 2.0982 19.9035 2.09692 19.997 2.09529C20.1318 2.09301 20.2665 2.09195 20.4012 2.09113C20.4637 2.08967 20.4637 2.08967 20.5273 2.08819C20.7851 2.0881 20.9422 2.11594 21.1406 2.29694C21.6791 3.37386 21.2812 4.70227 21.2812 5.90631C14.2584 5.90631 7.23563 5.90631 0 5.90631C0 2.62506 0 2.62506 0.1875 2.25006C0.415447 2.07978 0.643688 2.09082 0.916626 2.0957C0.958886 2.0959 1.00115 2.0961 1.04469 2.09631C1.17889 2.09709 1.31307 2.09885 1.44727 2.10065C1.53857 2.10135 1.62988 2.102 1.72119 2.10257C1.94435 2.10412 2.16748 2.10654 2.39062 2.10944C2.38989 2.06121 2.38915 2.01298 2.38839 1.9633C2.38584 1.78351 2.38423 1.60373 2.3829 1.42394C2.3822 1.34628 2.38124 1.26863 2.38002 1.19098C2.3783 1.07904 2.37751 0.967118 2.37689 0.855164C2.37617 0.820729 2.37544 0.786294 2.37469 0.750816C2.37462 0.527284 2.41324 0.37728 2.53125 0.187562C2.76492 -0.034426 3.02078 -0.05337 3.32812 6.17721e-05Z" fill="#FE6B6B"/>
<path d="M22.2611 15.9229C23.2474 16.7407 23.8546 17.8041 23.9838 19.0919C24.0799 20.2316 23.77 21.3685 23.0697 22.2803C23.0056 22.3547 22.9401 22.4279 22.8734 22.5001C22.8113 22.5686 22.8113 22.5686 22.748 22.6385C22.042 23.3939 21.0148 23.9503 19.9701 24.0076C18.6948 24.0251 18.6948 24.0251 18.1859 23.8594C18.1417 23.8455 18.1417 23.8455 18.0966 23.8312C16.9553 23.4637 16.0102 22.6909 15.4467 21.6329C15.2721 21.2918 15.1292 20.9536 15.0453 20.5782C15.0349 20.5326 15.0245 20.4871 15.0138 20.4401C14.7868 19.2408 15.0232 18.0574 15.6741 17.0294C16.4251 15.9436 17.4589 15.2966 18.7393 15.0184C19.9863 14.8659 21.2586 15.1506 22.2611 15.9229Z" fill="#FDCA57"/>
<path d="M0.00329452 5.90625C0.498295 5.90625 0.993295 5.90625 1.50329 5.90625C1.50336 6.08014 1.50343 6.25404 1.5035 6.4332C1.50422 8.02713 1.5061 9.62105 1.50924 11.215C1.50965 11.4238 1.51005 11.6326 1.51045 11.8414C1.51053 11.883 1.5106 11.9246 1.51069 11.9674C1.51194 12.6409 1.51236 13.3145 1.51248 13.988C1.51263 14.6789 1.51365 15.3697 1.51551 16.0606C1.51662 16.4871 1.51704 16.9135 1.51658 17.34C1.51634 17.6323 1.51694 17.9245 1.51823 18.2168C1.51895 18.3855 1.51929 18.5542 1.5186 18.723C1.51788 18.9058 1.51895 19.0886 1.52021 19.2714C1.51971 19.3249 1.5192 19.3784 1.51869 19.4335C1.51972 19.7266 1.51972 19.7266 1.66392 19.9748C1.72363 20.0182 1.72363 20.0182 1.78454 20.0625C1.83142 20.1094 1.87829 20.1562 1.92517 20.2031C1.7167 20.2078 1.50826 20.2112 1.29975 20.2134C1.22891 20.2144 1.15808 20.2156 1.08726 20.2173C0.985082 20.2196 0.882956 20.2206 0.78076 20.2214C0.719391 20.2224 0.658022 20.2234 0.594794 20.2244C0.392346 20.199 0.297619 20.1488 0.14392 20.0156C-0.0376972 19.7508 -0.0160035 19.4844 -0.0136163 19.1756C-0.0137364 19.1189 -0.0138566 19.0622 -0.0139804 19.0037C-0.0141718 18.8467 -0.0137331 18.6897 -0.0130272 18.5327C-0.0124193 18.3632 -0.0126255 18.1937 -0.0127322 18.0242C-0.0128059 17.7307 -0.0123651 17.4372 -0.0115738 17.1437C-0.0104304 16.7194 -0.0100646 16.295 -0.00988796 15.8707C-0.00958026 15.1822 -0.00864463 14.4937 -0.00731416 13.8051C-0.00602315 13.1364 -0.00502785 12.4676 -0.00443025 11.7988C-0.0043933 11.7576 -0.00435635 11.7164 -0.00431829 11.6739C-0.00413477 11.467 -0.00395706 11.2602 -0.00378224 11.0533C-0.00232467 9.33764 0.0001907 7.62195 0.00329452 5.90625Z" fill="#CCD2DB"/>
<path d="M19.4633 14.9911C19.5407 14.9903 19.5407 14.9903 19.6197 14.9894C19.6934 14.9892 19.6934 14.9892 19.7687 14.9891C19.8135 14.9889 19.8584 14.9887 19.9046 14.9885C20.0141 14.9999 20.0141 14.9999 20.1078 15.0937C20.0663 15.1028 20.0248 15.112 19.982 15.1215C18.7979 15.4074 17.7603 16.0641 17.1119 17.1155C16.8454 17.573 16.6475 18.0419 16.5453 18.5624C16.5337 18.6081 16.5337 18.6081 16.5218 18.6548C16.4527 18.9329 16.4352 19.1963 16.4369 19.4823C16.4371 19.5275 16.4374 19.5727 16.4376 19.6192C16.4553 20.7067 16.8921 21.7458 17.6234 22.5468C17.6543 22.5809 17.6852 22.6151 17.717 22.6502C18.3546 23.3212 19.2508 23.7417 20.1547 23.9062C20.1392 23.9371 20.1237 23.968 20.1078 23.9999C18.7086 24.0294 18.7086 24.0294 18.1859 23.8593C18.1417 23.8453 18.1417 23.8453 18.0966 23.8311C16.9553 23.4636 16.0102 22.6908 15.4467 21.6327C15.2721 21.2917 15.1292 20.9534 15.0453 20.578C15.0349 20.5325 15.0245 20.4869 15.0138 20.44C14.7868 19.2406 15.0232 18.0573 15.6741 17.0293C16.414 15.9596 17.4641 15.2648 18.7427 15.0211C18.9825 14.9864 19.2214 14.9913 19.4633 14.9911Z" fill="#F4B538"/>
<path d="M22.1736 17.9063C22.1409 18.2371 22.0677 18.5533 21.989 18.876C21.9766 18.9282 21.9642 18.9805 21.9514 19.0343C21.897 19.2594 21.8422 19.4738 21.7517 19.6875C21.5969 19.6703 21.5584 19.6345 21.447 19.5176C21.3466 19.3968 21.3466 19.3968 21.2458 19.4058C21.0886 19.4777 20.9851 19.5999 20.869 19.7243C20.8156 19.7797 20.7621 19.8351 20.7087 19.8905C20.625 19.9779 20.5416 20.0656 20.4587 20.1538C20.3784 20.2389 20.2971 20.323 20.2156 20.4069C20.1913 20.4334 20.1669 20.46 20.1418 20.4873C20.0159 20.6157 19.9356 20.6697 19.7574 20.7025C19.5529 20.6638 19.4812 20.5956 19.3378 20.4463C19.3154 20.4234 19.293 20.4005 19.2699 20.3769C19.1989 20.3041 19.1291 20.2302 19.0593 20.1563C19.0112 20.1065 18.963 20.0568 18.9148 20.0072C18.797 19.8859 18.6803 19.7635 18.5642 19.6406C18.3729 19.7156 18.2513 19.8534 18.1136 19.9999C18.0623 20.053 18.011 20.1061 17.9597 20.1592C17.8794 20.2427 17.7994 20.3264 17.72 20.4107C17.6429 20.4923 17.5649 20.5728 17.4866 20.6532C17.4633 20.6786 17.4399 20.7039 17.4159 20.73C17.2859 20.8618 17.2165 20.9049 17.0303 20.9267C16.8767 20.9063 16.8767 20.9063 16.7625 20.833C16.6569 20.6683 16.6605 20.5849 16.6892 20.3906C16.7909 20.2391 16.9172 20.1156 17.0468 19.9878C17.0835 19.9507 17.1202 19.9136 17.158 19.8754C17.2356 19.7973 17.3137 19.7196 17.3922 19.6423C17.5121 19.5238 17.6301 19.4035 17.748 19.2829C17.8237 19.2072 17.8996 19.1316 17.9755 19.0562C18.0107 19.02 18.046 18.9839 18.0823 18.9467C18.333 18.7036 18.333 18.7036 18.5602 18.7012C18.6959 18.747 18.7698 18.7784 18.8718 18.876C18.9176 18.9191 18.9176 18.9191 18.9643 18.9631C19.0215 19.0201 19.0215 19.0201 19.0798 19.0781C19.1065 19.1045 19.1331 19.1308 19.1606 19.1579C19.3537 19.3488 19.5453 19.5412 19.7361 19.7344C19.9725 19.6296 20.1319 19.4514 20.3132 19.2715C20.3486 19.2377 20.3839 19.2039 20.4203 19.1691C20.4534 19.1363 20.4865 19.1035 20.5207 19.0697C20.5512 19.0399 20.5816 19.01 20.613 18.9793C20.6848 18.8946 20.6848 18.8946 20.6639 18.7903C20.6071 18.6573 20.5092 18.5871 20.4008 18.4951C20.3734 18.4589 20.3734 18.4589 20.3455 18.4219C20.3654 18.3236 20.3654 18.3236 20.3923 18.2344C20.5466 18.1971 20.7009 18.1601 20.8552 18.1231C20.8983 18.1127 20.9413 18.1023 20.9856 18.0916C21.8231 17.891 21.8231 17.891 22.1736 17.9063Z" fill="#E4E9F6"/>
<path d="M0.823897 2.09566C0.856793 2.09586 0.889689 2.09606 0.923582 2.09626C1.0277 2.09704 1.13178 2.09881 1.23588 2.1006C1.30687 2.10131 1.37785 2.10195 1.44884 2.10252C1.62201 2.10407 1.79515 2.10649 1.96831 2.10939C1.93948 2.1306 1.91066 2.15181 1.88096 2.17366C1.74602 2.27653 1.623 2.37812 1.54643 2.53127C1.54075 2.63798 1.53811 2.74486 1.53681 2.85172C1.53634 2.88465 1.53588 2.91759 1.5354 2.95152C1.53392 3.06058 1.53276 3.16964 1.5316 3.2787C1.53064 3.35424 1.52965 3.42977 1.52865 3.5053C1.52606 3.70428 1.52374 3.90325 1.52148 4.10222C1.51872 4.34087 1.51561 4.57952 1.51256 4.81816C1.50797 5.18086 1.5038 5.54356 1.49956 5.90627C1.00456 5.90627 0.509556 5.90627 -0.000443873 5.90627C-0.00796428 5.10242 -0.00796428 5.10242 -0.00959915 4.75819C-0.0107174 4.52386 -0.0120364 4.28953 -0.0145888 4.05521C-0.016635 3.86616 -0.0177491 3.67712 -0.0182334 3.48807C-0.0185782 3.41615 -0.0192516 3.34424 -0.0202683 3.27234C-0.0301506 2.54402 -0.0301506 2.54402 0.187056 2.25002C0.395595 2.10114 0.571893 2.09263 0.823897 2.09566Z" fill="#EE5354"/>
<path d="M18.5131 1.51354e-05C18.6966 0.0919386 18.8148 0.231235 18.8881 0.42189C18.9006 0.567114 18.9006 0.567114 18.9017 0.739921C18.9022 0.787291 18.9022 0.787291 18.9027 0.835617C18.9036 0.939777 18.9038 1.04392 18.9039 1.14809C18.9042 1.22071 18.9045 1.29334 18.9048 1.36596C18.9054 1.51814 18.9055 1.67031 18.9055 1.82249C18.9055 2.0171 18.9068 2.21168 18.9084 2.40629C18.9094 2.55629 18.9096 2.70628 18.9095 2.85628C18.9097 2.92801 18.9101 2.99974 18.9108 3.07146C18.9117 3.17199 18.9114 3.27245 18.9109 3.37298C18.911 3.43008 18.9112 3.48718 18.9113 3.54601C18.8766 3.781 18.7561 3.92233 18.601 4.09572C18.4013 4.20857 18.2216 4.20148 17.9975 4.17189C17.8099 4.10256 17.7119 3.99288 17.6154 3.81798C17.5229 3.55096 17.55 3.25332 17.5524 2.97346C17.5523 2.90209 17.5523 2.83072 17.5521 2.75935C17.5521 2.61021 17.5527 2.46109 17.5537 2.31196C17.5551 2.12129 17.5549 1.93066 17.5543 1.73999C17.554 1.59277 17.5544 1.44555 17.555 1.29832C17.5552 1.22804 17.5552 1.15775 17.555 1.08747C17.5549 0.98909 17.5557 0.890762 17.5567 0.792393C17.5569 0.736548 17.5572 0.680704 17.5574 0.623168C17.5849 0.389511 17.6636 0.237486 17.8334 0.076187C18.063 -0.0304119 18.2641 -0.043269 18.5131 1.51354e-05Z" fill="#313F49"/>
<path d="M10.9234 -0.000106665C11.1069 0.0918168 11.2251 0.231113 11.2984 0.421768C11.3109 0.566992 11.3109 0.566992 11.312 0.7398C11.3125 0.787169 11.3125 0.787169 11.313 0.835495C11.3138 0.939655 11.314 1.0438 11.3141 1.14796C11.3144 1.22059 11.3147 1.29321 11.3151 1.36584C11.3156 1.51802 11.3158 1.67019 11.3158 1.82236C11.3157 2.01698 11.317 2.21156 11.3186 2.40617C11.3197 2.55617 11.3199 2.70616 11.3198 2.85616C11.3199 2.92789 11.3203 2.99962 11.3211 3.07134C11.322 3.17187 11.3217 3.27233 11.3212 3.37286C11.3213 3.42996 11.3214 3.48706 11.3216 3.54589C11.2868 3.78183 11.1667 3.92369 11.0083 4.0956C10.8217 4.20344 10.6653 4.20855 10.4546 4.17177C10.2429 4.06588 10.1364 3.96048 10.0328 3.74989C10.0092 3.59749 10.0092 3.59749 10.0013 3.41646C9.99897 3.36551 9.99897 3.36551 9.99663 3.31354C9.9772 2.825 9.97543 2.33577 9.97462 1.84691C9.97416 1.67712 9.9727 1.50736 9.97124 1.33757C9.97093 1.2289 9.97068 1.12022 9.9705 1.01155C9.96993 0.96116 9.96935 0.910769 9.96875 0.85885C9.96952 0.600081 9.97694 0.409084 10.1265 0.187393C10.3602 -0.0345944 10.616 -0.0535384 10.9234 -0.000106665Z" fill="#313F49"/>
<path d="M3.32963 -0.000106665C3.51312 0.0918168 3.63134 0.231113 3.70463 0.421768C3.71717 0.566992 3.71717 0.566992 3.71825 0.7398C3.71873 0.787169 3.71873 0.787169 3.71921 0.835495C3.7201 0.939655 3.72028 1.0438 3.72038 1.14796C3.72068 1.22059 3.721 1.29321 3.72133 1.36584C3.72189 1.51802 3.72206 1.67019 3.72201 1.82236C3.722 2.01698 3.72328 2.21156 3.72489 2.40617C3.72594 2.55617 3.72612 2.70616 3.72607 2.85616C3.72618 2.92789 3.7266 2.99962 3.72732 3.07134C3.72825 3.17187 3.72797 3.27233 3.72741 3.37286C3.72754 3.42996 3.72768 3.48706 3.72781 3.54589C3.69301 3.78183 3.57293 3.92369 3.4146 4.0956C3.22795 4.20344 3.07153 4.20855 2.86088 4.17177C2.64912 4.06588 2.54264 3.96048 2.43901 3.74989C2.41543 3.59749 2.41543 3.59749 2.40752 3.41646C2.40522 3.36551 2.40522 3.36551 2.40288 3.31354C2.38345 2.825 2.38168 2.33577 2.38087 1.84691C2.38041 1.67712 2.37895 1.50736 2.37749 1.33757C2.37718 1.2289 2.37693 1.12022 2.37675 1.01155C2.37618 0.96116 2.3756 0.910769 2.375 0.85885C2.37577 0.600081 2.38319 0.409084 2.53276 0.187393C2.76643 -0.0345944 3.02229 -0.0535384 3.32963 -0.000106665Z" fill="#313F49"/>
<path d="M14.1694 15.4013C14.2268 15.3998 14.2841 15.3982 14.3433 15.3967C14.8157 15.3938 14.8157 15.3938 14.9859 15.5315C15.2261 15.8131 15.2017 16.0193 15.2007 16.3769C15.2014 16.4302 15.2022 16.4835 15.2029 16.5384C15.203 16.5899 15.203 16.6414 15.203 16.6944C15.2032 16.7414 15.2033 16.7884 15.2035 16.8368C15.1753 17.0497 15.0843 17.169 14.9253 17.3086C14.6896 17.4778 14.473 17.4495 14.1899 17.4521C14.1169 17.4541 14.1169 17.4541 14.0425 17.4562C13.7601 17.4586 13.5737 17.452 13.3579 17.25C13.1223 16.9978 13.1406 16.736 13.144 16.4091C13.1429 16.3595 13.1418 16.3099 13.1406 16.2587C13.1412 15.9318 13.1812 15.7575 13.4048 15.5156C13.6362 15.3613 13.8973 15.4026 14.1694 15.4013Z" fill="#358EEF"/>
<path d="M14.1694 11.8857C14.2268 11.8842 14.2841 11.8826 14.3433 11.881C14.8157 11.8782 14.8157 11.8782 14.9859 12.0159C15.2261 12.2975 15.2017 12.5037 15.2007 12.8613C15.2014 12.9146 15.2022 12.9679 15.2029 13.0228C15.203 13.0743 15.203 13.1258 15.203 13.1788C15.2032 13.2258 15.2033 13.2727 15.2035 13.3211C15.1753 13.5341 15.0843 13.6533 14.9253 13.7929C14.6896 13.9621 14.473 13.9339 14.1899 13.9365C14.1169 13.9385 14.1169 13.9385 14.0425 13.9406C13.7601 13.9429 13.5737 13.9364 13.3579 13.7343C13.1223 13.4822 13.1406 13.2204 13.144 12.8935C13.1429 12.8439 13.1418 12.7942 13.1406 12.7431C13.1412 12.4162 13.1812 12.2419 13.4048 12C13.6362 11.8456 13.8973 11.887 14.1694 11.8857Z" fill="#358EEF"/>
<path d="M17.7136 8.32315C17.7638 8.32221 17.8141 8.32128 17.8658 8.32031C18.1501 8.32049 18.3437 8.32744 18.5603 8.53116C18.7906 8.78031 18.7761 9.02683 18.7712 9.34854C18.7719 9.39594 18.7726 9.44335 18.7734 9.49219C18.7718 9.79008 18.7437 9.98023 18.5603 10.2187C18.2956 10.4117 18.0355 10.3834 17.7194 10.3827C17.6374 10.3847 17.6374 10.3847 17.5536 10.3867C17.1052 10.3878 17.1052 10.3878 16.9341 10.2523C16.6928 9.96813 16.715 9.71871 16.7146 9.35733C16.7134 9.30464 16.7123 9.25195 16.7111 9.19766C16.71 8.90826 16.7097 8.70428 16.9196 8.48428C17.1779 8.30186 17.4072 8.32113 17.7136 8.32315Z" fill="#348DEF"/>
<path d="M14.203 8.32026C14.2781 8.31918 14.2781 8.31918 14.3546 8.31807C14.6373 8.31947 14.8309 8.32917 15.0468 8.5312C15.1671 8.70105 15.2053 8.81726 15.2061 9.02467C15.2064 9.09777 15.2064 9.09777 15.2066 9.17234C15.2061 9.22277 15.2055 9.27319 15.205 9.32515C15.2055 9.37539 15.2061 9.42563 15.2066 9.4774C15.2055 9.78829 15.1811 10.0096 14.9765 10.2568C14.7643 10.4247 14.4437 10.3718 14.1884 10.374C14.1355 10.3753 14.0826 10.3767 14.0281 10.3781C13.526 10.3819 13.526 10.3819 13.3124 10.1718C13.1295 9.92121 13.1492 9.6495 13.1513 9.35151C13.1503 9.30372 13.1494 9.25592 13.1484 9.20668C13.1486 8.92793 13.1614 8.74453 13.3593 8.5312C13.612 8.29425 13.8753 8.31551 14.203 8.32026Z" fill="#348DEF"/>
<path d="M17.7063 11.8888C17.7615 11.8876 17.8166 11.8865 17.8734 11.8853C18.3886 11.8835 18.3886 11.8835 18.6057 12.0938C18.788 12.3523 18.7689 12.5813 18.7669 12.8878C18.7683 12.9632 18.7683 12.9632 18.7697 13.04C18.7695 13.3243 18.7626 13.5179 18.5589 13.7345C18.3097 13.9648 18.0632 13.9503 17.7415 13.9454C17.6704 13.9465 17.6704 13.9465 17.5978 13.9476C17.3007 13.9461 17.1073 13.921 16.8714 13.7345C16.6761 13.4815 16.7066 13.173 16.7073 12.8673C16.706 12.815 16.7046 12.7627 16.7033 12.7089C16.7023 12.2811 16.7023 12.2811 16.8406 12.11C17.1233 11.8606 17.3429 11.8892 17.7063 11.8888Z" fill="#348DEF"/>
<path d="M7.10147 8.32315C7.14927 8.32221 7.19706 8.32128 7.24631 8.32031C7.52506 8.32049 7.70846 8.33331 7.92178 8.53116C8.15213 8.78031 8.13762 9.02683 8.13272 9.34854C8.13345 9.39594 8.13417 9.44335 8.13492 9.49219C8.13336 9.79008 8.10524 9.98023 7.92178 10.2187C7.6615 10.4077 7.41489 10.3818 7.1044 10.3798C7.05192 10.3807 6.99944 10.3817 6.94537 10.3826C6.657 10.3825 6.45356 10.3804 6.23428 10.1718C6.04738 9.9088 6.07118 9.66666 6.07315 9.3544C6.07221 9.30192 6.07128 9.24944 6.07031 9.19537C6.07061 8.69974 6.07061 8.69974 6.28116 8.48428C6.53178 8.30135 6.80349 8.32108 7.10147 8.32315Z" fill="#348DEF"/>
<path d="M3.56494 8.32026C3.63998 8.31918 3.63998 8.31918 3.71655 8.31807C3.99923 8.31947 4.19282 8.32917 4.40869 8.5312C4.59573 8.794 4.57179 9.03645 4.56982 9.34858C4.57122 9.4273 4.57122 9.4273 4.57266 9.50761C4.57249 9.79598 4.57039 9.99943 4.36181 10.2187C4.18808 10.3425 4.06881 10.3773 3.85644 10.378C3.77985 10.3783 3.77985 10.3783 3.70172 10.3786C3.64884 10.378 3.59597 10.3775 3.5415 10.3769C3.48863 10.3774 3.43575 10.378 3.38128 10.3786C3.33022 10.3784 3.27916 10.3782 3.22656 10.378C3.18018 10.3778 3.1338 10.3777 3.08602 10.3775C2.86359 10.3465 2.74925 10.2552 2.61425 10.0797C2.49317 9.84739 2.50633 9.60482 2.51025 9.34858C2.50952 9.301 2.5088 9.25341 2.50805 9.20439C2.5095 8.92683 2.52477 8.74365 2.72119 8.5312C2.97394 8.29425 3.2372 8.31551 3.56494 8.32026Z" fill="#348EEF"/>
<path d="M3.53311 11.8829C3.61885 11.8809 3.61885 11.8809 3.70633 11.8788C4.17539 11.8778 4.17539 11.8778 4.34647 12.0162C4.58662 12.2968 4.56244 12.5017 4.56143 12.8585C4.56219 12.9114 4.56294 12.9643 4.56372 13.0188C4.56402 13.5322 4.56402 13.5322 4.40616 13.7344C4.13219 13.9504 3.87931 13.952 3.53897 13.9483C3.46818 13.95 3.46818 13.95 3.39597 13.9517C3.13141 13.9512 2.94007 13.9317 2.73515 13.7555C2.49693 13.5001 2.50823 13.2238 2.51065 12.8936C2.50971 12.8484 2.50878 12.8033 2.50781 12.7567C2.50801 12.4631 2.54247 12.2844 2.71866 12.0469C2.94855 11.8302 3.23491 11.8822 3.53311 11.8829Z" fill="#358EEF"/>
<path d="M7.0694 15.4013C7.12433 15.4004 7.17925 15.3995 7.23584 15.3985C7.74777 15.3988 7.74777 15.3988 7.96589 15.6094C8.1482 15.8678 8.12904 16.0969 8.12702 16.4033C8.12842 16.4787 8.12842 16.4787 8.12986 16.5556C8.12968 16.8398 8.12273 17.0334 7.91901 17.25C7.66947 17.481 7.42106 17.4658 7.0987 17.4609C7.0509 17.4616 7.00311 17.4624 6.95386 17.4631C6.66652 17.4616 6.49788 17.4394 6.27839 17.25C6.23633 17.2137 6.23633 17.2137 6.19342 17.1767C6.0267 16.9749 6.07841 16.6611 6.07624 16.415C6.07488 16.3644 6.07352 16.3137 6.07212 16.2615C6.06982 15.9741 6.07456 15.7842 6.27839 15.5625C6.50819 15.3519 6.77362 15.3996 7.0694 15.4013Z" fill="#348DEF"/>
<path d="M3.55948 15.3985C3.61419 15.3971 3.66891 15.3958 3.72528 15.3944C4.1737 15.3934 4.1737 15.3934 4.34482 15.5318C4.58762 15.8111 4.56244 16.0171 4.56143 16.3741C4.56219 16.427 4.56294 16.4799 4.56372 16.5344C4.56402 17.0478 4.56402 17.0478 4.40616 17.25C4.13219 17.466 3.87931 17.4676 3.53897 17.4639C3.46818 17.4656 3.46818 17.4656 3.39597 17.4673C3.13141 17.4668 2.94007 17.4473 2.73515 17.2711C2.49693 17.0157 2.50823 16.7394 2.51065 16.4092C2.50971 16.364 2.50878 16.3189 2.50781 16.2723C2.50801 15.9794 2.53938 15.7976 2.71866 15.5625C2.98317 15.3693 3.24353 15.3978 3.55948 15.3985Z" fill="#358EEF"/>
<path d="M7.0694 11.8857C7.12433 11.8848 7.17925 11.8839 7.23584 11.8829C7.74777 11.8832 7.74777 11.8832 7.96589 12.0937C8.1482 12.3521 8.12904 12.5812 8.12702 12.8877C8.12842 12.963 8.12842 12.963 8.12986 13.0399C8.12968 13.3242 8.12273 13.5178 7.91901 13.7344C7.66947 13.9654 7.42106 13.9502 7.0987 13.9453C7.0509 13.946 7.00311 13.9467 6.95386 13.9475C6.66652 13.946 6.49788 13.9238 6.27839 13.7344C6.23633 13.6981 6.23633 13.6981 6.19342 13.6611C6.0267 13.4593 6.07841 13.1455 6.07624 12.8994C6.07488 12.8487 6.07352 12.7981 6.07212 12.7459C6.06982 12.4584 6.07456 12.2685 6.27839 12.0469C6.50819 11.8363 6.77362 11.8839 7.0694 11.8857Z" fill="#348DEF"/>
<path d="M10.3161 15.4031C10.3959 15.4029 10.3959 15.4029 10.4772 15.4026C10.5323 15.4031 10.5874 15.4037 10.6442 15.4042C10.6993 15.4037 10.7544 15.4031 10.8112 15.4026C10.8644 15.4028 10.9176 15.403 10.9724 15.4031C11.0207 15.4033 11.069 15.4035 11.1188 15.4036C11.275 15.4247 11.3615 15.4696 11.488 15.5624C11.6889 15.8298 11.7045 16.0516 11.6989 16.3798C11.6996 16.4221 11.7004 16.4645 11.7011 16.5081C11.6995 16.7943 11.6487 17.0105 11.488 17.2499C11.249 17.4815 10.9425 17.4489 10.6296 17.4521C10.5862 17.4534 10.5429 17.4548 10.4982 17.4562C10.208 17.4589 10.0338 17.4271 9.80048 17.2499C9.67184 17.0746 9.64188 16.9502 9.64117 16.7343C9.64099 16.6811 9.64081 16.628 9.64062 16.5732C9.64117 16.5181 9.64171 16.463 9.64227 16.4062C9.64173 16.3511 9.64119 16.296 9.64062 16.2392C9.64081 16.186 9.64099 16.1328 9.64117 16.0781C9.64133 16.0297 9.64149 15.9814 9.64165 15.9316C9.66986 15.7227 9.74275 15.6071 9.90887 15.4786C10.0543 15.413 10.157 15.4037 10.3161 15.4031Z" fill="#348DEF"/>
<path d="M10.3161 11.8875C10.3959 11.8872 10.3959 11.8872 10.4772 11.887C10.5323 11.8875 10.5874 11.8881 10.6442 11.8886C10.6993 11.8881 10.7544 11.8875 10.8112 11.887C10.8644 11.8871 10.9176 11.8873 10.9724 11.8875C11.0207 11.8877 11.069 11.8878 11.1188 11.888C11.275 11.9091 11.3615 11.954 11.488 12.0468C11.6889 12.3142 11.7045 12.536 11.6989 12.8642C11.6996 12.9065 11.7004 12.9489 11.7011 12.9925C11.6995 13.2787 11.6487 13.4949 11.488 13.7343C11.249 13.9658 10.9425 13.9332 10.6296 13.9365C10.5862 13.9378 10.5429 13.9392 10.4982 13.9406C10.208 13.9433 10.0338 13.9115 9.80048 13.7343C9.67184 13.5589 9.64188 13.4346 9.64117 13.2187C9.64099 13.1655 9.64081 13.1123 9.64062 13.0576C9.64117 13.0024 9.64171 12.9473 9.64227 12.8906C9.64173 12.8355 9.64119 12.7803 9.64062 12.7236C9.64081 12.6704 9.64099 12.6172 9.64117 12.5624C9.64133 12.5141 9.64149 12.4658 9.64165 12.416C9.66986 12.2071 9.74275 12.0914 9.90887 11.963C10.0543 11.8974 10.157 11.888 10.3161 11.8875Z" fill="#348DEF"/>
<path d="M10.6363 8.32315C10.6865 8.32221 10.7368 8.32127 10.7885 8.32031C11.0738 8.32049 11.2629 8.33015 11.483 8.53115C11.6971 8.76384 11.6495 9.04279 11.65 9.34268C11.6517 9.39945 11.6534 9.45622 11.6552 9.51471C11.6575 9.98257 11.6575 9.98257 11.4872 10.1855C11.2462 10.4201 10.9745 10.3748 10.6539 10.3798C10.5714 10.383 10.5714 10.383 10.4873 10.3863C10.0309 10.3922 10.0309 10.3922 9.82971 10.2232C9.58786 9.97589 9.64274 9.68928 9.64019 9.36026C9.63883 9.30228 9.63747 9.2443 9.63607 9.18457C9.63568 9.12864 9.63529 9.07272 9.63488 9.0151C9.6342 8.9639 9.63352 8.91271 9.63281 8.85996C9.66744 8.63788 9.77873 8.53151 9.95506 8.40059C10.1734 8.29843 10.3992 8.32158 10.6363 8.32315Z" fill="#348DEF"/>
<path d="M2.43478 2.95312C2.4366 3.03452 2.4366 3.03452 2.43845 3.11755C2.44108 3.1897 2.44377 3.26184 2.4465 3.33398C2.44717 3.36964 2.44783 3.40529 2.44852 3.44202C2.45912 3.68804 2.50359 3.83808 2.66916 4.03125C2.85583 4.15853 3.06028 4.16245 3.27853 4.125C3.4585 4.0295 3.58131 3.89315 3.65353 3.70313C3.66732 3.58085 3.67727 3.46241 3.68283 3.33984C3.68464 3.30715 3.68646 3.27446 3.68832 3.24078C3.69272 3.16054 3.69661 3.08027 3.70041 3C3.85228 3.08395 3.9627 3.15484 4.06076 3.29883C4.07931 3.32529 4.09786 3.35176 4.11697 3.37903C4.29918 3.69229 4.30931 4.01969 4.24277 4.37238C4.14949 4.66314 3.95168 4.91533 3.69437 5.07916C3.37125 5.244 3.05481 5.3195 2.69681 5.21796C2.31104 5.05849 2.04128 4.82905 1.86679 4.44598C1.77039 4.13504 1.76531 3.79348 1.90451 3.49512C2.22764 2.95312 2.22764 2.95312 2.43478 2.95312Z" fill="#D73A41"/>
<path d="M10.0285 2.95312C10.0303 3.00793 10.032 3.06274 10.0338 3.1192C10.0369 3.19177 10.04 3.26434 10.0432 3.33691C10.0442 3.37296 10.0453 3.409 10.0464 3.44614C10.0566 3.66231 10.0796 3.80735 10.216 3.98438C10.388 4.13103 10.549 4.15208 10.7683 4.14478C10.9495 4.11031 11.0286 4.02469 11.1535 3.89063C11.267 3.71978 11.2676 3.53885 11.2766 3.33984C11.2784 3.30715 11.2802 3.27446 11.2821 3.24078C11.2865 3.16054 11.2904 3.08027 11.2942 3C11.446 3.08395 11.5565 3.15484 11.6545 3.29883C11.6731 3.32529 11.6916 3.35176 11.7107 3.37903C11.8929 3.69229 11.9031 4.01969 11.8365 4.37238C11.7432 4.66314 11.5454 4.91533 11.2881 5.07916C10.965 5.244 10.6486 5.3195 10.2906 5.21796C9.90479 5.05849 9.63503 4.82905 9.46054 4.44598C9.36414 4.13504 9.35906 3.79348 9.49826 3.49512C9.82139 2.95312 9.82139 2.95312 10.0285 2.95312Z" fill="#D73A41"/>
<path d="M17.5754 3C17.5772 3.04804 17.5789 3.09608 17.5807 3.14557C17.5838 3.20935 17.5869 3.27313 17.5901 3.33691C17.5911 3.36849 17.5922 3.40006 17.5933 3.43259C17.6044 3.63994 17.6467 3.76703 17.7629 3.9375C17.7629 3.96844 17.7629 3.99938 17.7629 4.03125C17.9857 4.15007 18.2199 4.16398 18.466 4.125C18.6479 4.03166 18.7684 3.89331 18.841 3.70313C18.8548 3.58085 18.8648 3.46241 18.8703 3.33984C18.8721 3.30715 18.874 3.27446 18.8758 3.24078C18.8802 3.16054 18.8841 3.08027 18.8879 3C19.0398 3.08395 19.1502 3.15484 19.2483 3.29883C19.2668 3.32529 19.2854 3.35176 19.3045 3.37903C19.4867 3.69229 19.4968 4.01969 19.4303 4.37238C19.337 4.66314 19.1392 4.91533 18.8819 5.07916C18.5587 5.244 18.2423 5.3195 17.8843 5.21796C17.4985 5.05849 17.2288 4.82905 17.0543 4.44598C16.9579 4.13504 16.9528 3.79348 17.092 3.49512C17.3868 3 17.3868 3 17.5754 3Z" fill="#D83941"/>
<path d="M18.6538 0.140625C18.8852 0.364584 18.8852 0.364584 18.8951 0.555825C18.8955 0.61306 18.896 0.670294 18.8964 0.729263C18.8968 0.760829 18.8971 0.792395 18.8974 0.824917C18.8983 0.929584 18.8989 1.03425 18.8993 1.13892C18.8995 1.17468 18.8997 1.21044 18.8999 1.24729C18.9009 1.43666 18.9015 1.62603 18.902 1.8154C18.9025 2.01075 18.9041 2.20608 18.906 2.40142C18.9072 2.55182 18.9076 2.70221 18.9078 2.85262C18.908 2.92461 18.9085 2.9966 18.9094 3.06858C18.9106 3.16956 18.9105 3.27049 18.9102 3.37148C18.9105 3.42886 18.9107 3.48624 18.911 3.54537C18.8839 3.73266 18.8151 3.83588 18.7007 3.98438C18.6128 3.95508 18.6128 3.95508 18.5132 3.89062C18.4304 3.69176 18.4076 3.52149 18.4073 3.30726C18.407 3.24828 18.4067 3.1893 18.4064 3.12853C18.4065 3.06475 18.4067 3.00097 18.407 2.93719C18.4069 2.87112 18.4068 2.80505 18.4067 2.73898C18.4065 2.6008 18.4067 2.46262 18.4072 2.32444C18.4077 2.14803 18.4074 1.97162 18.4068 1.79521C18.4065 1.65884 18.4066 1.52247 18.4069 1.3861C18.4069 1.32109 18.4068 1.25607 18.4066 1.19106C18.4046 0.410715 18.4046 0.410715 18.5893 0.19043C18.6212 0.165776 18.6212 0.165776 18.6538 0.140625Z" fill="#404B59"/>
<path d="M11.06 0.140625C11.2915 0.364584 11.2915 0.364584 11.3013 0.555825C11.3018 0.61306 11.3022 0.670294 11.3027 0.729263C11.303 0.760829 11.3033 0.792395 11.3036 0.824917C11.3046 0.929584 11.3051 1.03425 11.3056 1.13892C11.3058 1.17468 11.306 1.21044 11.3061 1.24729C11.3071 1.43666 11.3078 1.62603 11.3082 1.8154C11.3088 2.01075 11.3104 2.20608 11.3122 2.40142C11.3135 2.55182 11.3138 2.70221 11.314 2.85262C11.3142 2.92461 11.3148 2.9966 11.3157 3.06858C11.3168 3.16956 11.3168 3.27049 11.3164 3.37148C11.3167 3.42886 11.317 3.48624 11.3173 3.54537C11.2901 3.73266 11.2213 3.83588 11.1069 3.98438C11.019 3.95508 11.019 3.95508 10.9194 3.89062C10.8366 3.69176 10.8138 3.52149 10.8135 3.30726C10.8132 3.24828 10.8129 3.1893 10.8126 3.12853C10.8128 3.06475 10.813 3.00097 10.8132 2.93719C10.8131 2.87112 10.813 2.80505 10.8129 2.73898C10.8128 2.6008 10.813 2.46262 10.8134 2.32444C10.814 2.14803 10.8137 1.97162 10.8131 1.79521C10.8128 1.65884 10.8129 1.52247 10.8131 1.3861C10.8132 1.32109 10.8131 1.25607 10.8129 1.19106C10.8108 0.410715 10.8108 0.410715 10.9956 0.19043C11.0275 0.165776 11.0275 0.165776 11.06 0.140625Z" fill="#404B59"/>
<path d="M3.46628 0.140625C3.6977 0.364584 3.6977 0.364584 3.70755 0.555825C3.70801 0.61306 3.70847 0.670294 3.70895 0.729263C3.70926 0.760829 3.70956 0.792395 3.70988 0.824917C3.71081 0.929584 3.71135 1.03425 3.71182 1.13892C3.71201 1.17468 3.7122 1.21044 3.7124 1.24729C3.71338 1.43666 3.71405 1.62603 3.71449 1.8154C3.71501 2.01075 3.71662 2.20608 3.71848 2.40142C3.71971 2.55182 3.7201 2.70221 3.72027 2.85262C3.72049 2.92461 3.72104 2.9966 3.72191 3.06858C3.72305 3.16956 3.72301 3.27049 3.72268 3.37148C3.72296 3.42886 3.72323 3.48624 3.72351 3.54537C3.69637 3.73266 3.62755 3.83588 3.51315 3.98438C3.42526 3.95508 3.42526 3.95508 3.32565 3.89062C3.24289 3.69176 3.22008 3.52149 3.21977 3.30726C3.21948 3.24828 3.21918 3.1893 3.21888 3.12853C3.21904 3.06475 3.21924 3.00097 3.21945 2.93719C3.21939 2.87112 3.2193 2.80505 3.21918 2.73898C3.21904 2.6008 3.21924 2.46262 3.21968 2.32444C3.22021 2.14803 3.21991 1.97162 3.21934 1.79521C3.219 1.65884 3.21911 1.52247 3.21936 1.3861C3.21942 1.32109 3.21934 1.25607 3.21912 1.19106C3.21707 0.410715 3.21707 0.410715 3.40182 0.19043C3.43373 0.165776 3.43373 0.165776 3.46628 0.140625Z" fill="#404B59"/>
<path d="M18.8887 3C19.0405 3.08395 19.151 3.15484 19.249 3.29883C19.2676 3.32529 19.2861 3.35176 19.3052 3.37903C19.4874 3.69229 19.4976 4.01969 19.431 4.37238C19.3468 4.63487 19.1717 4.82065 18.9824 5.01562C18.7042 4.80695 18.5661 4.62202 18.4609 4.2832C18.4668 4.125 18.4668 4.125 18.5986 3.99902C18.6479 3.96325 18.6972 3.92748 18.748 3.89062C18.865 3.72323 18.8621 3.53735 18.8711 3.33984C18.8738 3.29081 18.8738 3.29081 18.8766 3.24078C18.881 3.16054 18.8849 3.08027 18.8887 3Z" fill="#ED5253"/>
<path d="M11.2949 3C11.4468 3.08395 11.5572 3.15484 11.6553 3.29883C11.6738 3.32529 11.6924 3.35176 11.7115 3.37903C11.8937 3.69229 11.9038 4.01969 11.8373 4.37238C11.7531 4.63487 11.5779 4.82065 11.3887 5.01562C11.1104 4.80695 10.9723 4.62202 10.8672 4.2832C10.873 4.125 10.873 4.125 11.0049 3.99902C11.0542 3.96325 11.1035 3.92748 11.1543 3.89062C11.2713 3.72323 11.2684 3.53735 11.2773 3.33984C11.2801 3.29081 11.2801 3.29081 11.2828 3.24078C11.2872 3.16054 11.2911 3.08027 11.2949 3Z" fill="#ED5253"/>
<path d="M3.70117 3C3.85305 3.08395 3.96347 3.15484 4.06152 3.29883C4.08007 3.32529 4.09862 3.35176 4.11774 3.37903C4.29994 3.69229 4.31007 4.01969 4.24353 4.37238C4.15932 4.63487 3.98419 4.82065 3.79492 5.01562C3.51668 4.80695 3.37859 4.62202 3.27344 4.2832C3.2793 4.125 3.2793 4.125 3.41113 3.99902C3.46044 3.96325 3.50975 3.92748 3.56055 3.89062C3.67753 3.72323 3.67463 3.53735 3.68359 3.33984C3.68631 3.29081 3.68631 3.29081 3.68909 3.24078C3.69348 3.16054 3.69738 3.08027 3.70117 3Z" fill="#ED5253"/>
<path d="M14.8602 8.48438C14.9451 8.49316 14.9451 8.49316 15.0477 8.53125C15.1701 8.6988 15.2062 8.81867 15.207 9.02472C15.2072 9.07345 15.2073 9.12218 15.2075 9.17239C15.207 9.22282 15.2064 9.27324 15.2059 9.3252C15.2064 9.37544 15.207 9.42568 15.2075 9.47745C15.2065 9.74211 15.2019 9.94596 15.0477 10.1719C14.9451 10.2598 14.9451 10.2598 14.8602 10.3125C14.6082 10.0055 14.5897 9.73339 14.5965 9.3457C14.5956 9.29386 14.5947 9.24201 14.5938 9.1886C14.5963 8.76772 14.5963 8.76772 14.7448 8.58875C14.7829 8.5543 14.8209 8.51986 14.8602 8.48438Z" fill="#54A0FE"/>
<path d="M14.8602 15.4688C14.9965 15.5728 15.0923 15.653 15.1883 15.7969C15.209 15.9896 15.2035 16.1833 15.2029 16.377C15.2037 16.4302 15.2045 16.4835 15.2052 16.5385C15.2053 16.5899 15.2053 16.6414 15.2053 16.6945C15.2055 16.7649 15.2055 16.7649 15.2057 16.8368C15.1793 17.0368 15.0991 17.1605 14.9451 17.2881C14.9031 17.3156 14.9031 17.3156 14.8602 17.3438C14.617 17.0425 14.5895 16.7857 14.5965 16.4062C14.5956 16.3574 14.5947 16.3086 14.5938 16.2583C14.5958 15.9327 14.6547 15.7234 14.8602 15.4688Z" fill="#54A0FE"/>
<path d="M4.21839 15.4688C4.35471 15.5728 4.45057 15.653 4.54652 15.7969C4.56725 15.9886 4.56171 16.1813 4.56117 16.374C4.56192 16.4269 4.56268 16.4798 4.56346 16.5343C4.56375 17.0292 4.56375 17.0292 4.40589 17.25C4.30336 17.291 4.30336 17.291 4.21839 17.2969C3.96987 16.9922 3.97146 16.8106 3.96644 16.4238C3.96469 16.3737 3.96294 16.3236 3.96113 16.272C3.95744 15.939 4.00506 15.7284 4.21839 15.4688Z" fill="#54A0FE"/>
<path d="M18.4182 12C18.5997 12.0688 18.6602 12.1568 18.7464 12.3281C18.7744 12.5139 18.7681 12.7 18.7669 12.8877C18.7678 12.9379 18.7687 12.9882 18.7697 13.0399C18.7695 13.332 18.7588 13.5149 18.5589 13.7344C18.5125 13.7653 18.4661 13.7962 18.4182 13.8281C18.4182 13.7972 18.4182 13.7663 18.4182 13.7344C18.3873 13.7344 18.3564 13.7344 18.3245 13.7344C18.1287 13.4734 18.1597 13.2068 18.1604 12.8936C18.1591 12.8388 18.1578 12.7841 18.1564 12.7278C18.1554 12.2794 18.1554 12.2794 18.3025 12.1024C18.3407 12.0686 18.3789 12.0348 18.4182 12Z" fill="#56A1FE"/>
<path d="M14.8602 11.9531C14.9965 12.0572 15.0923 12.1373 15.1883 12.2812C15.209 12.4739 15.2035 12.6677 15.2029 12.8613C15.2037 12.9146 15.2045 12.9679 15.2052 13.0228C15.2053 13.0743 15.2053 13.1258 15.2053 13.1788C15.2055 13.2493 15.2055 13.2493 15.2057 13.3212C15.1793 13.5212 15.0991 13.6448 14.9451 13.7725C14.9031 13.8 14.9031 13.8 14.8602 13.8281C14.617 13.5268 14.5895 13.27 14.5965 12.8906C14.5956 12.8418 14.5947 12.793 14.5938 12.7427C14.5958 12.4171 14.6547 12.2078 14.8602 11.9531Z" fill="#54A0FE"/>
<path d="M7.78485 15.5156C7.96632 15.5845 8.02678 15.6724 8.11298 15.8438C8.14103 16.0295 8.13472 16.2156 8.13348 16.4033C8.13442 16.4536 8.13536 16.5038 8.13632 16.5556C8.13614 16.8476 8.12538 17.0306 7.92548 17.25C7.87907 17.2809 7.83266 17.3119 7.78485 17.3438C7.78485 17.3128 7.78485 17.2819 7.78485 17.25C7.75391 17.25 7.72298 17.25 7.6911 17.25C7.56393 17.08 7.53252 16.9547 7.5318 16.7446C7.53162 16.6936 7.53144 16.6425 7.53125 16.5899C7.53179 16.537 7.53234 16.4842 7.5329 16.4297C7.53235 16.3768 7.53181 16.3239 7.53125 16.2695C7.53143 16.2184 7.53161 16.1674 7.5318 16.1147C7.53196 16.0684 7.53212 16.022 7.53228 15.9742C7.55972 15.7775 7.64628 15.6542 7.78485 15.5156Z" fill="#56A1FE"/>
<path d="M4.21839 11.9531C4.35471 12.0572 4.45057 12.1373 4.54652 12.2812C4.56725 12.4729 4.56171 12.6657 4.56117 12.8584C4.56192 12.9113 4.56268 12.9642 4.56346 13.0187C4.56375 13.5136 4.56375 13.5136 4.40589 13.7344C4.30336 13.7754 4.30336 13.7754 4.21839 13.7812C3.96987 13.4766 3.97146 13.295 3.96644 12.9082C3.96469 12.8581 3.96294 12.808 3.96113 12.7564C3.95744 12.4234 4.00506 12.2127 4.21839 11.9531Z" fill="#54A0FE"/>
<path d="M18.4216 8.4375C18.5755 8.55094 18.6795 8.63362 18.7497 8.8125C18.7706 8.98872 18.7671 9.16544 18.7673 9.34277C18.7684 9.3906 18.7696 9.43843 18.7708 9.4877C18.7719 9.78745 18.7463 9.97786 18.5622 10.2188C18.4926 10.242 18.4926 10.242 18.4216 10.2656C18.1677 9.95447 18.1745 9.76174 18.1696 9.36621C18.1679 9.31349 18.1661 9.26077 18.1643 9.20645C18.1608 8.86898 18.1911 8.68872 18.4216 8.4375Z" fill="#56A1FE"/>
<path d="M7.78096 8.4375C7.93491 8.55094 8.03886 8.63362 8.10909 8.8125C8.12995 8.98872 8.12644 9.16544 8.12667 9.34277C8.12781 9.3906 8.12896 9.43843 8.13014 9.4877C8.13131 9.78745 8.10566 9.97786 7.92159 10.2188C7.85198 10.242 7.85198 10.242 7.78096 10.2656C7.52712 9.95447 7.53391 9.76174 7.52901 9.36621C7.52726 9.31349 7.5255 9.26077 7.5237 9.20645C7.52013 8.86898 7.55047 8.68872 7.78096 8.4375Z" fill="#55A0FE"/>
<path d="M11.2998 15.4688C11.4752 15.5251 11.5484 15.6313 11.6351 15.7894C11.7105 15.9816 11.7017 16.176 11.6982 16.3799C11.699 16.4222 11.6997 16.4645 11.7004 16.5081C11.6989 16.7788 11.6681 17.0361 11.4873 17.25C11.3871 17.2834 11.3871 17.2834 11.2998 17.2969C11.0596 17.0295 11.0842 16.7553 11.0889 16.4092C11.0881 16.3551 11.0874 16.301 11.0867 16.2452C11.0881 15.9298 11.1116 15.7253 11.2998 15.4688Z" fill="#58A2FE"/>
<path d="M11.2998 11.9531C11.4752 12.0095 11.5484 12.1157 11.6351 12.2738C11.7105 12.466 11.7017 12.6604 11.6982 12.8643C11.699 12.9066 11.6997 12.9489 11.7004 12.9925C11.6989 13.2632 11.6681 13.5205 11.4873 13.7344C11.3871 13.7678 11.3871 13.7678 11.2998 13.7812C11.0596 13.5138 11.0842 13.2397 11.0889 12.8936C11.0881 12.8394 11.0874 12.7853 11.0867 12.7296C11.0881 12.4142 11.1116 12.2096 11.2998 11.9531Z" fill="#58A2FE"/>
<path d="M7.78116 12C7.96262 12.0688 8.02309 12.1568 8.10928 12.3281C8.13734 12.5139 8.13103 12.7 8.12979 12.8877C8.13073 12.9379 8.13166 12.9882 8.13263 13.0399C8.13245 13.332 8.12169 13.5149 7.92178 13.7344C7.87538 13.7653 7.82897 13.7962 7.78116 13.8281C7.78116 13.7972 7.78116 13.7663 7.78116 13.7344C7.75022 13.7344 7.71928 13.7344 7.68741 13.7344C7.51156 13.4657 7.52419 13.2045 7.52628 12.8906C7.52534 12.8406 7.5244 12.7906 7.52344 12.739C7.52364 12.4181 7.54959 12.2316 7.78116 12Z" fill="#56A1FE"/>
<path d="M4.21641 8.48438C4.3043 8.49023 4.3043 8.49023 4.40391 8.53125C4.59363 8.79067 4.567 9.03894 4.56504 9.34863C4.56598 9.40111 4.56691 9.45359 4.56788 9.50766C4.5677 9.80359 4.56155 9.99672 4.35703 10.2188C4.31063 10.242 4.31063 10.242 4.26328 10.2656C4.08606 10.1061 3.99634 9.96648 3.96842 9.72694C3.96611 9.59496 3.96463 9.46306 3.96446 9.33105C3.96331 9.28528 3.96216 9.23951 3.96098 9.19235C3.95982 8.90913 3.98312 8.74802 4.16953 8.53125C4.185 8.51578 4.20047 8.50031 4.21641 8.48438Z" fill="#54A0FE"/>
<path d="M11.3448 8.4375C11.6603 8.75301 11.6386 8.88852 11.6437 9.33691C11.6454 9.39471 11.6472 9.45251 11.649 9.51205C11.6536 9.99037 11.6536 9.99037 11.5078 10.1655C11.4695 10.1985 11.4312 10.2316 11.3917 10.2656C11.1632 10.0898 11.1632 10.0898 11.1105 9.98438C11.0977 9.78444 11.0996 9.58409 11.0987 9.38379C11.0978 9.32805 11.0968 9.27231 11.0958 9.21487C11.0954 9.13416 11.0954 9.13416 11.0951 9.05182C11.0946 9.00258 11.0942 8.95335 11.0938 8.90262C11.1184 8.70085 11.2031 8.5792 11.3448 8.4375Z" fill="#54A0FE"/>
</g>
<defs>
<clipPath id="clip0_2658_18464">
<rect width="24" height="24" fill="white"/>
</clipPath>
</defs>
</svg>
