<svg width="24" height="24" viewBox="0 0 24 24" fill="none" xmlns="http://www.w3.org/2000/svg">
<g clip-path="url(#clip0_2658_18535)">
<path d="M1.67597 3.35117C1.74529 3.35095 1.81462 3.35065 1.88394 3.35028C2.07341 3.3495 2.26285 3.34988 2.45232 3.35047C2.65704 3.35089 2.86177 3.35023 3.06649 3.34972C3.46713 3.34889 3.86776 3.34906 4.26839 3.34961C4.59404 3.35003 4.91969 3.35009 5.24533 3.34989C5.31492 3.34984 5.31492 3.34984 5.38591 3.3498C5.48015 3.34974 5.57439 3.34968 5.66864 3.34962C6.55183 3.34908 7.43502 3.3497 8.31821 3.3507C9.07575 3.35154 9.83327 3.3514 10.5908 3.35053C11.471 3.34953 12.3511 3.34913 13.2313 3.34971C13.3251 3.34977 13.419 3.34983 13.5129 3.34989C13.5591 3.34991 13.6053 3.34994 13.6529 3.34997C13.9781 3.35014 14.3033 3.34986 14.6285 3.34942C15.0249 3.34889 15.4213 3.34904 15.8177 3.35004C16.0198 3.35053 16.222 3.35072 16.4242 3.3501C16.6094 3.34954 16.7945 3.34985 16.9797 3.35085C17.0466 3.35106 17.1135 3.35095 17.1803 3.3505C17.6442 3.34758 17.9539 3.40908 18.3408 3.66209C18.6627 3.99857 18.7571 4.37766 18.7563 4.8321C18.7563 4.86459 18.7563 4.89709 18.7563 4.93057C18.7563 5.03734 18.7559 5.14412 18.7556 5.25089C18.7555 5.32517 18.7554 5.39946 18.7554 5.47374C18.7552 5.66878 18.7547 5.86382 18.7542 6.05886C18.7537 6.25807 18.7535 6.45729 18.7533 6.6565C18.7528 7.04704 18.752 7.43757 18.751 7.8281C18.8041 7.80847 18.8041 7.80847 18.8582 7.78845C18.9046 7.7714 18.9511 7.75435 18.9989 7.73678C19.0449 7.71983 19.0909 7.70287 19.1383 7.68541C19.8341 7.44239 20.6324 7.50411 21.2973 7.81241C22.0885 8.20631 22.683 8.80367 22.9695 9.65421C23.0698 10.0047 23.1163 10.3441 23.1155 10.7091C23.1155 10.778 23.1156 10.8469 23.1156 10.9158C23.1155 10.9518 23.1155 10.9879 23.1154 11.025C23.1152 11.2176 23.1164 11.4103 23.1174 11.6029C23.1185 11.8472 23.1193 12.0915 23.1186 12.3358C23.118 12.5341 23.1188 12.7323 23.1206 12.9305C23.121 13.0057 23.1209 13.0809 23.1202 13.1561C23.1077 13.6871 23.1077 13.6871 23.3692 14.1333C23.3921 14.1563 23.4149 14.1794 23.4385 14.2031C23.9866 15.1326 24.1523 16.2157 23.9089 17.2677C23.6106 18.3112 22.9634 19.2044 22.0107 19.747C21.0586 20.2648 19.9846 20.3856 18.9385 20.1094C17.887 19.7799 17.0654 19.1215 16.5334 18.1574C16.4535 17.9987 16.3835 17.8352 16.3135 17.6719C14.5655 17.6564 12.8175 17.6409 11.0166 17.625C11.2641 18.3211 11.5116 19.0172 11.7666 19.7344C11.7666 19.7653 11.7666 19.7962 11.7666 19.8281C11.8224 19.8274 11.8782 19.8266 11.9358 19.8259C12.143 19.8233 12.3502 19.8217 12.5574 19.8204C12.6471 19.8197 12.7367 19.8187 12.8264 19.8175C12.9553 19.8158 13.0842 19.815 13.2131 19.8144C13.2532 19.8136 13.2932 19.8129 13.3345 19.8122C13.6128 19.8121 13.6128 19.8121 13.7599 19.8938C13.8646 20.0072 13.8718 20.1001 13.8842 20.2498C13.8709 20.4012 13.7959 20.4768 13.6885 20.5781C13.5513 20.6467 13.4133 20.6321 13.2629 20.6322C13.2284 20.6324 13.1938 20.6326 13.1582 20.6328C13.0418 20.6334 12.9254 20.6337 12.809 20.634C12.7257 20.6344 12.6425 20.6348 12.5593 20.6352C12.2855 20.6364 12.0117 20.6371 11.7379 20.6378C11.6437 20.638 11.5495 20.6383 11.4554 20.6386C11.0637 20.6396 10.6721 20.6404 10.2805 20.641C9.71876 20.6417 9.15703 20.6433 8.5953 20.646C8.20059 20.6478 7.80589 20.6487 7.41117 20.6489C7.17529 20.6491 6.93942 20.6497 6.70355 20.6512C6.48166 20.6526 6.25979 20.6529 6.0379 20.6523C5.95644 20.6523 5.87498 20.6527 5.79352 20.6535C5.68232 20.6546 5.57121 20.6542 5.46001 20.6535C5.42775 20.6541 5.39548 20.6548 5.36224 20.6554C5.18582 20.6525 5.11308 20.6271 4.97297 20.5163C4.87598 20.3906 4.87598 20.3906 4.84962 20.2265C4.88132 20.0293 4.9156 19.9622 5.06348 19.8281C5.20994 19.7955 5.35281 19.8008 5.5022 19.8052C5.5446 19.8055 5.58699 19.8059 5.63067 19.8062C5.76586 19.8075 5.90097 19.8105 6.03614 19.8135C6.12787 19.8146 6.21961 19.8157 6.31135 19.8167C6.53605 19.8192 6.76069 19.8233 6.98536 19.8281C6.99306 19.7895 6.99306 19.7895 7.00092 19.7501C7.05514 19.4912 7.12848 19.2472 7.21992 18.9992C7.2332 18.9625 7.24648 18.9259 7.26016 18.8882C7.30211 18.7727 7.34442 18.6573 7.38673 18.542C7.41528 18.4634 7.44382 18.3848 7.47233 18.3062C7.67962 17.7365 7.67962 17.7365 7.73536 17.625C7.70125 17.6251 7.66713 17.6253 7.63198 17.6255C6.80056 17.6296 5.96914 17.6327 5.13771 17.6347C4.73563 17.6357 4.33356 17.637 3.93148 17.6391C3.58089 17.641 3.2303 17.6422 2.8797 17.6426C2.69419 17.6429 2.50869 17.6434 2.32319 17.6448C2.14828 17.6461 1.97339 17.6465 1.79848 17.6462C1.7043 17.6463 1.61012 17.6473 1.51594 17.6483C1.0484 17.6462 0.655051 17.5618 0.304206 17.2366C0.110962 17.011 -0.00463692 16.7289 -0.00530773 16.4327C-0.0055167 16.3899 -0.00572562 16.3471 -0.00594091 16.303C-0.00593227 16.2559 -0.00592371 16.2088 -0.00591481 16.1603C-0.00608715 16.1103 -0.00625956 16.0603 -0.00643712 16.0089C-0.00695544 15.8406 -0.00713476 15.6723 -0.00731313 15.504C-0.00760672 15.3836 -0.00791828 15.2633 -0.00824654 15.143C-0.00917291 14.7812 -0.00964482 14.4195 -0.0100619 14.0577C-0.0102673 13.8874 -0.010519 13.717 -0.0107646 13.5466C-0.0115621 12.9801 -0.0122413 12.4136 -0.0125808 11.8471C-0.0126703 11.7001 -0.0127604 11.5531 -0.0128521 11.4061C-0.0128747 11.3695 -0.0128974 11.333 -0.0129207 11.2953C-0.0133097 10.7036 -0.0144972 10.1119 -0.0160199 9.52024C-0.0175709 8.91262 -0.0184144 8.30501 -0.0185641 7.69739C-0.0186655 7.35629 -0.0190747 7.01519 -0.0202732 6.6741C-0.0213984 6.35314 -0.0215633 6.0322 -0.0210813 5.71124C-0.021058 5.5935 -0.0213553 5.47575 -0.021998 5.35802C-0.0228272 5.19712 -0.0224962 5.03627 -0.0218793 4.87538C-0.0223935 4.82892 -0.0229077 4.78246 -0.0234375 4.73459C-0.0194951 4.3079 0.118746 3.95838 0.417683 3.65C0.773723 3.335 1.22612 3.34809 1.67597 3.35117ZM19.0322 9.79685C18.7774 10.1714 18.744 10.4836 18.7464 10.9272C18.7465 10.9726 18.7465 11.0181 18.7466 11.0649C18.7469 11.2096 18.7475 11.3543 18.7481 11.499C18.7483 11.5973 18.7485 11.6956 18.7487 11.7939C18.7492 12.0345 18.75 12.275 18.751 12.5156C18.7883 12.5094 18.8257 12.5032 18.8641 12.4967C18.9386 12.4843 18.9386 12.4843 19.0147 12.4717C19.0881 12.4594 19.0881 12.4594 19.163 12.4469C19.2375 12.4345 19.2375 12.4345 19.3135 12.4219C19.362 12.4133 19.4105 12.4047 19.4604 12.3959C19.9911 12.3132 20.5328 12.3629 21.0523 12.4848C21.1881 12.5208 21.1881 12.5208 21.3291 12.5156C21.3326 12.2229 21.3351 11.9303 21.3368 11.6376C21.3375 11.5381 21.3385 11.4387 21.3397 11.3393C21.3414 11.1958 21.3422 11.0523 21.3428 10.9089C21.3436 10.8649 21.3443 10.8209 21.345 10.7756C21.3452 10.3153 21.2342 9.9894 20.9162 9.65385C20.6367 9.40522 20.3156 9.30963 19.9463 9.3151C19.5914 9.35448 19.2654 9.52753 19.0322 9.79685Z" fill="#D9E9F9"/>
<path d="M1.67597 3.35117C1.74529 3.35095 1.81462 3.35065 1.88394 3.35028C2.07341 3.3495 2.26285 3.34988 2.45232 3.35047C2.65704 3.35089 2.86177 3.35023 3.06649 3.34972C3.46713 3.34889 3.86776 3.34906 4.26839 3.34961C4.59404 3.35003 4.91969 3.35009 5.24533 3.34989C5.31492 3.34984 5.31492 3.34984 5.38591 3.3498C5.48015 3.34974 5.57439 3.34968 5.66864 3.34962C6.55183 3.34908 7.43502 3.3497 8.31821 3.3507C9.07575 3.35154 9.83327 3.3514 10.5908 3.35053C11.471 3.34953 12.3511 3.34913 13.2313 3.34971C13.3251 3.34977 13.419 3.34983 13.5129 3.34989C13.5591 3.34991 13.6053 3.34994 13.6529 3.34997C13.9781 3.35014 14.3033 3.34986 14.6285 3.34942C15.0249 3.34889 15.4213 3.34904 15.8177 3.35004C16.0198 3.35053 16.222 3.35072 16.4242 3.3501C16.6094 3.34954 16.7945 3.34985 16.9797 3.35085C17.0466 3.35106 17.1135 3.35095 17.1803 3.3505C17.6442 3.34758 17.9539 3.40908 18.3408 3.66209C18.6622 3.99809 18.7532 4.3783 18.7645 4.83119C18.7657 4.87983 18.7657 4.87983 18.767 4.92945C18.7742 5.22704 18.7784 5.5247 18.7815 5.82236C18.7837 6.02202 18.7869 6.22155 18.7925 6.42114C18.7978 6.61473 18.8007 6.8082 18.8017 7.00186C18.8026 7.07539 18.8043 7.14892 18.8069 7.22241C18.8147 7.44746 18.8142 7.65658 18.751 7.87498C18.5975 8.03239 18.4344 8.11455 18.2354 8.2031C17.6658 8.63763 17.3135 9.20719 17.1104 9.8906C17.0949 9.8906 17.0794 9.8906 17.0635 9.8906C17.0635 8.25091 17.0635 6.61123 17.0635 4.92185C11.9743 4.92185 6.88505 4.92185 1.64161 4.92185C1.64161 8.60341 1.64161 12.285 1.64161 16.0781C6.42145 16.0781 11.2013 16.0781 16.126 16.0781C16.1415 16.3565 16.1569 16.635 16.1729 16.9219C16.2237 17.1508 16.2237 17.1508 16.2844 17.3772C16.3135 17.4844 16.3135 17.4844 16.3135 17.625C14.5655 17.625 12.8175 17.625 11.0166 17.625C11.2641 18.3211 11.5116 19.0172 11.7666 19.7344C11.7666 19.7653 11.7666 19.7962 11.7666 19.8281C11.8224 19.8274 11.8782 19.8266 11.9358 19.8259C12.143 19.8233 12.3502 19.8217 12.5574 19.8204C12.6471 19.8197 12.7367 19.8187 12.8264 19.8175C12.9553 19.8158 13.0842 19.815 13.2131 19.8144C13.2532 19.8136 13.2932 19.8129 13.3345 19.8122C13.6128 19.8121 13.6128 19.8121 13.7599 19.8938C13.8646 20.0072 13.8718 20.1001 13.8842 20.2498C13.8709 20.4012 13.7959 20.4768 13.6885 20.5781C13.5513 20.6467 13.4133 20.6321 13.2629 20.6322C13.2284 20.6324 13.1938 20.6326 13.1582 20.6328C13.0418 20.6334 12.9254 20.6337 12.809 20.634C12.7257 20.6344 12.6425 20.6348 12.5593 20.6352C12.2855 20.6364 12.0117 20.6371 11.7379 20.6378C11.6437 20.638 11.5495 20.6383 11.4554 20.6386C11.0637 20.6396 10.6721 20.6404 10.2805 20.641C9.71876 20.6417 9.15703 20.6433 8.5953 20.646C8.20059 20.6478 7.80589 20.6487 7.41117 20.6489C7.17529 20.6491 6.93942 20.6497 6.70355 20.6512C6.48166 20.6526 6.25979 20.6529 6.0379 20.6523C5.95644 20.6523 5.87498 20.6527 5.79352 20.6535C5.68232 20.6546 5.57121 20.6542 5.46001 20.6535C5.42775 20.6541 5.39548 20.6548 5.36224 20.6554C5.18582 20.6525 5.11308 20.6271 4.97297 20.5163C4.87598 20.3906 4.87598 20.3906 4.84962 20.2265C4.88132 20.0293 4.9156 19.9622 5.06348 19.8281C5.20994 19.7955 5.35281 19.8008 5.5022 19.8052C5.5446 19.8055 5.58699 19.8059 5.63067 19.8062C5.76586 19.8075 5.90097 19.8105 6.03614 19.8135C6.12787 19.8146 6.21961 19.8157 6.31135 19.8167C6.53605 19.8192 6.76069 19.8233 6.98536 19.8281C6.99306 19.7895 6.99306 19.7895 7.00092 19.7501C7.05514 19.4912 7.12848 19.2472 7.21992 18.9992C7.2332 18.9625 7.24648 18.9259 7.26016 18.8882C7.30211 18.7727 7.34442 18.6573 7.38673 18.542C7.41528 18.4634 7.44382 18.3848 7.47233 18.3062C7.67962 17.7365 7.67962 17.7365 7.73536 17.625C7.70125 17.6251 7.66713 17.6253 7.63198 17.6255C6.80056 17.6296 5.96914 17.6327 5.13771 17.6347C4.73563 17.6357 4.33356 17.637 3.93148 17.6391C3.58089 17.641 3.2303 17.6422 2.8797 17.6426C2.69419 17.6429 2.50869 17.6434 2.32319 17.6448C2.14828 17.6461 1.97339 17.6465 1.79848 17.6462C1.7043 17.6463 1.61012 17.6473 1.51594 17.6483C1.0484 17.6462 0.655051 17.5618 0.304206 17.2366C0.110962 17.011 -0.00463692 16.7289 -0.00530773 16.4327C-0.0055167 16.3899 -0.00572562 16.3471 -0.00594091 16.303C-0.00593227 16.2559 -0.00592371 16.2088 -0.00591481 16.1603C-0.00608715 16.1103 -0.00625956 16.0603 -0.00643712 16.0089C-0.00695544 15.8406 -0.00713476 15.6723 -0.00731313 15.504C-0.00760672 15.3836 -0.00791828 15.2633 -0.00824654 15.143C-0.00917291 14.7812 -0.00964482 14.4195 -0.0100619 14.0577C-0.0102673 13.8874 -0.010519 13.717 -0.0107646 13.5466C-0.0115621 12.9801 -0.0122413 12.4136 -0.0125808 11.8471C-0.0126703 11.7001 -0.0127604 11.5531 -0.0128521 11.4061C-0.0128747 11.3695 -0.0128974 11.333 -0.0129207 11.2953C-0.0133097 10.7036 -0.0144972 10.1119 -0.0160199 9.52024C-0.0175709 8.91262 -0.0184144 8.30501 -0.0185641 7.69739C-0.0186655 7.35629 -0.0190747 7.01519 -0.0202732 6.6741C-0.0213984 6.35314 -0.0215633 6.0322 -0.0210813 5.71124C-0.021058 5.5935 -0.0213553 5.47575 -0.021998 5.35802C-0.0228272 5.19712 -0.0224962 5.03627 -0.0218793 4.87538C-0.0223935 4.82892 -0.0229077 4.78246 -0.0234375 4.73459C-0.0194951 4.3079 0.118746 3.95838 0.417683 3.65C0.773723 3.335 1.22612 3.34809 1.67597 3.35117Z" fill="#2F5274"/>
<path d="M22.0021 8.24114C22.6537 8.80295 23.0014 9.51371 23.1066 10.3593C23.1104 10.4758 23.112 10.5924 23.1118 10.709C23.1118 10.7779 23.1118 10.8468 23.1119 10.9157C23.1118 10.9518 23.1117 10.9878 23.1117 11.0249C23.1115 11.2176 23.1127 11.4102 23.1137 11.6029C23.1148 11.8472 23.1156 12.0915 23.1148 12.3358C23.1143 12.534 23.1151 12.7322 23.1168 12.9305C23.1172 13.0057 23.1171 13.0809 23.1165 13.156C23.104 13.687 23.104 13.687 23.3655 14.1332C23.3883 14.1563 23.4112 14.1793 23.4348 14.2031C23.9829 15.1325 24.1486 16.2157 23.9052 17.2677C23.6069 18.3111 22.9597 19.2044 22.007 19.747C21.0549 20.2648 19.9808 20.3855 18.9348 20.1093C17.8982 19.7845 17.0405 19.1256 16.5293 18.16C16.2367 17.5665 16.0957 16.9585 16.1017 16.2978C16.1022 16.2421 16.1026 16.1865 16.103 16.1292C16.1166 15.4428 16.2893 14.6584 16.7552 14.1219C17.0424 13.7759 17.0028 13.3876 16.9971 12.9632C16.9972 12.8834 16.9974 12.8036 16.9977 12.7238C16.9984 12.5144 16.9975 12.305 16.9961 12.0956C16.994 11.7613 16.9933 11.4271 16.9942 11.0928C16.9942 10.9772 16.993 10.8616 16.9917 10.7459C16.9882 9.84092 17.2693 9.07162 17.9119 8.42131C18.0996 8.24456 18.2912 8.09986 18.5129 7.96868C18.5551 7.94318 18.5974 7.91768 18.6409 7.89141C19.7358 7.28555 21.0303 7.5111 22.0021 8.24114ZM19.0285 9.7968C18.7737 10.1714 18.7402 10.4836 18.7427 10.9271C18.7427 10.9726 18.7428 11.018 18.7429 11.0648C18.7431 11.2095 18.7437 11.3542 18.7443 11.4989C18.7446 11.5972 18.7448 11.6955 18.745 11.7938C18.7455 12.0344 18.7463 12.275 18.7473 12.5156C18.7846 12.5093 18.8219 12.5031 18.8604 12.4967C18.9349 12.4843 18.9349 12.4843 19.0109 12.4716C19.0843 12.4594 19.0843 12.4594 19.1592 12.4469C19.2337 12.4345 19.2337 12.4345 19.3098 12.4218C19.3583 12.4132 19.4067 12.4047 19.4567 12.3958C19.9874 12.3132 20.5291 12.3628 21.0485 12.4848C21.1843 12.5207 21.1843 12.5207 21.3254 12.5156C21.3289 12.2229 21.3314 11.9302 21.3331 11.6375C21.3338 11.5381 21.3348 11.4386 21.336 11.3392C21.3377 11.1957 21.3385 11.0523 21.3391 10.9088C21.3398 10.8648 21.3406 10.8209 21.3413 10.7756C21.3414 10.3152 21.2305 9.98935 20.9125 9.6538C20.633 9.40517 20.3119 9.30958 19.9426 9.31505C19.5876 9.35443 19.2616 9.52748 19.0285 9.7968Z" fill="#FED300"/>
<path d="M22.0017 8.24114C22.6533 8.80294 23.0009 9.51371 23.1062 10.3593C23.1101 10.4764 23.1117 10.5935 23.1115 10.7107C23.1115 10.7441 23.1115 10.7775 23.1115 10.812C23.1115 10.9213 23.1111 11.0306 23.1108 11.1399C23.1107 11.2161 23.1106 11.2924 23.1106 11.3686C23.1104 11.5684 23.1099 11.7683 23.1094 11.9681C23.1089 12.1723 23.1087 12.3766 23.1085 12.5808C23.108 12.9809 23.1072 13.3811 23.1062 13.7812C23.0536 13.7363 23.001 13.6915 22.9484 13.6466C22.9192 13.6216 22.8899 13.5966 22.8597 13.5709C22.7661 13.4896 22.6772 13.404 22.5876 13.3183C22.2673 13.032 21.8847 12.8414 21.5021 12.6507C21.4688 12.6341 21.4355 12.6175 21.4011 12.6004C21.376 12.5879 21.3508 12.5753 21.3249 12.5624C21.3247 12.5363 21.3244 12.5103 21.3241 12.4834C21.3211 12.2104 21.3171 11.9374 21.3126 11.6644C21.3111 11.5627 21.3098 11.461 21.3087 11.3593C21.3071 11.2125 21.3047 11.0658 21.302 10.9191C21.3017 10.8741 21.3014 10.8291 21.3011 10.7827C21.2918 10.3499 21.2017 10.0094 20.9016 9.69023C20.6259 9.44849 20.3034 9.35698 19.9423 9.36174C19.6083 9.39926 19.3057 9.55529 19.0749 9.7968C18.8845 10.0809 18.7908 10.3298 18.7841 10.6733C18.7831 10.7155 18.7822 10.7577 18.7812 10.8012C18.7804 10.8461 18.7797 10.8911 18.7788 10.9374C18.7779 10.9839 18.7769 11.0303 18.7759 11.0782C18.7728 11.2263 18.7701 11.3743 18.7673 11.5224C18.7653 11.6229 18.7632 11.7235 18.7612 11.8241C18.7562 12.0702 18.7514 12.3163 18.7468 12.5624C18.6959 12.5874 18.645 12.6123 18.5925 12.638C18.5247 12.6714 18.457 12.7049 18.3892 12.7384C18.339 12.7629 18.339 12.7629 18.2879 12.7879C17.8412 13.0093 17.4809 13.294 17.138 13.6552C17.1121 13.6813 17.0861 13.7074 17.0593 13.7343C17.0438 13.7343 17.0284 13.7343 17.0124 13.7343C17.0081 13.275 17.0047 12.8158 17.0027 12.3565C17.0017 12.1432 17.0004 11.9298 16.9983 11.7165C16.9962 11.5102 16.9951 11.3038 16.9946 11.0974C16.9943 11.0192 16.9936 10.941 16.9926 10.8628C16.9812 9.94973 17.2038 9.16764 17.8441 8.48947C18.0482 8.28294 18.263 8.11628 18.5124 7.96868C18.5547 7.94318 18.5969 7.91768 18.6404 7.89141C19.7354 7.28555 21.0298 7.5111 22.0017 8.24114Z" fill="#FDA731"/>
<path d="M7.78418 17.5781C7.91646 17.5611 7.91646 17.5611 8.08743 17.5621C8.13408 17.5621 8.13408 17.5621 8.18168 17.562C8.28467 17.5621 8.38762 17.5632 8.4906 17.5643C8.56193 17.5646 8.63326 17.5648 8.70459 17.5649C8.89248 17.5655 9.08034 17.5668 9.26822 17.5684C9.45988 17.5698 9.65154 17.5705 9.8432 17.5712C10.2194 17.5727 10.5955 17.5751 10.9717 17.5781C11.1065 17.8964 11.2377 18.2146 11.352 18.5408C11.3641 18.5752 11.3763 18.6095 11.3888 18.6449C11.414 18.7162 11.4391 18.7875 11.4641 18.8588C11.5025 18.9683 11.5413 19.0776 11.58 19.187C11.6046 19.2568 11.6292 19.3265 11.6537 19.3963C11.6653 19.4289 11.6769 19.4615 11.6888 19.4951C11.7686 19.7235 11.7686 19.7235 11.7686 19.8281C11.8244 19.8273 11.8802 19.8266 11.9377 19.8258C12.1449 19.8233 12.3521 19.8217 12.5593 19.8203C12.649 19.8196 12.7387 19.8187 12.8283 19.8175C12.9572 19.8157 13.0862 19.8149 13.2151 19.8143C13.2551 19.8136 13.2952 19.8129 13.3364 19.8121C13.6147 19.812 13.6147 19.812 13.7619 19.8938C13.8666 20.0072 13.8738 20.1 13.8862 20.2498C13.8729 20.4011 13.7978 20.4768 13.6904 20.5781C13.5533 20.6466 13.4153 20.632 13.2649 20.6321C13.2303 20.6324 13.1958 20.6326 13.1602 20.6328C13.0437 20.6334 12.9273 20.6337 12.8109 20.634C12.7277 20.6343 12.6445 20.6347 12.5612 20.6351C12.2874 20.6364 12.0136 20.6371 11.7398 20.6378C11.6456 20.638 11.5515 20.6383 11.4573 20.6385C11.0657 20.6395 10.6741 20.6404 10.2824 20.6409C9.72071 20.6417 9.15898 20.6432 8.59724 20.6459C8.20254 20.6477 7.80783 20.6486 7.41312 20.6489C7.17724 20.6491 6.94137 20.6496 6.70549 20.6511C6.4836 20.6526 6.26174 20.6529 6.03985 20.6523C5.95839 20.6523 5.87692 20.6527 5.79546 20.6535C5.68426 20.6546 5.57316 20.6542 5.46196 20.6534C5.42969 20.6541 5.39743 20.6547 5.36418 20.6554C5.18777 20.6525 5.11503 20.6271 4.97491 20.5162C4.87793 20.3906 4.87793 20.3906 4.85156 20.2265C4.88327 20.0292 4.91754 19.9621 5.06543 19.8281C5.21188 19.7955 5.35475 19.8008 5.50415 19.8052C5.54654 19.8055 5.58894 19.8058 5.63261 19.8062C5.76781 19.8075 5.90292 19.8104 6.03809 19.8134C6.12982 19.8146 6.22156 19.8157 6.31329 19.8166C6.538 19.8192 6.76264 19.8232 6.9873 19.8281C6.99246 19.8023 6.99761 19.7766 7.00292 19.75C7.05705 19.492 7.12966 19.2482 7.22021 19.0008C7.23339 18.9643 7.24656 18.9277 7.26013 18.8901C7.28774 18.8137 7.31547 18.7374 7.34333 18.6611C7.38595 18.5443 7.42808 18.4273 7.47015 18.3103C7.49716 18.2358 7.5242 18.1612 7.55127 18.0867C7.5701 18.0344 7.5701 18.0344 7.5893 17.9811C7.64345 17.8335 7.69652 17.7096 7.78418 17.5781Z" fill="#213B54"/>
<path d="M20.2 13.5937C20.3377 13.6787 20.3377 13.6787 20.4344 13.8281C20.4534 14.0018 20.4481 14.1698 20.4344 14.3437C20.475 14.3476 20.5156 14.3515 20.5575 14.3555C20.863 14.4234 21.0601 14.6076 21.2313 14.8594C21.2641 15.0382 21.2449 15.1145 21.161 15.2754C21.0268 15.3894 20.9376 15.4084 20.7622 15.3988C20.6339 15.3661 20.5665 15.2837 20.4738 15.1934C20.2867 15.079 20.0346 15.1043 19.825 15.1406C19.7356 15.1957 19.7356 15.1957 19.6844 15.2812C19.6483 15.5398 19.6483 15.5398 19.763 15.7593C19.8938 15.8607 19.9721 15.8705 20.1356 15.8848C20.4842 15.9345 20.7631 16.0516 20.9931 16.326C21.2325 16.6753 21.2676 16.9699 21.2313 17.3906C21.188 17.5317 21.1272 17.6444 21.0438 17.7656C21.0158 17.8082 20.9877 17.8507 20.9588 17.8945C20.8262 18.0309 20.6985 18.1023 20.5282 18.1875C20.4972 18.1875 20.4663 18.1875 20.4344 18.1875C20.4355 18.2225 20.4366 18.2576 20.4377 18.2937C20.4386 18.3399 20.4394 18.386 20.4403 18.4336C20.4414 18.4793 20.4425 18.5249 20.4436 18.572C20.4342 18.7069 20.4153 18.779 20.3407 18.8906C20.1642 19.0083 20.0808 19.0132 19.8719 18.9844C19.7116 18.8547 19.6471 18.7853 19.6233 18.5801C19.6229 18.4638 19.6273 18.3501 19.6375 18.2344C19.5998 18.2334 19.5621 18.2324 19.5233 18.2314C19.2656 18.1636 19.0168 17.9949 18.8762 17.7636C18.8247 17.6305 18.823 17.5319 18.8407 17.3906C18.911 17.2793 18.911 17.2793 19.0282 17.2031C19.2288 17.1708 19.3711 17.1817 19.5438 17.2969C19.5438 17.3278 19.5438 17.3587 19.5438 17.3906C19.7741 17.4674 20.0069 17.4663 20.2469 17.4375C20.3885 17.3514 20.3885 17.3514 20.4344 17.2031C20.4317 17.0437 20.4262 16.9296 20.3326 16.7974C20.2112 16.7081 20.1059 16.7077 19.9569 16.6934C19.5523 16.6381 19.2936 16.486 19.0401 16.1662C18.8561 15.8906 18.8 15.6089 18.8407 15.2812C18.9183 14.9179 19.0647 14.6928 19.3622 14.4668C19.4969 14.3906 19.4969 14.3906 19.6375 14.3906C19.6348 14.3527 19.6321 14.3148 19.6293 14.2758C19.6121 13.8682 19.6121 13.8682 19.7342 13.6758C19.9091 13.5716 19.9997 13.558 20.2 13.5937Z" fill="#FEA831"/>
<path d="M1.64062 4.92188C6.72984 4.92188 11.8191 4.92188 17.0625 4.92188C17.0625 4.93734 17.0625 4.95281 17.0625 4.96875C12.128 4.96875 7.19344 4.96875 2.10938 4.96875C2.10938 8.61937 2.10938 12.27 2.10938 16.0312C6.73453 16.0312 11.3597 16.0312 16.125 16.0312C16.125 16.0467 16.125 16.0622 16.125 16.0781C11.3452 16.0781 6.56531 16.0781 1.64062 16.0781C1.64062 12.3966 1.64062 8.715 1.64062 4.92188Z" fill="#BFCFDF"/>
<path d="M11.2031 9.42184C11.3476 9.54829 11.4252 9.6272 11.4562 9.81845C11.4605 9.95067 11.458 10.0807 11.4521 10.2129C11.4511 10.2585 11.45 10.3042 11.4489 10.3513C11.4462 10.4634 11.442 10.5754 11.4375 10.6875C11.5922 10.6875 11.7469 10.6875 11.9062 10.6875C11.9062 11.4918 11.9062 12.2962 11.9062 13.125C11.7516 13.125 11.5969 13.125 11.4375 13.125C11.4399 13.2275 11.4399 13.2275 11.4424 13.3321C11.4438 13.4222 11.445 13.5124 11.4463 13.6025C11.4475 13.6475 11.4486 13.6925 11.4499 13.7388C11.4542 14.1597 11.4542 14.1597 11.2969 14.3437C11.15 14.4172 10.986 14.4305 10.8281 14.3906C10.7003 14.287 10.6468 14.2045 10.6259 14.0403C10.6222 13.9017 10.6243 13.7645 10.6289 13.6259C10.6298 13.5778 10.6306 13.5297 10.6315 13.4801C10.6337 13.3617 10.637 13.2433 10.6406 13.125C10.4859 13.125 10.3313 13.125 10.1719 13.125C10.1719 12.3361 10.1719 11.5471 10.1719 10.7343C10.3266 10.7343 10.4812 10.7343 10.6406 10.7343C10.6379 10.6592 10.6352 10.5841 10.6324 10.5067C10.6302 10.4078 10.6281 10.3089 10.626 10.2099C10.624 10.1605 10.622 10.111 10.62 10.06C10.6142 9.69286 10.6142 9.69286 10.7485 9.50643C10.9171 9.39372 11.0044 9.38279 11.2031 9.42184Z" fill="#FD4849"/>
<path d="M14.3438 6.5332C14.5286 6.57171 14.5981 6.65554 14.7188 6.79688C14.7342 6.81234 14.7497 6.82781 14.7656 6.84375C14.7697 6.92038 14.7706 6.99718 14.7702 7.07391C14.7701 7.12029 14.7699 7.16667 14.7697 7.21445C14.7694 7.26324 14.769 7.31203 14.7686 7.3623C14.7683 7.41128 14.7681 7.46025 14.7679 7.51071C14.7674 7.63214 14.7665 7.75357 14.7656 7.875C14.9203 7.875 15.075 7.875 15.2344 7.875C15.2344 8.66391 15.2344 9.45281 15.2344 10.2656C15.0797 10.2656 14.925 10.2656 14.7656 10.2656C14.7678 10.3373 14.77 10.4091 14.7722 10.483C14.774 10.5775 14.7757 10.6721 14.7773 10.7666C14.7797 10.8374 14.7797 10.8374 14.7821 10.9097C14.7868 11.2617 14.7868 11.2617 14.677 11.4443C14.5567 11.5501 14.51 11.5759 14.3496 11.5898C14.1872 11.5769 14.1294 11.5513 14.0156 11.4375C13.9687 11.2969 13.9633 11.2043 13.9642 11.0576C13.9643 11.0115 13.9645 10.9654 13.9646 10.9179C13.965 10.8699 13.9654 10.8219 13.9658 10.7725C13.9661 10.6996 13.9661 10.6996 13.9665 10.6253C13.967 10.5054 13.9679 10.3855 13.9688 10.2656C13.8141 10.2656 13.6594 10.2656 13.5 10.2656C13.5 9.47672 13.5 8.68781 13.5 7.875C13.6547 7.875 13.8094 7.875 13.9688 7.875C13.966 7.79989 13.9633 7.72478 13.9605 7.6474C13.9583 7.54846 13.9562 7.44953 13.9541 7.35059C13.9521 7.30113 13.9502 7.25167 13.9482 7.20071C13.9424 6.83309 13.9424 6.83309 14.0781 6.64691C14.2031 6.5625 14.2031 6.5625 14.3438 6.5332Z" fill="#71D845"/>
<path d="M7.76367 6.55664C7.96073 6.62233 8.00581 6.66374 8.10938 6.84375C8.13212 7.02112 8.12703 7.19558 8.12109 7.37402C8.12025 7.42215 8.1194 7.47028 8.11853 7.51987C8.11633 7.63826 8.11296 7.75664 8.10938 7.875C8.26406 7.875 8.41875 7.875 8.57812 7.875C8.57812 8.66391 8.57812 9.45281 8.57812 10.2656C8.42344 10.2656 8.26875 10.2656 8.10938 10.2656C8.11155 10.3373 8.11373 10.4091 8.11597 10.483C8.11773 10.5775 8.11943 10.6721 8.12109 10.7666C8.12345 10.8374 8.12345 10.8374 8.12585 10.9097C8.1305 11.2617 8.1305 11.2617 8.02075 11.4443C7.90119 11.5494 7.85237 11.5755 7.69336 11.5928C7.54688 11.5781 7.54688 11.5781 7.43848 11.4902C7.31712 11.3374 7.30682 11.2545 7.30792 11.0621C7.30807 11.0159 7.30822 10.9697 7.30838 10.9221C7.30877 10.8737 7.30917 10.8253 7.30957 10.7754C7.30978 10.7266 7.30999 10.6779 7.31021 10.6276C7.31076 10.507 7.31161 10.3863 7.3125 10.2656C7.15781 10.2656 7.00313 10.2656 6.84375 10.2656C6.84375 9.47672 6.84375 8.68781 6.84375 7.875C6.99844 7.875 7.15312 7.875 7.3125 7.875C7.30924 7.79989 7.30597 7.72478 7.30261 7.6474C7.29997 7.54846 7.29741 7.44953 7.29492 7.35059C7.29139 7.2764 7.29139 7.2764 7.28778 7.20071C7.28103 6.84401 7.28103 6.84401 7.37038 6.71017C7.50321 6.59275 7.58627 6.56276 7.76367 6.55664Z" fill="#71D844"/>
<path d="M4.54688 9.42197C4.6734 9.50638 4.6734 9.50638 4.78125 9.65635C4.81007 9.84173 4.80332 10.023 4.7959 10.2101C4.79484 10.2604 4.79378 10.3108 4.79269 10.3627C4.78994 10.4866 4.78574 10.6106 4.78125 10.7345C4.93594 10.7345 5.09062 10.7345 5.25 10.7345C5.25 11.5234 5.25 12.3123 5.25 13.1251C5.09531 13.1251 4.94063 13.1251 4.78125 13.1251C4.7837 13.2276 4.7837 13.2276 4.78619 13.3322C4.78751 13.4223 4.78879 13.5125 4.79004 13.6026C4.79122 13.6476 4.7924 13.6926 4.79361 13.739C4.79798 14.1598 4.79798 14.1598 4.64062 14.3438C4.49372 14.4173 4.32977 14.4306 4.17188 14.3907C4.04404 14.2872 3.99051 14.2047 3.96966 14.0404C3.9659 13.9018 3.96805 13.7646 3.97266 13.6261C3.9735 13.5779 3.97435 13.5298 3.97522 13.4802C3.97742 13.3618 3.98079 13.2435 3.98438 13.1251C3.82969 13.1251 3.675 13.1251 3.51562 13.1251C3.51562 12.3362 3.51562 11.5473 3.51562 10.7345C3.67031 10.7345 3.825 10.7345 3.98438 10.7345C3.98166 10.6594 3.97894 10.5843 3.97614 10.5069C3.97394 10.4079 3.9718 10.309 3.96973 10.2101C3.96776 10.1606 3.9658 10.1111 3.96378 10.0602C3.95798 9.69304 3.95798 9.69304 4.09222 9.50638C4.25982 9.39458 4.34918 9.38667 4.54688 9.42197Z" fill="#FD4748"/>
<path d="M19.8726 12.3749C19.7092 12.4651 19.5411 12.5144 19.3628 12.5682C18.3892 12.8828 17.6138 13.5347 17.1391 14.4414C16.678 15.3553 16.5329 16.3508 16.8257 17.3436C16.8461 17.4152 16.8461 17.4152 16.8669 17.4883C17.0562 18.1045 17.3842 18.6383 17.857 19.078C17.8869 19.1087 17.9168 19.1394 17.9476 19.171C18.186 19.4042 18.4342 19.5733 18.7271 19.7284C18.776 19.7543 18.776 19.7543 18.8259 19.7808C19.1852 19.9639 19.5493 20.0735 19.9458 20.1415C19.9966 20.1506 19.9966 20.1506 20.0484 20.1599C20.1304 20.1745 20.2124 20.1888 20.2945 20.203C20.2945 20.2185 20.2945 20.234 20.2945 20.2499C19.2362 20.2988 18.231 19.98 17.4208 19.2875C16.7003 18.6276 16.2009 17.7573 16.1083 16.769C16.1021 16.6116 16.1006 16.4552 16.1021 16.2977C16.1025 16.2421 16.1029 16.1865 16.1033 16.1291C16.1251 15.0239 16.6386 14.0625 17.4265 13.2987C18.1168 12.6873 18.9543 12.3469 19.8726 12.3749Z" fill="#E6BF00"/>
<path d="M20.1999 7.54683C20.1845 7.57776 20.169 7.6087 20.1531 7.64058C20.0452 7.662 20.0452 7.662 19.904 7.67866C19.1536 7.79363 18.4616 8.23421 18.0115 8.84468C17.6106 9.44962 17.467 9.99959 17.474 10.7139C17.475 10.8212 17.4751 10.9284 17.4749 11.0357C17.4744 11.3404 17.4744 11.645 17.4775 11.9497C17.4793 12.1368 17.4793 12.3238 17.4781 12.5109C17.4779 12.5817 17.4785 12.6526 17.4798 12.7235C17.4892 13.2756 17.4892 13.2756 17.3496 13.4885C17.2574 13.5826 17.1692 13.662 17.0593 13.7343C17.0438 13.7343 17.0284 13.7343 17.0124 13.7343C17.0081 13.2751 17.0047 12.8158 17.0027 12.3565C17.0017 12.1432 17.0004 11.9299 16.9983 11.7165C16.9962 11.5102 16.9951 11.3038 16.9946 11.0974C16.9943 11.0192 16.9936 10.941 16.9926 10.8628C16.9812 9.94975 17.2038 9.16766 17.8441 8.4895C18.0482 8.28297 18.263 8.1163 18.5124 7.9687C18.5547 7.9432 18.5969 7.9177 18.6404 7.89143C19.1273 7.62205 19.647 7.53577 20.1999 7.54683Z" fill="#E4972E"/>
<path d="M20.3438 9.32822C20.7487 9.30251 21.005 9.39289 21.3398 9.61826C21.5926 9.87674 21.7562 10.1836 21.7553 10.548C21.7553 10.5959 21.7553 10.6437 21.7553 10.693C21.7551 10.7446 21.7548 10.7961 21.7546 10.8493C21.7545 10.9021 21.7544 10.955 21.7544 11.0095C21.7541 11.1785 21.7535 11.3476 21.7529 11.5167C21.7527 11.6312 21.7525 11.7458 21.7523 11.8603C21.7518 12.1413 21.751 12.4222 21.75 12.7032C21.5749 12.6799 21.4775 12.6622 21.3281 12.5626C21.3104 12.4723 21.3104 12.4723 21.3101 12.3607C21.3096 12.3189 21.3091 12.2771 21.3087 12.234C21.3088 12.1887 21.3089 12.1433 21.3091 12.0966C21.3086 12.0499 21.3081 12.0031 21.3075 11.955C21.3059 11.805 21.3052 11.655 21.3047 11.505C21.304 11.3086 21.3024 11.1123 21.3003 10.9159C21.3004 10.8712 21.3006 10.8265 21.3007 10.7805C21.296 10.3533 21.2067 10.0102 20.9117 9.6937C20.7418 9.54947 20.5482 9.46066 20.3438 9.37509C20.3438 9.35963 20.3438 9.34416 20.3438 9.32822Z" fill="#E6982D"/>
<path d="M4.54586 9.42197C4.67238 9.50638 4.67238 9.50638 4.78023 9.65635C4.80905 9.84173 4.80231 10.023 4.79488 10.2101C4.79382 10.2604 4.79277 10.3108 4.79168 10.3627C4.78892 10.4866 4.78472 10.6106 4.78023 10.7345C4.51726 10.7345 4.25429 10.7345 3.98336 10.7345C3.97703 10.5596 3.97238 10.385 3.96871 10.2101C3.96675 10.1606 3.96478 10.1111 3.96276 10.0602C3.95697 9.69304 3.95697 9.69304 4.09121 9.50638C4.2588 9.39458 4.34816 9.38667 4.54586 9.42197Z" fill="#385777"/>
<path d="M11.2021 9.42184C11.35 9.54959 11.4248 9.62801 11.4552 9.82285C11.4595 9.96137 11.4569 10.0978 11.4511 10.2363C11.4501 10.2842 11.449 10.3321 11.4479 10.3815C11.4452 10.4991 11.441 10.6167 11.4365 10.7343C11.1735 10.7343 10.9105 10.7343 10.6396 10.7343C10.6333 10.5595 10.6286 10.3848 10.625 10.2099C10.623 10.1605 10.621 10.111 10.619 10.06C10.6132 9.69286 10.6132 9.69286 10.7475 9.50643C10.916 9.39372 11.0033 9.38279 11.2021 9.42184Z" fill="#375677"/>
<path d="M10.6416 13.125C10.9046 13.125 11.1676 13.125 11.4385 13.125C11.4423 13.2842 11.4451 13.4433 11.4473 13.6025C11.4485 13.6475 11.4497 13.6925 11.4509 13.7389C11.4552 14.1597 11.4552 14.1597 11.2979 14.3438C11.151 14.4172 10.987 14.4305 10.8291 14.3906C10.7013 14.2871 10.6478 14.2046 10.6269 14.0403C10.6232 13.9017 10.6253 13.7645 10.6299 13.626C10.6308 13.5778 10.6316 13.5297 10.6325 13.4801C10.6347 13.3617 10.6381 13.2434 10.6416 13.125Z" fill="#345677"/>
<path d="M3.98539 13.125C4.24836 13.125 4.51133 13.125 4.78227 13.125C4.78607 13.2842 4.78885 13.4433 4.79105 13.6025C4.79223 13.6475 4.79341 13.6925 4.79463 13.7389C4.79899 14.1597 4.79899 14.1597 4.64164 14.3438C4.49473 14.4172 4.33079 14.4305 4.17289 14.3906C4.04505 14.2871 3.99152 14.2046 3.97067 14.0403C3.96692 13.9017 3.96906 13.7645 3.97367 13.626C3.97452 13.5778 3.97536 13.5297 3.97624 13.4801C3.97844 13.3617 3.9818 13.2434 3.98539 13.125Z" fill="#345678"/>
<path d="M13.9656 10.2656C14.2131 10.2656 14.4606 10.2656 14.7156 10.2656C14.7219 10.4493 14.7266 10.6327 14.7303 10.8164C14.7322 10.8685 14.7342 10.9206 14.7362 10.9742C14.742 11.3596 14.742 11.3596 14.6065 11.519C14.4554 11.5903 14.3652 11.6027 14.2 11.5781C14.053 11.4947 14.0199 11.4599 13.9656 11.2969C13.9618 11.2172 13.9606 11.1373 13.961 11.0576C13.9612 11.0115 13.9613 10.9654 13.9615 10.9179C13.9619 10.8699 13.9623 10.8219 13.9627 10.7725C13.9629 10.7239 13.9631 10.6754 13.9633 10.6253C13.9639 10.5054 13.9647 10.3855 13.9656 10.2656Z" fill="#305374"/>
<path d="M7.30936 10.2656C7.55686 10.2656 7.80436 10.2656 8.05936 10.2656C8.06568 10.4493 8.07033 10.6327 8.07401 10.8164C8.07597 10.8685 8.07794 10.9206 8.07996 10.9742C8.08576 11.3596 8.08576 11.3596 7.95023 11.5188C7.79798 11.5909 7.71013 11.6064 7.54374 11.5781C7.43579 11.4906 7.37132 11.4208 7.30936 11.2969C7.30541 11.2187 7.30433 11.1404 7.30478 11.0621C7.30493 11.0159 7.30509 10.9697 7.30524 10.9221C7.30563 10.8737 7.30603 10.8253 7.30643 10.7754C7.30664 10.7266 7.30685 10.6779 7.30707 10.6276C7.30763 10.507 7.30847 10.3863 7.30936 10.2656Z" fill="#315475"/>
<path d="M14.3427 6.5332C14.5414 6.57458 14.5977 6.63223 14.7177 6.79688C14.7467 6.98223 14.7398 7.16357 14.7324 7.35059C14.7313 7.40095 14.7303 7.45131 14.7292 7.5032C14.7264 7.62716 14.7222 7.75109 14.7177 7.875C14.4702 7.875 14.2227 7.875 13.9677 7.875C13.9614 7.70014 13.9568 7.52551 13.9531 7.35059C13.9511 7.30113 13.9492 7.25167 13.9471 7.20071C13.9413 6.83309 13.9413 6.83309 14.077 6.64691C14.2021 6.5625 14.2021 6.5625 14.3427 6.5332Z" fill="#305375"/>
<path d="M7.77048 6.5625C7.92479 6.60908 7.97404 6.62438 8.06638 6.75C8.08234 6.86924 8.08234 6.86924 8.08011 7.00983C8.07966 7.06013 8.07921 7.11043 8.07874 7.16226C8.07756 7.21474 8.07638 7.26722 8.07517 7.32129C8.07422 7.40082 8.07422 7.40082 8.07324 7.48196C8.07159 7.61299 8.06906 7.744 8.06638 7.875C7.81888 7.875 7.57138 7.875 7.31638 7.875C7.30878 7.70011 7.30321 7.52556 7.2988 7.35059C7.29644 7.30113 7.29409 7.25167 7.29166 7.20071C7.28491 6.8442 7.28491 6.8442 7.37416 6.70997C7.50972 6.5897 7.58881 6.5625 7.77048 6.5625Z" fill="#315476"/>
</g>
<defs>
<clipPath id="clip0_2658_18535">
<rect width="24" height="24" fill="white"/>
</clipPath>
</defs>
</svg>
