<svg width="15" height="15" viewBox="0 0 15 15" fill="none" xmlns="http://www.w3.org/2000/svg">
<mask id="mask0_1121_19615" style="mask-type:alpha" maskUnits="userSpaceOnUse" x="0" y="0" width="15" height="15">
<rect width="15" height="15" fill="#D9D9D9"/>
</mask>
<g mask="url(#mask0_1121_19615)">
<path d="M5.625 8.125C5.44792 8.125 5.29948 8.0651 5.17969 7.94531C5.0599 7.82552 5 7.67708 5 7.5V3.64062L3.82812 4.8125C3.71354 4.92708 3.57031 4.98438 3.39844 4.98438C3.22656 4.98438 3.07812 4.92708 2.95312 4.8125C2.82813 4.6875 2.76562 4.53906 2.76562 4.36719C2.76562 4.19531 2.82813 4.04688 2.95312 3.92188L5.1875 1.6875C5.25 1.625 5.31771 1.58073 5.39063 1.55469C5.46354 1.52865 5.54167 1.51562 5.625 1.51562C5.70833 1.51562 5.78646 1.52865 5.85938 1.55469C5.93229 1.58073 6 1.625 6.0625 1.6875L8.3125 3.9375C8.4375 4.0625 8.4974 4.20833 8.49219 4.375C8.48698 4.54167 8.42188 4.6875 8.29688 4.8125C8.17188 4.92708 8.02604 4.98698 7.85938 4.99219C7.69271 4.9974 7.54688 4.9375 7.42188 4.8125L6.25 3.64062V7.5C6.25 7.67708 6.1901 7.82552 6.07031 7.94531C5.95052 8.0651 5.80208 8.125 5.625 8.125ZM9.375 13.4844C9.29167 13.4844 9.21354 13.4714 9.14062 13.4453C9.06771 13.4193 9 13.375 8.9375 13.3125L6.6875 11.0625C6.5625 10.9375 6.5026 10.7917 6.50781 10.625C6.51302 10.4583 6.57812 10.3125 6.70312 10.1875C6.82812 10.0729 6.97396 10.013 7.14062 10.0078C7.30729 10.0026 7.45312 10.0625 7.57812 10.1875L8.75 11.3594V7.5C8.75 7.32292 8.8099 7.17448 8.92969 7.05469C9.04948 6.9349 9.19792 6.875 9.375 6.875C9.55208 6.875 9.70052 6.9349 9.82031 7.05469C9.9401 7.17448 10 7.32292 10 7.5V11.3594L11.1719 10.1875C11.2865 10.0729 11.4297 10.0156 11.6016 10.0156C11.7734 10.0156 11.9219 10.0729 12.0469 10.1875C12.1719 10.3125 12.2344 10.4609 12.2344 10.6328C12.2344 10.8047 12.1719 10.9531 12.0469 11.0781L9.8125 13.3125C9.75 13.375 9.68229 13.4193 9.60938 13.4453C9.53646 13.4714 9.45833 13.4844 9.375 13.4844Z" fill="#1F4A66"/>
</g>
</svg>
