<svg width="30" height="30" viewBox="0 0 30 30" fill="none" xmlns="http://www.w3.org/2000/svg">
<g clip-path="url(#clip0_1743_19429)">
<path d="M14.9999 -0.0285034C15.0419 -0.0294098 15.0839 -0.0303162 15.1271 -0.03125C15.7606 -0.0267575 16.3181 0.296315 16.8639 0.586731C16.9592 0.636858 16.9592 0.636858 17.0565 0.687997C17.5224 0.933877 17.9852 1.18545 18.4469 1.4392C18.8285 1.64851 19.2131 1.85134 19.5995 2.05157C20.0959 2.30884 20.5878 2.57338 21.0778 2.84259C21.5174 3.08335 21.9611 3.31528 22.4061 3.54584C22.7892 3.7449 23.1689 3.9493 23.5472 4.15729C24.0054 4.40913 24.467 4.65339 24.9315 4.89337C25.4114 5.14149 25.889 5.39307 26.3634 5.65143C26.4143 5.67907 26.4652 5.70672 26.5177 5.7352C27.3933 6.21444 28.0813 6.63473 28.4204 7.61992C28.4966 7.89201 28.4931 8.15886 28.4921 8.43971C28.4924 8.49795 28.4926 8.55619 28.4929 8.61619C28.4937 8.81085 28.4936 9.0055 28.4935 9.20017C28.4938 9.33994 28.4942 9.47972 28.4947 9.61949C28.4956 9.95951 28.496 10.2995 28.496 10.6396C28.4961 10.9161 28.4963 11.1927 28.4967 11.4693C28.4977 12.2545 28.4983 13.0396 28.4982 13.8248C28.4982 13.8671 28.4982 13.9094 28.4982 13.953C28.4982 13.9953 28.4982 14.0376 28.4981 14.0813C28.4981 14.7669 28.4992 15.4526 28.5009 16.1383C28.5026 16.8433 28.5034 17.5484 28.5033 18.2534C28.5032 18.6489 28.5035 19.0443 28.5048 19.4397C28.5059 19.8118 28.506 20.1839 28.5051 20.556C28.505 20.6922 28.5053 20.8285 28.506 20.9647C28.5105 21.8867 28.5143 22.6789 27.8319 23.3797C27.4746 23.7366 27.0773 23.9621 26.6307 24.1927C26.5587 24.2305 26.4867 24.2684 26.4147 24.3063C26.2625 24.3865 26.1101 24.4662 25.9576 24.5458C25.6051 24.7299 25.2543 24.9171 24.9032 25.1039C24.7843 25.1672 24.6654 25.2303 24.5464 25.2935C24.0394 25.5625 23.533 25.8329 23.0272 26.1043C22.4023 26.4396 21.7762 26.7729 21.1497 27.1053C20.6054 27.3941 20.0618 27.6842 19.5189 27.9756C18.9403 28.286 18.361 28.5952 17.781 28.9029C17.6964 28.9478 17.6118 28.9927 17.5273 29.0377C17.0821 29.2744 16.6355 29.5081 16.1855 29.7355C16.1464 29.7555 16.1073 29.7754 16.0671 29.7959C15.5192 30.0707 14.8762 30.0858 14.2791 29.9601C13.7512 29.7713 13.2626 29.4707 12.7742 29.1988C12.4161 29.0001 12.0533 28.8114 11.6893 28.6238C11.1738 28.3576 10.663 28.0843 10.1547 27.8047C9.75126 27.5835 9.34417 27.3701 8.93543 27.159C8.41726 26.8913 7.90361 26.6167 7.39254 26.3357C7.01099 26.1265 6.62647 25.9237 6.24012 25.7234C5.74692 25.4679 5.25812 25.2054 4.77169 24.9372C4.47969 24.7769 4.18602 24.621 3.88927 24.4696C3.82397 24.4362 3.75866 24.4029 3.69138 24.3685C3.56584 24.3045 3.44006 24.2411 3.31401 24.1782C2.51554 23.7714 1.8774 23.248 1.57988 22.3831C1.50339 22.1104 1.50671 21.8434 1.50765 21.5619C1.50739 21.5036 1.50712 21.4454 1.50685 21.3854C1.50611 21.1907 1.5062 20.9961 1.5063 20.8014C1.50595 20.6616 1.50555 20.5219 1.50511 20.3821C1.50418 20.0421 1.50381 19.7021 1.50375 19.362C1.50369 19.0854 1.50345 18.8089 1.50308 18.5323C1.50205 17.7471 1.50151 16.9619 1.50159 16.1768C1.5016 16.1345 1.5016 16.0922 1.50161 16.0486C1.50161 16.0063 1.50162 15.9639 1.50162 15.9203C1.50167 15.2346 1.50055 14.549 1.4989 13.8633C1.49721 13.1582 1.4964 12.4532 1.49651 11.7482C1.49654 11.3527 1.49623 10.9573 1.49496 10.5619C1.49382 10.1898 1.49382 9.81769 1.49467 9.44559C1.49479 9.30935 1.49452 9.17311 1.49381 9.03688C1.48614 7.46252 1.48614 7.46252 1.9701 6.80865C2.00469 6.75994 2.03929 6.71122 2.07493 6.66103C2.4922 6.23052 3.02971 5.96909 3.55946 5.7027C3.70072 5.63077 3.84181 5.55849 3.98289 5.48618C4.01798 5.46823 4.05307 5.45029 4.08922 5.4318C4.41144 5.26658 4.72924 5.09391 5.04627 4.91901C5.4995 4.66943 5.95621 4.4277 6.4159 4.19025C6.93408 3.92256 7.44772 3.64794 7.95879 3.36696C8.39628 3.12707 8.83812 2.89621 9.2811 2.66667C9.66419 2.46761 10.0439 2.26322 10.4222 2.05524C10.9412 1.77002 11.4649 1.49521 11.9912 1.22397C12.2948 1.06703 12.5966 0.907772 12.8955 0.742142C12.9527 0.710494 13.0098 0.678847 13.0687 0.64624C13.1752 0.586927 13.2815 0.527222 13.3875 0.467026C13.9041 0.179201 14.4007 -0.0414352 14.9999 -0.0285034Z" fill="#F6524B"/>
<path d="M28.1836 7.03125C28.2216 7.12395 28.2594 7.21674 28.2971 7.30957C28.3182 7.36123 28.3393 7.4129 28.361 7.46613C28.4428 7.6829 28.4839 7.86986 28.4844 8.10172C28.4847 8.15155 28.4849 8.20139 28.4852 8.25273C28.4852 8.33443 28.4852 8.33443 28.4852 8.41778C28.4854 8.47587 28.4856 8.53395 28.4858 8.5938C28.4865 8.78901 28.4867 8.98421 28.4869 9.17942C28.4873 9.31917 28.4877 9.45892 28.4881 9.59866C28.4892 10.0185 28.4898 10.4383 28.4904 10.8581C28.4906 11.056 28.4909 11.2539 28.4912 11.4518C28.4922 12.1101 28.4931 12.7684 28.4935 13.4266C28.4936 13.5974 28.4937 13.7681 28.4939 13.9389C28.4939 13.9813 28.4939 14.0238 28.4939 14.0675C28.4944 14.7543 28.4959 15.4412 28.4978 16.128C28.4998 16.8338 28.5008 17.5397 28.501 18.2455C28.5011 18.6415 28.5016 19.0375 28.5031 19.4335C28.5045 19.8064 28.5047 20.1792 28.5041 20.552C28.5041 20.6885 28.5045 20.825 28.5053 20.9615C28.5148 22.6777 28.5148 22.6777 27.832 23.3789C27.4747 23.7358 27.0774 23.9614 26.6309 24.1919C26.5588 24.2297 26.4868 24.2676 26.4148 24.3055C26.2626 24.3857 26.1102 24.4655 25.9577 24.545C25.6052 24.7291 25.2544 24.9163 24.9033 25.1031C24.7844 25.1664 24.6655 25.2296 24.5465 25.2927C24.0395 25.5618 23.5332 25.8321 23.0273 26.1035C22.4024 26.4388 21.7763 26.7721 21.1498 27.1045C20.6055 27.3934 20.062 27.6834 19.519 27.9749C18.9404 28.2852 18.3611 28.5944 17.7811 28.9021C17.6965 28.947 17.6119 28.9919 17.5274 29.0369C17.0822 29.2736 16.6356 29.5073 16.1856 29.7347C16.1465 29.7547 16.1075 29.7746 16.0672 29.7951C15.5193 30.0699 14.8763 30.085 14.2793 29.9593C13.7513 29.7705 13.2627 29.4699 12.7744 29.198C12.4163 28.9993 12.0534 28.8106 11.6895 28.623C11.174 28.3568 10.6631 28.0835 10.1548 27.8039C9.75138 27.5827 9.34428 27.3694 8.93555 27.1582C8.31145 26.8356 7.6936 26.5028 7.07803 26.1643C6.78205 26.0017 6.48546 25.8403 6.18896 25.6787C6.07986 25.6192 5.97076 25.5597 5.86166 25.5002C5.81586 25.4752 5.77006 25.4502 5.72288 25.4245C5.67443 25.3981 5.67443 25.3981 5.625 25.3711C5.74219 25.3125 5.74219 25.3125 5.85136 25.3477C5.89872 25.3675 5.94608 25.3873 5.99487 25.4077C8.88753 26.5048 12.0555 26.2005 14.9414 25.3125C14.9607 21.5807 14.9801 17.8488 15 14.0039C16.4665 13.204 16.4665 13.204 17.1437 12.8473C17.3565 12.7353 17.5692 12.6228 17.7818 12.5105C17.8244 12.488 17.8669 12.4655 17.9108 12.4423C18.3085 12.232 18.7052 12.0195 19.1016 11.8066C19.7059 11.4821 20.3116 11.1604 20.918 10.8398C21.5934 10.4828 22.2677 10.1238 22.9408 9.7625C23.4572 9.48544 23.9745 9.21021 24.4922 8.93555C25.0622 8.63308 25.6318 8.32977 26.2005 8.02476C26.3687 7.93455 26.537 7.84443 26.7052 7.75429C26.9335 7.632 27.1616 7.50945 27.3896 7.3867C27.4809 7.33779 27.5722 7.28888 27.6636 7.23999C27.7038 7.2182 27.7441 7.19641 27.7856 7.17396C28.0531 7.03125 28.0531 7.03125 28.1836 7.03125Z" fill="#E04844"/>
<path d="M15 -0.0285034C15.042 -0.0294098 15.084 -0.0303162 15.1273 -0.03125C15.7607 -0.0267575 16.3182 0.296315 16.864 0.586731C16.9593 0.636858 16.9593 0.636858 17.0566 0.687997C17.5225 0.933877 17.9853 1.18545 18.447 1.4392C18.8286 1.64851 19.2132 1.85134 19.5996 2.05157C20.0961 2.30884 20.5879 2.57338 21.078 2.84259C21.5175 3.08335 21.9612 3.31528 22.4062 3.54584C22.7893 3.7449 23.1691 3.9493 23.5474 4.15729C24.0056 4.40913 24.4671 4.65339 24.9316 4.89337C25.4115 5.14149 25.8891 5.39307 26.3635 5.65143C26.4144 5.67907 26.4653 5.70672 26.5178 5.7352C27.5371 6.29304 27.5371 6.29304 27.8357 6.60358C27.8787 6.64731 27.9216 6.69104 27.9659 6.7361C28.0664 6.85626 28.0664 6.85626 28.125 7.03204C27.3317 7.46939 26.5334 7.89678 25.7325 8.31984C25.1594 8.62252 24.5871 8.92644 24.0161 9.23297C23.3936 9.56713 22.77 9.89919 22.1459 10.2303C21.6016 10.5192 21.058 10.8092 20.5151 11.1006C19.8661 11.449 19.2155 11.7941 18.5643 12.1383C18.0143 12.4291 17.4649 12.721 16.9166 13.0152C16.8144 13.07 16.7121 13.1247 16.6098 13.1794C16.319 13.335 16.0286 13.4913 15.74 13.6511C15.6934 13.6766 15.6469 13.7021 15.5989 13.7283C15.5155 13.774 15.4324 13.8202 15.3497 13.8672C15.0898 14.0087 15.0898 14.0087 14.9518 13.9912C14.7845 13.9321 14.6325 13.8546 14.4749 13.7728C14.4411 13.7553 14.4072 13.7378 14.3723 13.7198C14.2616 13.6624 14.151 13.6047 14.0405 13.5469C13.9633 13.5068 13.886 13.4666 13.8087 13.4265C13.3062 13.1647 12.8074 12.8965 12.3111 12.6231C11.9117 12.4036 11.5084 12.1924 11.1035 11.9832C10.5853 11.7155 10.0717 11.4409 9.56062 11.1599C9.17907 10.9507 8.79456 10.7479 8.4082 10.5477C7.96823 10.3197 7.5314 10.0869 7.09717 9.84821C6.63898 9.59637 6.17741 9.35209 5.71289 9.11212C5.19531 8.84475 4.68216 8.57062 4.1718 8.28973C3.71789 8.04064 3.25932 7.80104 2.79851 7.56498C2.48039 7.4009 2.17582 7.22613 1.875 7.03204C2.23603 6.36699 2.90127 6.03369 3.55225 5.70636C3.69458 5.63389 3.83674 5.56108 3.97888 5.48824C4.03206 5.46105 4.03206 5.46105 4.08632 5.43331C4.40956 5.26761 4.72838 5.09448 5.04639 4.91901C5.49961 4.66943 5.95632 4.4277 6.41602 4.19025C6.93419 3.92256 7.44784 3.64794 7.95891 3.36696C8.3964 3.12707 8.83823 2.89621 9.28122 2.66667C9.6643 2.46761 10.0441 2.26322 10.4224 2.05524C10.9413 1.77002 11.465 1.49521 11.9913 1.22397C12.2949 1.06703 12.5967 0.907772 12.8957 0.742142C12.9528 0.710494 13.0099 0.678847 13.0688 0.64624C13.1753 0.586927 13.2816 0.527222 13.3876 0.467026C13.9042 0.179201 14.4008 -0.0414352 15 -0.0285034Z" fill="#F46F6B"/>
<path d="M28.2422 7.26562C28.4903 7.63775 28.4937 8.00536 28.4922 8.43892C28.4925 8.49716 28.4928 8.55539 28.493 8.61539C28.4938 8.81006 28.4937 9.00471 28.4936 9.19938C28.4939 9.33915 28.4943 9.47892 28.4948 9.6187C28.4957 9.95872 28.4961 10.2987 28.4961 10.6388C28.4962 10.9153 28.4964 11.1919 28.4968 11.4685C28.4978 12.2537 28.4984 13.0388 28.4983 13.824C28.4983 13.8663 28.4983 13.9086 28.4983 13.9522C28.4983 13.9945 28.4983 14.0368 28.4983 14.0805C28.4982 14.7662 28.4993 15.4518 28.501 16.1375C28.5027 16.8426 28.5035 17.5476 28.5034 18.2526C28.5033 18.6481 28.5037 19.0435 28.5049 19.4389C28.5061 19.811 28.5061 20.1831 28.5052 20.5552C28.5051 20.6914 28.5054 20.8277 28.5061 20.9639C28.5106 21.8859 28.5144 22.6781 27.832 23.3789C27.4747 23.7358 27.0774 23.9614 26.6309 24.1919C26.5588 24.2297 26.4868 24.2676 26.4148 24.3055C26.2626 24.3857 26.1102 24.4655 25.9577 24.545C25.6052 24.7291 25.2544 24.9163 24.9033 25.1031C24.7844 25.1664 24.6655 25.2296 24.5465 25.2927C24.0395 25.5618 23.5332 25.8321 23.0273 26.1035C22.4024 26.4388 21.7763 26.7721 21.1498 27.1045C20.6055 27.3934 20.062 27.6834 19.519 27.9749C18.9404 28.2852 18.3611 28.5944 17.7811 28.9021C17.6965 28.947 17.6119 28.9919 17.5274 29.0369C17.0822 29.2736 16.6356 29.5073 16.1856 29.7347C16.1465 29.7547 16.1075 29.7746 16.0672 29.7951C15.5193 30.0699 14.8763 30.085 14.2793 29.9593C13.7513 29.7705 13.2627 29.4699 12.7744 29.198C12.4163 28.9993 12.0534 28.8106 11.6895 28.623C11.174 28.3568 10.6631 28.0835 10.1548 27.8039C9.75138 27.5827 9.34428 27.3694 8.93555 27.1582C8.31145 26.8356 7.6936 26.5028 7.07803 26.1643C6.78205 26.0017 6.48546 25.8403 6.18896 25.6787C6.07986 25.6192 5.97076 25.5597 5.86166 25.5002C5.81586 25.4752 5.77006 25.4502 5.72288 25.4245C5.67443 25.3981 5.67443 25.3981 5.625 25.3711C5.74219 25.3125 5.74219 25.3125 5.85136 25.3477C5.89872 25.3675 5.94608 25.3873 5.99487 25.4077C8.16422 26.2305 10.8127 26.3356 13.0664 25.8398C13.1154 25.8292 13.1644 25.8185 13.2149 25.8075C13.5408 25.7341 13.8604 25.6449 14.1797 25.5469C14.2342 25.5303 14.2887 25.5136 14.3449 25.4965C15.4307 25.1608 16.4527 24.7218 17.4609 24.1992C17.4772 24.2522 17.4934 24.3051 17.5101 24.3597C17.5314 24.4288 17.5526 24.4979 17.5745 24.5691C17.6061 24.6721 17.6061 24.6721 17.6383 24.7771C17.6958 25.028 17.6958 25.028 17.8594 25.2031C18.1746 25.3274 18.4655 25.3531 18.783 25.2246C19.4726 24.872 19.8958 24.2476 20.1633 23.5364C20.2146 23.3215 20.2189 23.1477 20.2137 22.9293C20.2072 22.5817 20.2036 22.315 20.4424 22.0434C20.6151 21.8744 20.801 21.7241 20.994 21.579C21.1182 21.4855 21.2342 21.3841 21.3501 21.2805C21.3855 21.2499 21.4209 21.2192 21.4574 21.1876C21.7677 20.9105 22.0528 20.6097 22.3233 20.294C22.4121 20.1904 22.502 20.0877 22.5925 19.9855C25.6373 16.5254 27.3393 12.2325 28.1493 7.74538C28.1787 7.5851 28.2097 7.42529 28.2422 7.26562Z" fill="#BF3D3A"/>
<path d="M5.625 25.3125C6.1968 25.4638 6.1968 25.4638 6.42838 25.5418C6.8789 25.6937 7.33393 25.7897 7.80029 25.8801C7.86454 25.8927 7.92878 25.9053 7.99497 25.9182C10.0417 26.3038 12.1913 26.1266 14.1797 25.5469C14.4504 25.4695 14.7211 25.3922 15 25.3125C15 26.8594 15 28.4062 15 30C14.1309 30 13.516 29.6105 12.7744 29.198C12.4163 28.9993 12.0534 28.8106 11.6895 28.623C11.174 28.3568 10.6631 28.0835 10.1548 27.8039C9.75138 27.5827 9.34428 27.3694 8.93555 27.1582C8.31145 26.8356 7.6936 26.5028 7.07803 26.1643C6.78205 26.0017 6.48546 25.8403 6.18896 25.6787C6.07986 25.6192 5.97076 25.5597 5.86166 25.5002C5.79296 25.4627 5.79296 25.4627 5.72288 25.4245C5.69058 25.4069 5.65828 25.3892 5.625 25.3711C5.625 25.3518 5.625 25.3324 5.625 25.3125Z" fill="#D24640"/>
<path d="M19.973 21.7781C20.3229 22.1588 20.3166 22.554 20.3012 23.0411C20.2444 23.8271 19.8089 24.4529 19.2516 24.9825C18.9346 25.2512 18.6617 25.3922 18.2408 25.3706C17.9798 25.3289 17.8565 25.2326 17.6952 25.0191C17.4313 24.5761 17.4521 24.0443 17.5579 23.5503C17.6127 23.3879 17.6775 23.239 17.7538 23.0855C17.7822 23.027 17.8107 22.9686 17.8401 22.9083C18.1344 22.3559 18.5499 21.8815 19.1465 21.6513C19.452 21.5796 19.7044 21.6204 19.973 21.7781Z" fill="#CCCAD4"/>
<path d="M8.02724 16.759C8.7123 17.0007 9.1019 17.5474 9.43349 18.1652C9.68707 18.707 9.78446 19.3123 9.60195 19.8937C9.48016 20.1211 9.37984 20.289 9.14052 20.3918C8.7814 20.4588 8.47173 20.4431 8.15907 20.2453C8.07428 20.1792 7.99122 20.1107 7.91005 20.0402C7.86972 20.0076 7.82938 19.9749 7.78783 19.9413C7.25917 19.4714 6.90985 18.6882 6.83705 17.9894C6.8218 17.6082 6.85697 17.3039 7.08974 16.9933C7.41221 16.6939 7.60775 16.6729 8.02724 16.759Z" fill="#F0EEF9"/>
<path d="M25.4955 11.8865C25.7922 12.1057 25.923 12.4007 25.9853 12.7608C26.0212 13.4984 25.7108 14.2549 25.2538 14.8235C24.8775 15.2282 24.5246 15.5157 23.9575 15.5522C23.6953 15.5227 23.5777 15.4633 23.3788 15.2922C23.0844 14.8861 23.1073 14.4295 23.1445 13.9446C23.1983 13.7162 23.2788 13.5119 23.3788 13.3001C23.3994 13.255 23.4199 13.21 23.4411 13.1636C23.7062 12.6372 24.1253 12.1436 24.6679 11.8938C24.9516 11.8088 25.2092 11.8063 25.4955 11.8865Z" fill="#EFEEF9"/>
<path d="M4.33606 19.1606C5.04183 19.4344 5.50428 19.9998 5.81784 20.6697C6.03702 21.1987 6.15044 21.7901 5.96936 22.3503C5.86611 22.5762 5.74017 22.7523 5.50794 22.852C5.14561 22.9197 4.83743 22.9023 4.52283 22.7019C4.43926 22.637 4.35736 22.5699 4.27747 22.5005C4.24144 22.4708 4.20541 22.4411 4.16829 22.4105C3.59533 21.8935 3.29421 21.142 3.20058 20.3881C3.18521 20.0297 3.24281 19.7458 3.45716 19.4536C3.73472 19.1959 3.95611 19.1039 4.33606 19.1606Z" fill="#F0EEF9"/>
<path d="M11.6599 14.2965C12.3354 14.5197 12.7447 15.1096 13.0589 15.7174C13.2974 16.2305 13.408 16.7661 13.2582 17.3257C13.1495 17.5919 13.0334 17.7905 12.7732 17.9293C12.4624 18.0286 12.2354 18.0035 11.9419 17.8634C11.1808 17.4323 10.836 16.765 10.5283 15.9737C10.4416 15.5163 10.4018 15.0342 10.6533 14.624C10.9282 14.2535 11.2218 14.235 11.6599 14.2965Z" fill="#F0EEFA"/>
<path d="M16.6463 9.45207C16.8208 9.58778 16.9712 9.73821 17.016 9.96042C17.0268 10.2183 17.0093 10.3872 16.8457 10.593C16.6456 10.795 16.4362 10.914 16.1718 11.0142C16.1276 11.0317 16.0833 11.0492 16.0377 11.0673C15.2915 11.3168 14.3654 11.2863 13.6523 10.9556C13.3901 10.8002 13.1717 10.6298 13.0078 10.3697C12.9589 10.1233 12.9739 9.90847 13.0883 9.68485C14.0133 8.86999 15.6075 8.78856 16.6463 9.45207Z" fill="#F0EEFA"/>
<path d="M21.1012 5.78198C21.1561 5.7818 21.211 5.78161 21.2676 5.78141C21.8651 5.78601 22.4383 5.91544 22.9085 6.30635C23.0746 6.48073 23.139 6.58846 23.1813 6.82935C23.1229 7.15058 22.9747 7.34442 22.7199 7.5398C22.0468 7.98615 21.1049 8.0049 20.3258 7.8806C19.8567 7.75168 19.4188 7.50937 19.1603 7.08936C19.1086 6.83066 19.1214 6.63327 19.2482 6.40088C19.7905 5.91281 20.3834 5.76954 21.1012 5.78198Z" fill="#F0EEFA"/>
<path d="M10.3995 6.12312C10.6095 6.27247 10.8065 6.41323 10.8657 6.67884C10.8811 6.95973 10.8449 7.12283 10.6641 7.34283C10.1682 7.84166 9.55659 7.91407 8.87695 7.92511C8.25294 7.91436 7.5866 7.85544 7.10747 7.40715C6.95237 7.22538 6.86381 7.08368 6.82617 6.84845C6.86828 6.52211 7.01458 6.3584 7.26562 6.15265C8.1623 5.64116 9.49975 5.58131 10.3995 6.12312Z" fill="#F0EEFA"/>
<path d="M14.9595 2.50016C15.0079 2.50044 15.0564 2.50073 15.1063 2.50103C15.7826 2.51389 16.3901 2.65515 16.8748 3.15201C16.9909 3.33703 17.0431 3.4647 17.0274 3.68531C16.9406 3.98439 16.7146 4.19613 16.4536 4.35364C15.9636 4.58336 15.4879 4.65073 14.9522 4.64981C14.8666 4.64967 14.8666 4.64967 14.7794 4.64953C14.1173 4.63821 13.6162 4.46099 13.1321 3.99796C13.0096 3.81054 12.9563 3.68697 12.9719 3.461C13.0575 3.16798 13.2847 2.96103 13.5308 2.79267C13.9747 2.55201 14.4619 2.49662 14.9595 2.50016Z" fill="#F0EFFA"/>
<path d="M19.8045 21.6788C19.9974 21.8019 20.0877 21.8985 20.2147 22.089C20.2027 22.249 20.1824 22.3484 20.0829 22.4755C19.4658 22.992 18.7937 23.4405 18.109 23.8614C18.0408 23.9034 18.0408 23.9034 17.9713 23.9463C17.9082 23.9845 17.9082 23.9845 17.8437 24.0235C17.8065 24.046 17.7692 24.0685 17.7309 24.0917C17.6366 24.1397 17.6366 24.1397 17.5194 24.1397C17.4628 23.5027 17.8033 22.887 18.1639 22.3819C18.5991 21.8991 19.1272 21.471 19.8045 21.6788Z" fill="#EFEDF8"/>
</g>
<defs>
<clipPath id="clip0_1743_19429">
<rect width="30" height="30" fill="white"/>
</clipPath>
</defs>
</svg>
