<svg width="40" height="40" viewBox="0 0 40 40" fill="none" xmlns="http://www.w3.org/2000/svg">
<path d="M20.9071 2.11089C22.2022 3.19014 23.0127 4.73004 23.2032 6.40715C23.4121 9.86207 21.6243 12.8724 19.409 15.3845C19.2423 15.57 19.0749 15.7547 18.9063 15.9384C19.0885 16.0295 19.2276 16.0408 19.4303 16.0617C22.4559 16.3928 22.4559 16.3928 23.672 17.1884C23.8699 17.4854 23.8819 17.6179 23.8282 17.9697C23.3123 18.7199 22.1466 18.8695 21.3233 19.039C21.2473 19.0548 21.1713 19.0706 21.093 19.0869C19.6662 19.3633 18.2365 19.4051 16.7872 19.4003C16.6995 19.4002 16.6119 19.4001 16.5216 19.4C15.2455 19.3969 13.9937 19.3676 12.7345 19.1415C12.6658 19.1298 12.5972 19.1181 12.5265 19.1061C10.4417 18.7426 10.4417 18.7426 9.76572 18.0478C9.64923 17.8148 9.64775 17.6817 9.68759 17.4228C10.7092 16.1968 13.0658 16.1525 14.5313 16.0165C14.5313 15.7708 14.3716 15.6782 14.2042 15.5038C12.0569 13.2019 10.2348 10.0721 10.2931 6.84477C10.4179 5.04664 11.1715 3.39207 12.5233 2.18657C13.1349 1.66865 13.7839 1.30081 14.5313 1.01653C14.6172 0.98269 14.7031 0.948852 14.7917 0.913989C16.8956 0.221485 19.19 0.789655 20.9071 2.11089Z" fill="#FED92C"/>
<path d="M30.8634 18.9622C30.9285 18.9615 30.9937 18.9607 31.0609 18.96C31.1314 18.96 31.2018 18.9601 31.2744 18.9602C31.3467 18.9599 31.4189 18.9595 31.4933 18.9592C31.6462 18.9587 31.7991 18.9587 31.952 18.959C32.1866 18.9593 32.4211 18.9574 32.6557 18.9555C32.804 18.9553 32.9523 18.9552 33.1006 18.9553C33.1711 18.9546 33.2416 18.9539 33.3142 18.9531C33.4119 18.9539 33.4119 18.9539 33.5117 18.9546C33.5692 18.9546 33.6266 18.9545 33.6858 18.9545C33.8282 18.9837 33.8282 18.9837 33.9844 19.2181C34.004 19.3741 34.004 19.3741 34.0041 19.5562C34.0045 19.6256 34.0049 19.695 34.0053 19.7666C34.0048 19.8811 34.0048 19.8811 34.0042 19.998C34.0045 20.0791 34.0047 20.1602 34.005 20.2437C34.0056 20.5166 34.0051 20.7896 34.0046 21.0625C34.0048 21.2577 34.0051 21.4529 34.0054 21.648C34.0061 22.1238 34.006 22.5997 34.0055 23.0755C34.0052 23.4621 34.0051 23.8488 34.0053 24.2354C34.0053 24.2904 34.0054 24.3454 34.0054 24.402C34.0054 24.5137 34.0055 24.6253 34.0055 24.737C34.006 25.7848 34.0055 26.8325 34.0046 27.8803C34.0039 28.7798 34.0041 29.6793 34.0048 30.5788C34.0056 31.6228 34.0059 32.6667 34.0055 33.7107C34.0054 33.8219 34.0054 33.9332 34.0053 34.0445C34.0053 34.0992 34.0053 34.154 34.0052 34.2104C34.0051 34.5966 34.0053 34.9829 34.0057 35.3692C34.0062 35.8889 34.0058 36.4085 34.0049 36.9282C34.0047 37.1193 34.0048 37.3105 34.0051 37.5016C34.0056 37.7617 34.005 38.0218 34.0042 38.2819C34.0048 38.3964 34.0048 38.3964 34.0053 38.5133C34.0047 38.6174 34.0047 38.6174 34.0041 38.7237C34.004 38.7838 34.004 38.8438 34.004 38.9057C33.9844 39.0618 33.9844 39.0618 33.8282 39.2962C33.6818 39.3244 33.6818 39.3244 33.502 39.3228C33.4012 39.3228 33.4012 39.3228 33.2983 39.3227C33.2256 39.3215 33.1529 39.3203 33.078 39.3191C32.9665 39.3186 32.9665 39.3186 32.8527 39.3181C32.6147 39.3168 32.3767 39.3138 32.1387 39.3108C31.9776 39.3097 31.8164 39.3086 31.6553 39.3076C31.2598 39.305 30.8643 39.301 30.4688 39.2962C30.3781 39.1147 30.3808 39.0108 30.3806 38.8088C30.3803 38.7389 30.3801 38.669 30.3798 38.597C30.38 38.4811 30.38 38.4811 30.3802 38.3629C30.38 38.2812 30.3799 38.1995 30.3797 38.1154C30.3792 37.8398 30.3792 37.5643 30.3793 37.2887C30.3791 37.0919 30.3788 36.8951 30.3785 36.6983C30.3779 36.2182 30.3776 35.738 30.3776 35.2579C30.3776 34.8678 30.3774 34.4777 30.3772 34.0876C30.3765 32.9825 30.3761 31.8775 30.3762 30.7724C30.3762 30.7128 30.3762 30.6532 30.3762 30.5918C30.3762 30.5321 30.3762 30.4724 30.3762 30.411C30.3762 29.4431 30.3755 28.4753 30.3744 27.5074C30.3732 26.5146 30.3727 25.5218 30.3728 24.5289C30.3728 23.9712 30.3726 23.4134 30.3717 22.8556C30.371 22.3313 30.371 21.8071 30.3715 21.2828C30.3716 21.0898 30.3714 20.8969 30.371 20.704C30.3704 20.4416 30.3707 20.1793 30.3713 19.917C30.3709 19.8397 30.3705 19.7624 30.3701 19.6828C30.3705 19.613 30.3708 19.5431 30.3712 19.4711C30.3712 19.4105 30.3712 19.3499 30.3712 19.2874C30.4119 18.9796 30.5967 18.9639 30.8634 18.9622Z" fill="#63B4F5"/>
<path d="M25.2297 24.0328C25.2982 24.0325 25.3667 24.0323 25.4372 24.0321C25.5819 24.0319 25.7267 24.0323 25.8714 24.0333C26.0931 24.0346 26.3148 24.0333 26.5365 24.0318C26.6771 24.032 26.8176 24.0323 26.9582 24.0328C27.0246 24.0323 27.091 24.0318 27.1595 24.0313C27.6119 24.0367 27.6119 24.0367 27.7912 24.146C27.9444 24.3801 27.9228 24.6184 27.9201 24.8889C27.9204 24.9496 27.9207 25.0103 27.921 25.0729C27.9218 25.2769 27.9208 25.4809 27.9199 25.685C27.9201 25.831 27.9204 25.977 27.9208 26.1231C27.9215 26.5201 27.9208 26.9172 27.9198 27.3143C27.9189 27.7292 27.9192 28.1441 27.9193 28.559C27.9194 29.2558 27.9185 29.9525 27.9171 30.6493C27.9155 31.4558 27.9152 32.2622 27.9157 33.0687C27.9161 33.8435 27.9157 34.6182 27.9148 35.393C27.9144 35.7232 27.9144 36.0534 27.9145 36.3836C27.9147 36.7722 27.914 37.1607 27.9128 37.5492C27.9125 37.6921 27.9124 37.8351 27.9126 37.978C27.9129 38.1724 27.9122 38.3668 27.9112 38.5613C27.9117 38.647 27.9117 38.647 27.9121 38.7344C27.9087 39.1242 27.9087 39.1242 27.7346 39.2983C27.5923 39.3181 27.5923 39.3181 27.4181 39.3185C27.353 39.319 27.2878 39.3195 27.2206 39.32C27.1501 39.3196 27.0797 39.3193 27.0071 39.319C26.9348 39.3192 26.8626 39.3193 26.7881 39.3195C26.6353 39.3196 26.4824 39.3193 26.3295 39.3186C26.0949 39.3178 25.8604 39.3186 25.6258 39.3196C25.4775 39.3195 25.3292 39.3193 25.1809 39.319C25.1104 39.3193 25.0399 39.3196 24.9673 39.32C24.8696 39.3192 24.8696 39.3192 24.7698 39.3185C24.7123 39.3183 24.6549 39.3182 24.5957 39.3181C24.4533 39.2983 24.4533 39.2983 24.2971 39.142C24.2815 38.9456 24.2757 38.7578 24.2767 38.5613C24.2764 38.5007 24.2761 38.4401 24.2758 38.3777C24.275 38.1736 24.2753 37.9695 24.2756 37.7654C24.2753 37.6195 24.2749 37.4736 24.2744 37.3277C24.2734 36.9306 24.2733 36.5336 24.2735 36.1365C24.2736 35.8055 24.2732 35.4744 24.2729 35.1434C24.272 34.3626 24.272 33.5819 24.2724 32.8012C24.2729 31.9947 24.2719 31.1883 24.2703 30.3819C24.2689 29.6904 24.2684 28.9989 24.2687 28.3074C24.2688 27.894 24.2686 27.4806 24.2675 27.0673C24.2666 26.6786 24.2667 26.29 24.2677 25.9013C24.2679 25.7584 24.2677 25.6155 24.2671 25.4726C24.2662 25.278 24.2669 25.0835 24.2679 24.8889C24.2673 24.8319 24.2667 24.775 24.2661 24.7163C24.2685 24.4933 24.2727 24.3355 24.3968 24.146C24.6467 23.9936 24.9452 24.0307 25.2297 24.0328Z" fill="#71D460"/>
<path d="M30.7812 13.359C30.8589 13.363 30.9367 13.367 31.0167 13.3711C31.2785 13.3846 31.5401 13.4007 31.8017 13.4176C31.8873 13.4224 31.9728 13.4272 32.0609 13.4321C32.4076 13.4581 32.6718 13.4831 32.9831 13.6435C33.2254 13.9582 33.2146 14.2825 33.1667 14.6672C33.1462 14.7711 33.1246 14.8748 33.1021 14.9783C33.0906 15.0338 33.0791 15.0893 33.0672 15.1466C33.0428 15.2631 33.0179 15.3796 32.9925 15.496C32.9541 15.6733 32.9179 15.8509 32.8819 16.0287C32.8578 16.1425 32.8335 16.2562 32.8091 16.3699C32.7985 16.4226 32.7879 16.4752 32.777 16.5295C32.7006 16.8702 32.5946 17.0986 32.3437 17.3434C31.9628 17.4039 31.8105 17.3977 31.4795 17.2018C31.254 16.8308 31.3254 16.5081 31.4062 16.0934C31.432 16.0161 31.4578 15.9387 31.4844 15.859C30.4926 16.4842 29.5074 17.1176 28.5351 17.7728C28.2561 17.9604 27.9746 18.143 27.6904 18.3227C26.9063 18.8227 26.2429 19.3144 25.6501 20.0329C25.4749 20.2417 25.288 20.4397 25.1025 20.6393C24.8469 20.9177 24.5932 21.1978 24.3408 21.4792C24.0285 21.8272 23.7116 22.1708 23.3939 22.514C23.1591 22.7679 22.9261 23.0233 22.6953 23.2809C22.3851 23.6271 22.0703 23.9688 21.7543 24.3095C21.5078 24.5756 21.2656 24.8451 21.0254 25.1168C20.3717 25.8401 20.3717 25.8401 20.021 25.8885C19.6942 25.8508 19.4763 25.7128 19.209 25.534C19.1553 25.4993 19.1016 25.4645 19.0462 25.4287C18.8685 25.313 18.692 25.1956 18.5156 25.0778C18.4545 25.0372 18.3933 24.9966 18.3303 24.9548C17.8693 24.6487 17.411 24.3386 16.9531 24.028C16.8188 23.9372 16.6846 23.8464 16.5503 23.7556C15.7445 23.2105 14.9414 22.6615 14.1406 22.109C13.9118 22.3331 13.6955 22.5559 13.5 22.8097C13.4339 22.8952 13.4339 22.8952 13.3665 22.9824C13.3206 23.0422 13.2748 23.1021 13.2275 23.1637C13.1794 23.2261 13.1312 23.2885 13.0816 23.3528C12.9395 23.537 12.7979 23.7214 12.6562 23.9059C12.5837 24 12.5112 24.0941 12.4386 24.1882C12.2504 24.4324 12.0627 24.677 11.875 24.9215C11.7448 25.0908 11.6146 25.2601 11.4844 25.4293C11.4193 25.514 11.3542 25.5986 11.2891 25.6833C10.1172 27.2067 10.1172 27.2067 10.0194 27.3338C9.95463 27.418 9.88984 27.5023 9.82507 27.5865C9.65773 27.8042 9.49016 28.0216 9.32219 28.2388C9.25352 28.3277 9.18485 28.4166 9.1162 28.5055C9.08336 28.548 9.05053 28.5905 9.01669 28.6342C8.84572 28.8563 8.6799 29.0807 8.5205 29.3112C8.35936 29.5309 8.35936 29.5309 8.12499 29.6872C7.81206 29.7219 7.63062 29.714 7.34862 29.57C7.17306 29.3572 7.11161 29.2143 7.13012 28.9361C7.24978 28.5472 7.53271 28.2473 7.78804 27.9377C7.95595 27.7322 8.1155 27.5203 8.27636 27.3092C8.34211 27.2238 8.40792 27.1385 8.4738 27.0532C8.67033 26.7986 8.86644 26.5437 9.06249 26.2887C9.12759 26.2041 9.1927 26.1195 9.2578 26.0348C9.29003 25.9929 9.32225 25.951 9.35546 25.9079C10.2344 24.7653 11.1133 23.6227 11.9922 22.4801C12.0244 22.4382 12.0567 22.3962 12.0899 22.353C12.1546 22.2689 12.2193 22.1849 12.2841 22.101C12.454 21.8806 12.6227 21.6595 12.7899 21.437C12.8248 21.391 12.8596 21.3449 12.8955 21.2974C12.9924 21.1692 13.0889 21.0407 13.1854 20.9121C13.4104 20.6413 13.5392 20.4883 13.8934 20.4351C14.2003 20.4764 14.406 20.5979 14.6582 20.7663C14.7107 20.8002 14.7633 20.8342 14.8174 20.8691C15.0096 20.9944 15.2002 21.1218 15.3906 21.2497C15.4687 21.3021 15.5468 21.3544 15.6272 21.4084C16.1308 21.7473 16.6328 22.0886 17.134 22.431C17.6423 22.7781 18.1516 23.1236 18.6611 23.469C18.8954 23.6279 19.1297 23.7869 19.364 23.9459C19.4417 23.9986 19.5194 24.0514 19.5995 24.1057C19.6543 24.1429 19.7091 24.1801 19.7656 24.2184C20.2886 23.9674 20.6365 23.5073 21.0104 23.074C21.2103 22.8465 21.4153 22.6242 21.6211 22.402C21.6814 22.3369 21.6814 22.3369 21.7428 22.2705C21.8247 22.1821 21.9066 22.0936 21.9886 22.0052C22.4341 21.5236 22.8774 21.0399 23.3154 20.5514C23.6275 20.2036 23.944 19.86 24.2618 19.5174C24.5035 19.2566 24.7406 18.9922 24.9756 18.7252C25.6033 18.0332 26.2905 17.541 27.0743 17.0413C27.6669 16.6632 28.2537 16.2762 28.8408 15.8897C29.0268 15.7673 29.2127 15.645 29.3988 15.5227C29.9736 15.1452 29.9736 15.1452 30.5469 14.7653C30.495 14.7633 30.4431 14.7613 30.3897 14.7592C29.9595 14.7316 29.6842 14.7038 29.375 14.3747C29.2622 14.149 29.2674 13.9999 29.2969 13.7497C29.6189 13.1799 30.2148 13.3227 30.7812 13.359Z" fill="#FFD6BD"/>
<path d="M18.9211 3.76494C19.7644 4.40551 20.4821 5.23487 20.6865 6.31011C20.803 7.52163 20.596 8.59659 19.8491 9.57274C19.1883 10.3561 18.3657 10.8743 17.3439 11.0159C16.1696 11.1001 15.2062 10.9183 14.2553 10.1684C13.4004 9.42196 12.8884 8.48254 12.7932 7.34526C12.7535 6.30954 13.0918 5.29784 13.7529 4.49462C14.1463 4.07903 14.5679 3.7723 15.0783 3.51592C15.1386 3.48359 15.199 3.45126 15.2611 3.41796C16.3967 2.90307 17.9019 3.09686 18.9211 3.76494Z" fill="#FCB800"/>
<path d="M12.5821 26.4624C12.6473 26.4619 12.7125 26.4614 12.7796 26.4609C12.8501 26.4613 12.9206 26.4616 12.9932 26.4619C13.1015 26.4617 13.1015 26.4617 13.2121 26.4614C13.365 26.4613 13.5179 26.4616 13.6707 26.4623C13.9053 26.4631 14.1398 26.4623 14.3744 26.4613C14.5227 26.4614 14.671 26.4616 14.8194 26.4619C14.8898 26.4616 14.9603 26.4613 15.0329 26.4609C15.1307 26.4617 15.1307 26.4617 15.2304 26.4624C15.2879 26.4626 15.3454 26.4627 15.4046 26.4628C15.5469 26.4826 15.5469 26.4826 15.7031 26.6389C15.7228 26.8529 15.7228 26.8529 15.723 27.1312C15.7232 27.1823 15.7235 27.2333 15.7237 27.2859C15.7243 27.4578 15.7238 27.6297 15.7234 27.8016C15.7236 27.9245 15.7238 28.0475 15.7242 28.1704C15.7249 28.5048 15.7246 28.8393 15.7241 29.1737C15.7237 29.5231 15.7241 29.8726 15.7243 30.222C15.7246 30.8089 15.7243 31.3958 15.7235 31.9827C15.7227 32.6619 15.7229 33.3412 15.7238 34.0204C15.7245 34.6028 15.7246 35.1852 15.7242 35.7676C15.724 36.1158 15.7239 36.464 15.7244 36.8122C15.7249 37.1395 15.7246 37.4668 15.7237 37.7941C15.7235 37.9144 15.7235 38.0348 15.7239 38.1552C15.7243 38.319 15.7238 38.4828 15.723 38.6466C15.7229 38.7384 15.7229 38.8303 15.7228 38.9249C15.7031 39.1389 15.7031 39.1389 15.5469 39.2951C15.4046 39.315 15.4046 39.315 15.2304 39.3154C15.1652 39.3159 15.1001 39.3164 15.0329 39.3169C14.9624 39.3165 14.892 39.3162 14.8194 39.3159C14.7471 39.316 14.6749 39.3162 14.6004 39.3164C14.4476 39.3165 14.2947 39.3162 14.1418 39.3155C13.9072 39.3147 13.6727 39.3155 13.4381 39.3165C13.2898 39.3164 13.1415 39.3162 12.9932 39.3159C12.9227 39.3162 12.8522 39.3165 12.7796 39.3169C12.6818 39.3161 12.6818 39.3161 12.5821 39.3154C12.5246 39.3152 12.4672 39.3151 12.4079 39.315C12.2656 39.2951 12.2656 39.2951 12.1094 39.1389C12.0897 38.9249 12.0897 38.9249 12.0896 38.6466C12.0893 38.5955 12.0891 38.5445 12.0888 38.4919C12.0882 38.32 12.0887 38.1481 12.0892 37.9762C12.089 37.8533 12.0887 37.7303 12.0883 37.6074C12.0876 37.273 12.0879 36.9385 12.0884 36.6041C12.0888 36.2547 12.0884 35.9052 12.0882 35.5558C12.0879 34.9689 12.0883 34.382 12.089 33.7951C12.0899 33.1159 12.0896 32.4366 12.0887 31.7574C12.088 31.175 12.0879 30.5926 12.0883 30.0102C12.0886 29.662 12.0886 29.3138 12.0881 28.9656C12.0876 28.6383 12.088 28.311 12.0889 27.9837C12.0891 27.8634 12.089 27.743 12.0887 27.6226C12.0882 27.4588 12.0888 27.295 12.0896 27.1312C12.0896 27.0394 12.0897 26.9475 12.0897 26.8529C12.1218 26.5042 12.2647 26.4631 12.5821 26.4624Z" fill="#FB675A"/>
<path d="M18.6758 29.3531C18.741 29.3526 18.8062 29.3521 18.8733 29.3516C18.9438 29.3519 19.0143 29.3522 19.0869 29.3525C19.1953 29.3523 19.1953 29.3523 19.3058 29.3521C19.4587 29.352 19.6116 29.3523 19.7645 29.3529C19.999 29.3537 20.2336 29.3529 20.4681 29.3519C20.6164 29.352 20.7648 29.3522 20.9131 29.3525C20.9836 29.3522 21.054 29.3519 21.1266 29.3516C21.2244 29.3523 21.2244 29.3523 21.3241 29.3531C21.3816 29.3532 21.4391 29.3533 21.4983 29.3534C21.6406 29.3733 21.6406 29.3733 21.7969 29.5295C21.8165 29.6984 21.8165 29.6984 21.8167 29.9121C21.8171 29.9929 21.8176 30.0738 21.818 30.1571C21.8177 30.2461 21.8174 30.3351 21.8171 30.4269C21.8174 30.5204 21.8176 30.6139 21.8179 30.7102C21.8185 30.967 21.8184 31.2238 21.8179 31.4806C21.8175 31.749 21.8178 32.0175 21.8181 32.2859C21.8184 32.7367 21.818 33.1875 21.8172 33.6383C21.8164 34.1599 21.8167 34.6815 21.8175 35.2031C21.8182 35.6505 21.8183 36.0979 21.8179 36.5453C21.8177 36.8127 21.8176 37.0801 21.8182 37.3475C21.8187 37.6455 21.818 37.9435 21.8171 38.2415C21.8174 38.3306 21.8177 38.4196 21.818 38.5114C21.8174 38.6326 21.8174 38.6326 21.8167 38.7564C21.8166 38.8269 21.8166 38.8974 21.8165 38.97C21.7969 39.1389 21.7969 39.1389 21.6406 39.2951C21.4983 39.315 21.4983 39.315 21.3241 39.3154C21.259 39.3159 21.1938 39.3164 21.1266 39.3169C21.0209 39.3164 21.0209 39.3164 20.9131 39.3159C20.8408 39.316 20.7686 39.3162 20.6942 39.3164C20.5413 39.3165 20.3884 39.3162 20.2355 39.3155C20.0009 39.3147 19.7664 39.3155 19.5319 39.3165C19.3835 39.3164 19.2352 39.3162 19.0869 39.3159C19.0164 39.3162 18.946 39.3165 18.8733 39.3169C18.7756 39.3161 18.7756 39.3161 18.6758 39.3154C18.6184 39.3152 18.5609 39.3151 18.5017 39.315C18.3594 39.2951 18.3594 39.2951 18.2031 39.1389C18.1835 38.97 18.1835 38.97 18.1833 38.7564C18.1828 38.6755 18.1824 38.5947 18.1819 38.5114C18.1823 38.4223 18.1826 38.3333 18.1829 38.2415C18.1826 38.148 18.1824 38.0545 18.1821 37.9582C18.1815 37.7014 18.1816 37.4446 18.1821 37.1878C18.1825 36.9194 18.1822 36.651 18.1819 36.3825C18.1816 35.9317 18.182 35.4809 18.1827 35.0301C18.1836 34.5085 18.1833 33.9869 18.1825 33.4653C18.1818 33.0179 18.1817 32.5705 18.1821 32.1231C18.1823 31.8557 18.1823 31.5883 18.1818 31.3209C18.1813 31.0229 18.182 30.7249 18.1829 30.4269C18.1826 30.3378 18.1823 30.2488 18.1819 30.1571C18.1824 30.0762 18.1828 29.9954 18.1833 29.9121C18.1833 29.8416 18.1834 29.771 18.1835 29.6984C18.2209 29.3772 18.3927 29.3537 18.6758 29.3531Z" fill="#FFD92C"/>
<path d="M15.0833 16.2208C15.1349 16.2746 15.1865 16.3283 15.2397 16.3837C15.3255 16.4716 15.3255 16.4716 15.4131 16.5613C15.4718 16.6229 15.5305 16.6845 15.5909 16.748C15.708 16.8693 15.8253 16.9903 15.9428 17.1112C16.0201 17.1921 16.0201 17.1921 16.0989 17.2746C16.386 17.5577 16.386 17.5577 16.7552 17.6895C17.0183 17.6453 17.1185 17.5431 17.3097 17.3584C17.3769 17.2951 17.4442 17.2317 17.5135 17.1664C17.5864 17.096 17.6593 17.0257 17.7345 16.9531C17.8574 16.8349 17.9806 16.7171 18.1048 16.6001C18.1852 16.5244 18.2649 16.4479 18.3439 16.3706C18.5823 16.1456 18.7404 16.057 19.0626 16.0156C19.351 16.0254 19.6359 16.0664 19.922 16.1035C20.0463 16.1196 20.0463 16.1196 20.1731 16.1361C21.3859 16.3027 22.6293 16.5053 23.672 17.1875C23.8699 17.4845 23.8819 17.617 23.8282 17.9688C23.3123 18.719 22.1466 18.8686 21.3233 19.0381C21.2473 19.0539 21.1713 19.0697 21.093 19.086C19.6662 19.3624 18.2365 19.4042 16.7872 19.3994C16.6995 19.3993 16.6119 19.3992 16.5216 19.3991C15.2455 19.396 13.9937 19.3667 12.7345 19.1406C12.6658 19.1289 12.5972 19.1172 12.5265 19.1051C10.4417 18.7417 10.4417 18.7417 9.76572 18.0469C9.64923 17.8139 9.64775 17.6808 9.68759 17.4219C10.5977 16.3297 12.594 16.2249 13.9063 16.0693C13.9638 16.0624 14.0212 16.0555 14.0804 16.0484C14.4599 16.0084 14.7731 15.9765 15.0833 16.2208Z" fill="#B4D1D6"/>
<path d="M6.31412 33.1732C6.40033 33.1733 6.40033 33.1733 6.48828 33.1733C6.55346 33.1729 6.61863 33.1724 6.68578 33.1719C6.75626 33.1726 6.82674 33.1733 6.89935 33.1741C6.97159 33.174 7.04383 33.174 7.11826 33.1739C7.27114 33.1741 7.42403 33.1749 7.57692 33.1762C7.81149 33.178 8.046 33.1778 8.28058 33.1773C8.42889 33.1777 8.57721 33.1783 8.72552 33.1789C8.796 33.1789 8.86648 33.1788 8.93909 33.1787C9.00426 33.1795 9.06944 33.1802 9.13659 33.181C9.2228 33.1815 9.2228 33.1815 9.31075 33.1821C9.45306 33.2024 9.45306 33.2024 9.60931 33.3587C9.62863 33.5959 9.62863 33.5959 9.62829 33.9046C9.62844 33.9608 9.62859 34.017 9.62874 34.0748C9.62903 34.2609 9.62819 34.447 9.62732 34.6331C9.62722 34.7621 9.62719 34.8911 9.62721 35.0202C9.62709 35.2907 9.62644 35.5613 9.62539 35.8319C9.62406 36.1792 9.62376 36.5265 9.62382 36.8739C9.6238 37.1403 9.62337 37.4068 9.62281 37.6733C9.62256 37.8014 9.6224 37.9294 9.62235 38.0575C9.62218 38.2363 9.6215 38.4152 9.62066 38.594C9.62021 38.7468 9.62021 38.7468 9.61976 38.9027C9.60931 39.1399 9.60931 39.1399 9.53119 39.2962C9.05562 39.3 8.58007 39.3029 8.10449 39.3048C7.94262 39.3056 7.78075 39.3066 7.61888 39.308C7.38656 39.3099 7.15426 39.3108 6.92193 39.3114C6.81292 39.3127 6.81292 39.3127 6.7017 39.3139C6.63446 39.3139 6.56721 39.3139 6.49793 39.3139C6.40893 39.3144 6.40893 39.3144 6.31814 39.315C6.17181 39.2962 6.17181 39.2962 6.01556 39.1399C5.99572 38.9062 5.99572 38.9062 5.99534 38.6024C5.99507 38.5471 5.9948 38.4918 5.99451 38.4349C5.99382 38.2517 5.99428 38.0685 5.99481 37.8854C5.9947 37.7583 5.99455 37.6312 5.99436 37.5041C5.99413 37.2375 5.99446 36.971 5.99519 36.7044C5.99608 36.3625 5.99557 36.0206 5.99463 35.6788C5.99407 35.4162 5.99425 35.1537 5.99465 34.8912C5.99476 34.7651 5.99463 34.6391 5.99426 34.513C5.99387 34.3368 5.99447 34.1607 5.99534 33.9845C5.99553 33.834 5.99553 33.834 5.99572 33.6805C6.01617 33.4293 6.03602 33.2303 6.31412 33.1732Z" fill="#8C9BA8"/>
<path d="M33.1251 18.9838C33.239 18.9775 33.3529 18.973 33.4669 18.9692C33.5303 18.9665 33.5938 18.9637 33.6591 18.9609C33.7149 18.9685 33.7707 18.976 33.8282 18.9838C33.9907 19.2275 34.004 19.2799 34.0041 19.5563C34.0045 19.6257 34.0049 19.6952 34.0054 19.7667C34.0048 19.8813 34.0048 19.8813 34.0043 19.9982C34.0046 20.0792 34.0048 20.1603 34.005 20.2438C34.0057 20.5168 34.0052 20.7897 34.0047 21.0627C34.0049 21.2578 34.0052 21.453 34.0055 21.6482C34.0062 22.124 34.0061 22.5998 34.0056 23.0757C34.0053 23.4623 34.0052 23.8489 34.0054 24.2355C34.0054 24.2905 34.0054 24.3455 34.0054 24.4021C34.0055 24.5138 34.0055 24.6255 34.0056 24.7371C34.006 25.7849 34.0055 26.8327 34.0047 27.8804C34.004 28.7799 34.0041 29.6795 34.0048 30.579C34.0057 31.6229 34.006 32.6669 34.0055 33.7108C34.0055 33.8221 34.0054 33.9333 34.0054 34.0446C34.0054 34.0994 34.0053 34.1541 34.0053 34.2105C34.0052 34.5968 34.0054 34.9831 34.0058 35.3694C34.0062 35.889 34.0059 36.4087 34.005 36.9283C34.0048 37.1195 34.0049 37.3106 34.0052 37.5017C34.0056 37.7618 34.0051 38.0219 34.0043 38.282C34.0048 38.3966 34.0048 38.3966 34.0054 38.5134C34.0048 38.6176 34.0048 38.6176 34.0041 38.7239C34.0041 38.7839 34.0041 38.844 34.0041 38.9059C33.9845 39.062 33.9845 39.062 33.8282 39.2963C33.6819 39.3245 33.6819 39.3245 33.5021 39.3229C33.4012 39.3229 33.4012 39.3229 33.2983 39.3229C33.2256 39.3217 33.153 39.3205 33.0781 39.3192C32.9666 39.3187 32.9666 39.3187 32.8528 39.3182C32.6148 39.3169 32.3768 39.314 32.1388 39.311C31.9776 39.3098 31.8165 39.3087 31.6554 39.3078C31.2598 39.3052 30.8643 39.3011 30.4688 39.2963C30.3749 39.1084 30.3828 38.9877 30.3858 38.7787C30.3865 38.7149 30.3872 38.651 30.388 38.5853C30.3893 38.5118 30.3893 38.5118 30.3907 38.437C30.5073 38.434 30.5073 38.434 30.6261 38.431C30.9134 38.4237 31.2007 38.4158 31.4879 38.4079C31.6124 38.4045 31.7369 38.4012 31.8615 38.3981C32.0401 38.3936 32.2187 38.3886 32.3972 38.3835C32.4812 38.3816 32.4812 38.3816 32.5669 38.3796C32.8294 38.394 32.8294 38.394 33.047 38.2807C33.0556 38.0328 33.0591 37.7866 33.0593 37.5387C33.0597 37.4599 33.0601 37.381 33.0605 37.2997C33.0617 37.0333 33.0624 36.7669 33.063 36.5004C33.0638 36.3103 33.0645 36.1202 33.0654 35.9301C33.067 35.5196 33.0685 35.1092 33.0697 34.6987C33.0715 34.1053 33.0737 33.5119 33.076 32.9184C33.0797 31.9557 33.0831 30.993 33.0862 30.0303C33.0893 29.0949 33.0925 28.1595 33.096 27.224C33.0962 27.1664 33.0964 27.1088 33.0966 27.0494C33.0977 26.7604 33.0988 26.4714 33.0999 26.1823C33.1088 23.7828 33.1171 21.3833 33.1251 18.9838Z" fill="#43A5F5"/>
<path d="M20.9375 2.1875C22.1879 3.17188 22.9007 4.56912 23.1705 6.12091C23.5162 9.14229 22.1441 11.979 20.3125 14.2969C20.2564 14.3681 20.2003 14.4393 20.1425 14.5126C19.364 15.482 18.5135 16.4142 17.5659 17.2208C17.4731 17.3 17.3818 17.3811 17.2925 17.4643C17.1263 17.6157 16.9978 17.7251 16.7749 17.7713C16.4617 17.7169 16.2875 17.5205 16.0693 17.3047C16.0264 17.2637 15.9834 17.2227 15.9392 17.1805C15.8336 17.0795 15.7292 16.9774 15.625 16.875C15.7023 16.875 15.7797 16.875 15.8594 16.875C16.3845 16.8125 16.668 16.4482 17.0312 16.0938C17.0872 16.0394 17.1432 15.985 17.2009 15.929C18.2671 14.8909 18.2671 14.8909 19.2188 13.75C19.3026 13.642 19.3864 13.5339 19.4702 13.4259C21.3471 10.9765 22.5631 8.25552 22.2459 5.11776C22.0933 4.10352 21.5743 3.13546 20.9375 2.34375C20.9375 2.29219 20.9375 2.24063 20.9375 2.1875Z" fill="#FEC802"/>
<path d="M27.8124 24.1401C27.9303 24.3758 27.9015 24.6191 27.901 24.8777C27.9012 24.9383 27.9014 24.9989 27.9015 25.0614C27.902 25.2657 27.902 25.47 27.9019 25.6743C27.9021 25.8203 27.9024 25.9663 27.9027 26.1123C27.9034 26.5097 27.9036 26.9071 27.9036 27.3045C27.9037 27.6357 27.904 27.967 27.9043 28.2982C27.9049 29.0793 27.9051 29.8604 27.905 30.6415C27.905 31.4486 27.9058 32.2556 27.907 33.0627C27.9081 33.7546 27.9085 34.4465 27.9084 35.1383C27.9084 35.552 27.9086 35.9657 27.9095 36.3794C27.9102 36.7682 27.9102 37.1571 27.9097 37.5459C27.9096 37.689 27.9098 37.832 27.9102 37.9751C27.9108 38.1697 27.9105 38.3643 27.9099 38.5589C27.9103 38.6161 27.9107 38.6733 27.9111 38.7322C27.9084 39.1223 27.9084 39.1223 27.7343 39.2964C27.592 39.3162 27.592 39.3162 27.4178 39.3166C27.3527 39.3171 27.2875 39.3176 27.2203 39.3181C27.1499 39.3178 27.0794 39.3175 27.0068 39.3171C26.9345 39.3173 26.8623 39.3174 26.7879 39.3176C26.635 39.3177 26.4821 39.3174 26.3292 39.3168C26.0946 39.3159 25.8601 39.3167 25.6255 39.3177C25.4772 39.3176 25.3289 39.3174 25.1806 39.3171C25.1101 39.3175 25.0396 39.3178 24.967 39.3181C24.8693 39.3174 24.8693 39.3174 24.7695 39.3166C24.712 39.3165 24.6546 39.3164 24.5954 39.3162C24.4531 39.2964 24.4531 39.2964 24.2968 39.1401C24.2815 38.9711 24.2815 38.9711 24.287 38.7788C24.2884 38.715 24.2899 38.6511 24.2913 38.5853C24.2931 38.5364 24.2949 38.4874 24.2968 38.437C24.4133 38.4341 24.4133 38.4341 24.5322 38.4311C24.8195 38.4237 25.1068 38.4159 25.394 38.4079C25.5185 38.4045 25.643 38.4013 25.7675 38.3982C25.9462 38.3937 26.1247 38.3887 26.3033 38.3836C26.3873 38.3816 26.3873 38.3816 26.473 38.3796C26.7355 38.394 26.7355 38.394 26.9531 38.2808C26.9616 38.098 26.9652 37.9174 26.9654 37.7345C26.9658 37.6767 26.9662 37.6189 26.9666 37.5594C26.9678 37.3642 26.9684 37.169 26.9691 36.9738C26.9698 36.8345 26.9706 36.6952 26.9714 36.5558C26.9736 36.1764 26.9752 35.7969 26.9768 35.4174C26.9785 35.0213 26.9806 34.6252 26.9827 34.2291C26.9866 33.4784 26.9901 32.7278 26.9935 31.9771C26.9973 31.1228 27.0016 30.2684 27.006 29.4141C27.0149 27.6561 27.0232 25.8981 27.0312 24.1401C27.5488 24.0522 27.5488 24.0522 27.8124 24.1401Z" fill="#58CA5A"/>
<path d="M14.8437 26.484C14.9576 26.4798 15.0715 26.4768 15.1855 26.4742C15.2489 26.4724 15.3124 26.4706 15.3777 26.4688C15.5468 26.484 15.5468 26.484 15.7031 26.6403C15.7227 26.8543 15.7227 26.8543 15.7229 27.1325C15.7231 27.1836 15.7234 27.2347 15.7236 27.2873C15.7243 27.4592 15.7238 27.6311 15.7233 27.803C15.7235 27.9259 15.7238 28.0488 15.7241 28.1717C15.7248 28.5062 15.7245 28.8406 15.724 29.1751C15.7236 29.5245 15.724 29.8739 15.7243 30.2234C15.7245 30.8103 15.7242 31.3971 15.7234 31.984C15.7226 32.6633 15.7229 33.3425 15.7237 34.0218C15.7244 34.6042 15.7245 35.1866 15.7241 35.769C15.7239 36.1172 15.7238 36.4654 15.7244 36.8136C15.7248 37.1409 15.7245 37.4681 15.7236 37.7954C15.7234 37.9158 15.7234 38.0362 15.7238 38.1565C15.7242 38.3204 15.7237 38.4842 15.7229 38.648C15.7228 38.7398 15.7228 38.8316 15.7227 38.9263C15.7031 39.1403 15.7031 39.1403 15.5468 39.2965C15.4045 39.3163 15.4045 39.3163 15.2303 39.3167C15.1652 39.3172 15.1 39.3177 15.0328 39.3182C14.9624 39.3179 14.8919 39.3176 14.8193 39.3173C14.747 39.3174 14.6748 39.3176 14.6004 39.3177C14.4475 39.3178 14.2946 39.3175 14.1417 39.3169C13.9071 39.316 13.6726 39.3169 13.438 39.3179C13.2897 39.3178 13.1414 39.3176 12.9931 39.3173C12.9226 39.3176 12.8521 39.3179 12.7795 39.3182C12.6818 39.3175 12.6818 39.3175 12.582 39.3167C12.5245 39.3166 12.4671 39.3165 12.4079 39.3163C12.2656 39.2965 12.2656 39.2965 12.1093 39.1403C12.094 38.9712 12.094 38.9712 12.0995 38.7789C12.1009 38.7151 12.1024 38.6512 12.1038 38.5854C12.1056 38.5365 12.1074 38.4876 12.1093 38.4371C12.2258 38.4342 12.2258 38.4342 12.3447 38.4312C12.632 38.4239 12.9193 38.416 13.2065 38.408C13.331 38.4047 13.4555 38.4014 13.58 38.3983C13.7587 38.3938 13.9372 38.3888 14.1158 38.3837C14.1998 38.3818 14.1998 38.3818 14.2855 38.3798C14.548 38.3942 14.548 38.3942 14.7656 38.2809C14.7741 38.1286 14.777 37.9761 14.7779 37.8236C14.7787 37.7243 14.7794 37.6249 14.7802 37.5225C14.7807 37.4114 14.7811 37.3002 14.7816 37.1891C14.7823 37.0729 14.7831 36.9566 14.7839 36.8404C14.7861 36.5239 14.7877 36.2074 14.7893 35.8908C14.791 35.5604 14.7931 35.23 14.7952 34.8996C14.7991 34.2734 14.8026 33.6473 14.806 33.0211C14.8098 32.3085 14.8141 31.5958 14.8185 30.8832C14.8274 29.4168 14.8357 27.9504 14.8437 26.484Z" fill="#F35244"/>
<path d="M17.1093 4.21976C17.2913 4.39696 17.4051 4.51884 17.4511 4.77152C17.5313 5.02023 17.7552 5.09877 17.9686 5.23538C18.1759 5.43577 18.2008 5.53013 18.2372 5.82132C18.203 6.09476 18.203 6.09476 18.081 6.28519C17.8188 6.45326 17.6496 6.4455 17.3436 6.40726C17.2383 6.33067 17.1341 6.25259 17.0311 6.17288C16.7837 6.15328 16.7837 6.15328 16.5624 6.17288C16.5624 6.25023 16.5624 6.32757 16.5624 6.40726C16.6059 6.40837 16.6494 6.40947 16.6942 6.41062C17.2458 6.44509 17.6389 6.60119 18.0163 7.01334C18.2658 7.35955 18.3376 7.66558 18.3141 8.09C18.2416 8.51313 18.0726 8.80831 17.7636 9.10257C17.578 9.21976 17.578 9.21976 17.4218 9.21976C17.4145 9.34544 17.4145 9.34544 17.4071 9.47366C17.3436 9.76663 17.3436 9.76663 17.1776 9.96195C16.88 10.1173 16.7249 10.0955 16.4061 10.001C16.2266 9.83345 16.1778 9.73666 16.1474 9.4932C16.0676 9.20313 15.8738 9.14157 15.6249 8.98538C15.4105 8.77094 15.3224 8.65591 15.2733 8.3555C15.3124 8.12601 15.3124 8.12601 15.4296 7.94046C15.7219 7.75049 15.9041 7.77509 16.2499 7.81351C16.3769 7.9307 16.3769 7.9307 16.4843 8.04788C16.7285 8.06745 16.7285 8.06745 16.953 8.04788C16.953 7.97054 16.953 7.8932 16.953 7.81351C16.8973 7.80676 16.8416 7.80001 16.7843 7.79306C16.2917 7.7208 15.8949 7.64025 15.5468 7.26663C15.2551 6.86122 15.1796 6.50872 15.2343 6.01663C15.3979 5.50867 15.6536 5.21628 16.0936 4.92288C16.1178 4.83426 16.142 4.74564 16.1669 4.65433C16.2499 4.37601 16.2499 4.37601 16.3817 4.21976C16.6548 4.10166 16.8265 4.13897 17.1093 4.21976Z" fill="#FED92C"/>
<path d="M23.0469 16.875C23.1482 16.9214 23.249 16.9688 23.3496 17.0166C23.4339 17.056 23.4339 17.056 23.5199 17.0963C23.6719 17.1875 23.6719 17.1875 23.8281 17.4219C23.8721 17.6811 23.8961 17.87 23.7415 18.0948C23.0989 18.7103 22.1625 18.8653 21.3232 19.0381C21.2472 19.0539 21.1712 19.0697 21.0929 19.086C19.6661 19.3624 18.2364 19.4042 16.7871 19.3994C16.6995 19.3993 16.6118 19.3992 16.5215 19.3991C15.2454 19.396 13.9936 19.3667 12.7344 19.1406C12.6314 19.1231 12.6314 19.1231 12.5264 19.1051C10.3815 18.7312 10.3815 18.7312 9.76562 18.0469C9.71558 17.8394 9.71558 17.8394 9.6875 17.6562C9.76343 17.6808 9.83937 17.7054 9.9176 17.7307C10.5602 17.9325 11.2026 18.0961 11.8652 18.2178C11.9295 18.2298 11.9938 18.2419 12.06 18.2543C13.3316 18.4778 14.5996 18.5452 15.8887 18.54C15.9632 18.5399 16.0378 18.5398 16.1147 18.5396C19.7172 18.5957 19.7172 18.5957 22.8906 17.1875C22.9931 17.0221 22.9931 17.0221 23.0469 16.875Z" fill="#9CBAC3"/>
<path d="M20.9374 29.3746C21.0513 29.3704 21.1653 29.3674 21.2792 29.3649C21.3427 29.3631 21.4061 29.3612 21.4715 29.3594C21.6406 29.3746 21.6406 29.3746 21.7968 29.5309C21.8165 29.6997 21.8165 29.6997 21.8166 29.9134C21.8171 29.9943 21.8175 30.0751 21.818 30.1584C21.8177 30.2475 21.8173 30.3365 21.817 30.4283C21.8173 30.5218 21.8176 30.6152 21.8179 30.7116C21.8184 30.9684 21.8183 31.2252 21.8178 31.482C21.8174 31.7504 21.8178 32.0188 21.818 32.2872C21.8183 32.738 21.8179 33.1889 21.8172 33.6397C21.8163 34.1613 21.8166 34.6829 21.8175 35.2045C21.8182 35.6519 21.8183 36.0993 21.8179 36.5467C21.8176 36.8141 21.8176 37.0815 21.8181 37.3489C21.8186 37.6469 21.8179 37.9449 21.817 38.2429C21.8173 38.3319 21.8177 38.421 21.818 38.5127C21.8173 38.634 21.8173 38.634 21.8166 38.7577C21.8166 38.8282 21.8165 38.8987 21.8165 38.9714C21.7968 39.1403 21.7968 39.1403 21.6406 39.2965C21.4982 39.3163 21.4982 39.3163 21.3241 39.3167C21.2589 39.3172 21.1937 39.3177 21.1266 39.3182C21.0209 39.3177 21.0209 39.3177 20.913 39.3173C20.8408 39.3174 20.7685 39.3176 20.6941 39.3177C20.5412 39.3178 20.3883 39.3175 20.2354 39.3169C20.0009 39.316 19.7664 39.3169 19.5318 39.3179C19.3835 39.3178 19.2352 39.3176 19.0868 39.3173C19.0164 39.3176 18.9459 39.3179 18.8733 39.3182C18.7755 39.3175 18.7755 39.3175 18.6758 39.3167C18.6183 39.3166 18.5608 39.3165 18.5016 39.3163C18.3593 39.2965 18.3593 39.2965 18.2031 39.1403C18.1878 38.9712 18.1878 38.9712 18.1933 38.7789C18.1947 38.7151 18.1961 38.6512 18.1976 38.5854C18.1994 38.5365 18.2012 38.4876 18.2031 38.4371C18.3196 38.4342 18.3196 38.4342 18.4385 38.4312C18.7257 38.4239 19.013 38.416 19.3003 38.408C19.4248 38.4047 19.5493 38.4014 19.6738 38.3983C19.8524 38.3938 20.031 38.3888 20.2096 38.3837C20.2656 38.3824 20.3216 38.3811 20.3793 38.3798C20.6417 38.3942 20.6417 38.3942 20.8593 38.2809C20.8677 38.1653 20.8708 38.0493 20.8717 37.9334C20.8724 37.8583 20.8732 37.7833 20.874 37.706C20.8744 37.623 20.8749 37.54 20.8753 37.4544C20.8761 37.3676 20.8769 37.2807 20.8777 37.1912C20.8802 36.9025 20.8821 36.6137 20.884 36.325C20.8856 36.1254 20.8873 35.9259 20.8889 35.7263C20.8928 35.2537 20.8964 34.7811 20.8997 34.3086C20.9036 33.7707 20.9079 33.2328 20.9122 32.6949C20.9211 31.5881 20.9294 30.4814 20.9374 29.3746Z" fill="#FFC701"/>
<path d="M8.74993 33.2028C8.86383 33.1985 8.97778 33.1955 9.09173 33.193C9.15517 33.1912 9.21862 33.1894 9.28399 33.1875C9.45305 33.2028 9.45305 33.2028 9.6093 33.359C9.62862 33.5962 9.62862 33.5962 9.62828 33.905C9.62843 33.9611 9.62858 34.0173 9.62873 34.0751C9.62902 34.2612 9.62818 34.4473 9.62731 34.6334C9.62722 34.7624 9.62718 34.8915 9.6272 35.0205C9.62708 35.2911 9.62643 35.5616 9.62538 35.8322C9.62406 36.1795 9.62376 36.5269 9.62382 36.8742C9.6238 37.1406 9.62337 37.4071 9.6228 37.6736C9.62255 37.8017 9.6224 37.9298 9.62234 38.0579C9.62217 38.2367 9.62149 38.4155 9.62065 38.5943C9.62021 38.7471 9.62021 38.7471 9.61975 38.903C9.6093 39.1403 9.6093 39.1403 9.53118 39.2965C9.05561 39.3004 8.58006 39.3032 8.10448 39.3051C7.94261 39.3059 7.78074 39.3069 7.61887 39.3083C7.38655 39.3102 7.15425 39.3111 6.92193 39.3118C6.81291 39.313 6.81291 39.313 6.7017 39.3142C6.63445 39.3142 6.56721 39.3142 6.49792 39.3142C6.40892 39.3148 6.40892 39.3148 6.31813 39.3153C6.1718 39.2965 6.1718 39.2965 6.01555 39.1403C6.0003 38.9712 6.0003 38.9712 6.00579 38.7789C6.0072 38.7151 6.00861 38.6512 6.01006 38.5854C6.01187 38.5365 6.01369 38.4876 6.01555 38.4371C6.13209 38.4342 6.13209 38.4342 6.25098 38.4312C6.53825 38.4239 6.8255 38.416 7.11276 38.408C7.23726 38.4047 7.36178 38.4014 7.48629 38.3983C7.6649 38.3938 7.84349 38.3888 8.02209 38.3837C8.07808 38.3824 8.13407 38.3811 8.19175 38.3798C8.45425 38.3942 8.45425 38.3942 8.6718 38.2809C8.68147 38.1227 8.68571 37.9643 8.68785 37.8059C8.6894 37.7042 8.69096 37.6025 8.69257 37.4978C8.69389 37.386 8.69521 37.2742 8.69652 37.1624C8.69813 37.0487 8.69977 36.9349 8.70144 36.8212C8.70576 36.5213 8.70962 36.2214 8.71338 35.9215C8.7173 35.6157 8.72166 35.3099 8.72597 35.0041C8.73438 34.4036 8.74231 33.8032 8.74993 33.2028Z" fill="#7A8C98"/>
<path d="M18.9208 3.76494C19.3176 4.06083 19.6616 4.40562 19.9999 4.76592C19.9741 4.81748 19.9483 4.86904 19.9217 4.92217C19.8771 4.88722 19.8325 4.85228 19.7865 4.81627C18.8792 4.13973 17.9232 3.83217 16.7967 3.90654C15.718 4.0793 14.8433 4.55433 14.1545 5.41167C13.4541 6.41829 13.2895 7.47357 13.4607 8.68056C13.513 8.94379 13.585 9.19957 13.6717 9.45342C13.0853 8.91817 12.858 8.11611 12.7925 7.34465C12.754 6.3089 13.0914 5.29798 13.7526 4.49462C14.146 4.07903 14.5675 3.7723 15.078 3.51592C15.1383 3.48359 15.1986 3.45126 15.2608 3.41796C16.3964 2.90307 17.9015 3.09686 18.9208 3.76494Z" fill="#F4A50D"/>
<path d="M15.8594 17.0323C16.0527 17.1807 16.2133 17.3473 16.3843 17.5206C16.5524 17.6704 16.5524 17.6704 16.7596 17.6967C17.0169 17.6444 17.101 17.5332 17.2754 17.34C17.5926 17.0422 17.5926 17.0422 17.8653 17C18.0903 17.0185 18.2966 17.0558 18.5156 17.1105C18.6245 17.1374 18.6245 17.1374 18.7357 17.1648C19.0377 17.2483 19.2687 17.3261 19.5312 17.5011C19.5166 17.6818 19.5166 17.6818 19.4531 17.8917C18.4294 18.6515 16.4349 18.473 15.2457 18.3184C14.7562 18.237 14.3868 18.1167 13.9844 17.8136C13.9586 17.762 13.9328 17.7105 13.9062 17.6573C14.1664 17.3357 14.4494 17.2557 14.8389 17.1691C14.8938 17.1556 14.9487 17.1421 15.0053 17.1282C15.5906 16.9899 15.5906 16.9899 15.8594 17.0323Z" fill="#EDF2F4"/>
<path d="M15.8594 17.0306C15.9109 17.1079 15.9625 17.1853 16.0156 17.265C15.9328 17.2839 15.8501 17.3028 15.7648 17.3223C15.6563 17.3487 15.5479 17.3752 15.4395 17.4017C15.3849 17.414 15.3303 17.4263 15.274 17.4389C14.9519 17.5153 14.9519 17.5153 14.7284 17.7447C14.7149 17.7926 14.7014 17.8406 14.6875 17.89C14.8809 18.0447 14.8809 18.0447 15.0781 18.2025C14.6202 18.1709 14.3529 18.1085 13.9844 17.8118C13.9586 17.7603 13.9328 17.7087 13.9062 17.6556C14.1664 17.3339 14.4494 17.2539 14.8389 17.1673C14.8938 17.1538 14.9487 17.1403 15.0053 17.1264C15.5779 16.9912 15.5779 16.9912 15.8594 17.0306Z" fill="#E0E3E3"/>
<path d="M20.9375 2.1875C21.0239 2.26062 21.1101 2.33389 21.1963 2.40723C21.2443 2.44801 21.2924 2.4888 21.3419 2.53082C21.473 2.64623 21.5968 2.76566 21.7188 2.89062C21.693 2.94219 21.6672 2.99375 21.6406 3.04688C21.293 2.93101 21.1136 2.64978 20.9375 2.34375C20.9375 2.29219 20.9375 2.24063 20.9375 2.1875Z" fill="#FFCE0E"/>
</svg>
